<svg width="142" height="113" viewBox="0 0 142 113" fill="none" xmlns="http://www.w3.org/2000/svg">
<path fill-rule="evenodd" clip-rule="evenodd" d="M141.505 17.707C120.332 27.4368 109.747 38.8665 109.749 51.9966C118.775 52.9675 126.239 56.4107 132.141 62.3263C138.043 68.2418 140.995 75.0899 140.997 82.8706C140.998 91.1377 138.136 98.1084 132.409 103.783C126.682 109.457 119.48 112.295 110.801 112.297C101.082 112.299 92.6632 108.613 85.5456 101.238C78.4281 93.8641 74.8684 84.9089 74.8664 74.3725C74.8607 42.7631 93.7747 18.04 131.609 0.202188L141.505 17.707ZM66.7775 17.7206C45.4305 27.4504 34.7584 38.8802 34.7608 52.0102C43.96 52.9811 51.5107 56.4243 57.413 62.3398C63.3154 68.2554 66.2672 75.1034 66.2686 82.8842C66.2701 91.1512 63.3642 98.1219 57.5507 103.796C51.7373 109.471 44.4915 112.309 35.8131 112.311C26.0934 112.312 17.7183 108.626 10.6875 101.252C3.65669 93.8777 0.140387 84.9225 0.138472 74.386C0.13273 42.7767 18.9599 18.0536 56.6207 0.215811L66.7775 17.7206Z" fill="#1DB5BE" fill-opacity="0.3"/>
</svg>
