<svg width="918" height="300" viewBox="0 0 918 300" fill="none" xmlns="http://www.w3.org/2000/svg">
<path d="M607.917 149.059C607.917 231.351 541.207 298.062 458.916 298.063C376.626 298.064 309.917 231.353 309.918 149.061C309.919 66.7688 376.629 0.0573836 458.919 0.0567455C541.209 0.0561073 607.918 66.7665 607.917 149.059Z" fill="#0000CB"/>
<path d="M149.195 0.0591473C231.485 0.0585091 298.194 66.7689 298.193 149.061C312.439 66.3981 335.497 33.7018 404.448 0.0571679L149.195 0.0591473Z" fill="#000099"/>
<path d="M458.916 298.063C376.626 298.064 309.917 231.353 309.918 149.061C298.986 231.779 271.191 262.714 204.926 299.341L458.916 298.063Z" fill="#0000CB"/>
<path d="M458.919 0.0567455C541.209 0.0561073 607.918 66.7665 607.917 149.059C622.511 59.3739 649.739 31.3355 714.324 0.0547649L458.919 0.0567455Z" fill="#0000CB"/>
<path d="M768.64 298.06C850.931 298.06 917.641 231.348 917.641 149.056C917.642 66.7641 850.933 0.0537055 768.643 0.0543436C686.353 0.0549818 619.643 66.7664 619.642 149.059C619.641 231.351 686.35 298.061 768.64 298.06Z" fill="url(#paint0_linear_1535_52952)"/>
<path d="M149.193 298.065C231.483 298.065 298.193 231.353 298.193 149.061C298.194 66.7689 231.485 0.0585091 149.195 0.0591473C66.9047 0.0597854 0.194772 66.7712 0.194106 149.063C0.193439 231.355 66.9023 298.066 149.193 298.065Z" fill="url(#paint1_linear_1535_52952)"/>
<path d="M768.64 298.06C686.35 298.061 619.641 231.351 619.642 149.059C606.151 231.98 582.224 263.956 513.628 298.062L768.64 298.06Z" fill="url(#paint2_linear_1535_52952)"/>
<ellipse cx="119.999" cy="120.001" rx="119.999" ry="120.001" transform="matrix(1 -7.7561e-06 -8.10073e-06 1 29.5859 29.6985)" fill="white"/>
<ellipse cx="119.999" cy="120.001" rx="119.999" ry="120.001" transform="matrix(1 -7.7561e-06 -8.10073e-06 1 338.922 29.6985)" fill="white"/>
<ellipse cx="119.999" cy="120.001" rx="119.999" ry="120.001" transform="matrix(1 -7.7561e-06 -8.10073e-06 1 648.25 29.6985)" fill="white"/>
<path d="M96.2631 147.06L96.2632 139.279L76.1132 139.279L76.1133 133.141L90.6215 102.42L98.0305 102.42L83.5223 133.141L96.2633 133.141L96.2634 121.051L102.835 121.051L102.835 133.141L107.268 133.141L107.268 139.279L102.835 139.279L102.835 147.06L96.2631 147.06ZM130.273 147.99C127.235 147.99 124.548 147.328 122.213 146.006C119.877 144.662 118.038 142.823 116.695 140.488C115.372 138.152 114.711 135.466 114.711 132.428L114.711 117.052C114.711 114.014 115.372 111.327 116.695 108.992C118.038 106.656 119.878 104.827 122.213 103.505C124.548 102.161 127.235 101.49 130.273 101.49C133.311 101.49 135.998 102.161 138.333 103.505C140.668 104.827 142.497 106.656 143.82 108.992C145.163 111.327 145.835 114.013 145.835 117.051L145.835 132.427C145.835 135.465 145.163 138.152 143.82 140.488C142.497 142.823 140.668 144.662 138.333 146.006C135.997 147.328 133.311 147.99 130.273 147.99ZM130.273 141.79C131.926 141.79 133.424 141.397 134.768 140.612C136.132 139.806 137.217 138.731 138.023 137.388C138.829 136.024 139.232 134.505 139.232 132.831L139.232 116.587C139.232 114.933 138.829 113.435 138.023 112.092C137.217 110.728 136.132 109.653 134.768 108.868C133.425 108.062 131.926 107.659 130.273 107.659C128.62 107.659 127.111 108.062 125.747 108.868C124.404 109.653 123.329 110.728 122.523 112.092C121.717 113.435 121.314 114.933 121.314 116.587L121.314 132.831C121.314 134.505 121.717 136.024 122.523 137.388C123.329 138.731 124.403 139.806 125.747 140.612C127.111 141.397 128.619 141.79 130.273 141.79ZM170.052 147.989C167.014 147.989 164.327 147.328 161.992 146.005C159.657 144.662 157.817 142.823 156.474 140.487C155.151 138.152 154.49 135.465 154.49 132.427L154.49 117.051C154.49 114.013 155.151 111.327 156.474 108.991C157.818 106.656 159.657 104.827 161.992 103.504C164.328 102.161 167.014 101.489 170.052 101.489C173.09 101.489 175.777 102.161 178.112 103.504C180.448 104.827 182.277 106.656 183.599 108.991C184.942 111.327 185.614 114.013 185.614 117.051L185.614 132.427C185.614 135.465 184.942 138.152 183.599 140.487C182.276 142.823 180.447 144.662 178.112 146.005C175.777 147.328 173.09 147.989 170.052 147.989ZM170.052 141.789C171.705 141.789 173.204 141.397 174.547 140.611C175.911 139.805 176.996 138.731 177.802 137.387C178.608 136.023 179.011 134.504 179.011 132.83L179.011 116.586C179.011 114.933 178.608 113.435 177.802 112.091C176.996 110.727 175.911 109.653 174.547 108.867C173.204 108.061 171.706 107.658 170.052 107.658C168.399 107.658 166.89 108.061 165.526 108.867C164.183 109.653 163.108 110.727 162.302 112.091C161.496 113.435 161.093 114.933 161.093 116.586L161.093 132.83C161.093 134.504 161.496 136.023 162.302 137.387C163.108 138.731 164.183 139.805 165.526 140.611C166.89 141.397 168.399 141.789 170.052 141.789ZM205.119 138.782L205.119 127.312L193.649 127.312L193.649 122.104L205.119 122.104L205.119 110.696L210.327 110.696L210.327 122.104L221.766 122.104L221.766 127.312L210.327 127.312L210.327 138.782L205.119 138.782Z" fill="#11B2B8"/>
<path d="M117.141 189.42C115.413 189.42 113.941 189.044 112.725 188.292C111.509 187.532 110.577 186.476 109.929 185.124C109.289 183.772 108.969 182.204 108.969 180.42C108.969 178.636 109.289 177.068 109.929 175.716C110.577 174.364 111.509 173.312 112.725 172.56C113.941 171.8 115.413 171.42 117.141 171.42C119.133 171.42 120.781 171.924 122.085 172.932C123.397 173.94 124.309 175.296 124.821 177L122.277 177.684C121.941 176.476 121.341 175.528 120.477 174.84C119.621 174.152 118.509 173.808 117.141 173.808C115.917 173.808 114.897 174.084 114.081 174.636C113.265 175.188 112.649 175.96 112.233 176.952C111.825 177.944 111.621 179.1 111.621 180.42C111.613 181.74 111.813 182.896 112.221 183.888C112.637 184.88 113.253 185.652 114.069 186.204C114.893 186.756 115.917 187.032 117.141 187.032C118.509 187.032 119.621 186.688 120.477 186C121.341 185.304 121.941 184.356 122.277 183.156L124.821 183.84C124.309 185.544 123.397 186.9 122.085 187.908C120.781 188.916 119.133 189.42 117.141 189.42ZM127.7 189.06L127.7 171.42L130.208 171.42L130.208 189.06L127.7 189.06ZM134.052 173.976L134.052 171.54L136.56 171.54L136.56 173.976L134.052 173.976ZM134.052 189.06L134.052 176.1L136.56 176.1L136.56 189.06L134.052 189.06ZM145.911 189.42C144.623 189.42 143.491 189.14 142.515 188.58C141.547 188.012 140.791 187.224 140.247 186.216C139.711 185.2 139.443 184.024 139.443 182.688C139.443 181.272 139.707 180.044 140.235 179.004C140.771 177.964 141.515 177.16 142.467 176.592C143.419 176.024 144.527 175.74 145.791 175.74C147.111 175.739 148.235 176.047 149.163 176.663C150.091 177.271 150.783 178.139 151.239 179.267C151.703 180.395 151.887 181.735 151.791 183.287L149.283 183.287L149.283 182.375C149.267 180.871 148.979 179.759 148.419 179.039C147.867 178.319 147.023 177.959 145.887 177.96C144.631 177.96 143.687 178.356 143.055 179.148C142.423 179.94 142.107 181.084 142.107 182.58C142.107 184.004 142.423 185.108 143.055 185.892C143.687 186.668 144.599 187.056 145.791 187.056C146.575 187.056 147.251 186.879 147.819 186.527C148.395 186.167 148.843 185.655 149.163 184.991L151.623 185.771C151.119 186.931 150.355 187.831 149.331 188.471C148.307 189.103 147.167 189.419 145.911 189.42ZM141.291 183.288L141.291 181.332L150.543 181.331L150.543 183.287L141.291 183.288ZM163.228 189.059L163.228 182.687C163.228 182.183 163.184 181.667 163.096 181.139C163.016 180.603 162.856 180.107 162.616 179.651C162.384 179.195 162.052 178.827 161.62 178.547C161.196 178.267 160.64 178.127 159.952 178.127C159.504 178.127 159.08 178.203 158.68 178.355C158.28 178.499 157.928 178.735 157.624 179.063C157.328 179.391 157.092 179.823 156.916 180.359C156.748 180.895 156.664 181.547 156.664 182.315L155.104 181.727C155.104 180.551 155.324 179.515 155.764 178.619C156.204 177.715 156.836 177.011 157.66 176.507C158.484 176.003 159.48 175.751 160.648 175.751C161.544 175.751 162.296 175.895 162.904 176.183C163.512 176.471 164.004 176.851 164.38 177.323C164.764 177.787 165.056 178.295 165.256 178.847C165.456 179.399 165.592 179.939 165.664 180.467C165.736 180.995 165.772 181.459 165.772 181.859L165.772 189.059L163.228 189.059ZM154.12 189.059L154.12 176.099L156.364 176.099L156.364 179.843L156.664 179.843L156.664 189.059L154.12 189.059ZM176.314 189.059C175.498 189.219 174.698 189.287 173.914 189.263C173.13 189.239 172.43 189.087 171.814 188.807C171.198 188.527 170.734 188.087 170.422 187.487C170.142 186.951 169.99 186.407 169.966 185.855C169.95 185.295 169.942 184.663 169.942 183.959L169.942 172.499L172.462 172.499L172.462 183.839C172.462 184.359 172.466 184.811 172.474 185.195C172.49 185.579 172.574 185.903 172.726 186.167C173.014 186.663 173.47 186.947 174.094 187.019C174.726 187.083 175.466 187.055 176.314 186.935L176.314 189.059ZM167.458 178.115L167.458 176.099L176.314 176.099L176.314 178.115L167.458 178.115ZM184.002 189.407C182.426 189.407 181.142 189.059 180.15 188.363C179.158 187.667 178.55 186.687 178.326 185.423L180.894 185.027C181.054 185.699 181.422 186.231 181.998 186.623C182.582 187.007 183.306 187.199 184.17 187.199C184.954 187.199 185.566 187.039 186.006 186.719C186.454 186.399 186.678 185.959 186.678 185.399C186.678 185.071 186.598 184.807 186.438 184.607C186.286 184.399 185.962 184.203 185.466 184.019C184.97 183.835 184.214 183.607 183.198 183.335C182.086 183.047 181.202 182.739 180.546 182.411C179.898 182.075 179.434 181.687 179.154 181.247C178.882 180.799 178.746 180.259 178.746 179.627C178.746 178.843 178.954 178.159 179.37 177.575C179.786 176.991 180.37 176.539 181.122 176.219C181.882 175.899 182.77 175.739 183.786 175.739C184.778 175.739 185.662 175.895 186.438 176.207C187.214 176.519 187.842 176.963 188.322 177.539C188.802 178.107 189.09 178.775 189.186 179.543L186.618 180.011C186.53 179.387 186.238 178.895 185.742 178.535C185.246 178.175 184.602 177.979 183.81 177.947C183.05 177.915 182.434 178.043 181.962 178.331C181.49 178.611 181.254 178.999 181.254 179.495C181.254 179.783 181.342 180.027 181.518 180.227C181.702 180.427 182.054 180.619 182.574 180.803C183.094 180.987 183.862 181.207 184.878 181.463C185.966 181.743 186.83 182.055 187.47 182.399C188.11 182.735 188.566 183.139 188.838 183.611C189.118 184.075 189.258 184.639 189.258 185.303C189.258 186.583 188.79 187.587 187.854 188.315C186.926 189.043 185.642 189.407 184.002 189.407Z" fill="black"/>
<path d="M380.895 147.897C378.684 147.897 376.607 147.484 374.664 146.657C372.721 145.81 371.037 144.611 369.611 143.061C368.206 141.511 367.183 139.682 366.542 137.574L372.804 135.838C373.403 137.76 374.447 139.238 375.935 140.271C377.423 141.284 379.076 141.78 380.895 141.759C382.528 141.738 383.964 141.356 385.204 140.612C386.444 139.868 387.415 138.866 388.118 137.605C388.821 136.324 389.172 134.856 389.172 133.203C389.172 130.723 388.397 128.677 386.847 127.065C385.318 125.453 383.313 124.647 380.833 124.647C380.13 124.647 379.407 124.751 378.663 124.957C377.94 125.164 377.258 125.433 376.617 125.763L373.579 120.648L389.327 106.729L390.009 108.589L368.309 108.589L368.309 102.42L395.155 102.42L395.155 108.589L382.073 121.175L382.011 119.067C384.822 119.067 387.261 119.697 389.327 120.958C391.394 122.198 392.985 123.893 394.101 126.042C395.238 128.171 395.806 130.558 395.806 133.203C395.806 136.055 395.134 138.587 393.791 140.798C392.468 143.009 390.681 144.745 388.428 146.006C386.196 147.267 383.685 147.897 380.895 147.897ZM419.444 147.99C416.406 147.99 413.72 147.329 411.384 146.006C409.049 144.663 407.21 142.823 405.866 140.488C404.544 138.153 403.883 135.466 403.883 132.428L403.883 117.052C403.883 114.014 404.544 111.327 405.867 108.992C407.21 106.657 409.049 104.828 411.385 103.505C413.72 102.162 416.407 101.49 419.445 101.49C422.483 101.49 425.169 102.161 427.505 103.505C429.84 104.827 431.669 106.656 432.992 108.992C434.335 111.327 435.007 114.014 435.007 117.052L435.007 132.428C435.007 135.466 434.335 138.152 432.991 140.488C431.669 142.823 429.84 144.662 427.504 146.006C425.169 147.328 422.482 147.99 419.444 147.99ZM419.444 141.79C421.098 141.79 422.596 141.397 423.939 140.612C425.303 139.806 426.389 138.731 427.195 137.388C428.001 136.024 428.404 134.505 428.404 132.831L428.404 116.587C428.404 114.933 428.001 113.435 427.195 112.092C426.389 110.728 425.304 109.653 423.94 108.868C422.596 108.062 421.098 107.659 419.445 107.659C417.791 107.659 416.283 108.062 414.919 108.868C413.575 109.653 412.501 110.728 411.695 112.092C410.889 113.435 410.486 114.934 410.486 116.587L410.486 132.831C410.486 134.505 410.889 136.024 411.695 137.388C412.501 138.731 413.575 139.806 414.918 140.612C416.282 141.397 417.791 141.79 419.444 141.79ZM459.224 147.99C456.186 147.99 453.499 147.328 451.164 146.006C448.828 144.662 446.989 142.823 445.646 140.488C444.323 138.152 443.662 135.466 443.662 132.428L443.662 117.052C443.662 114.014 444.323 111.327 445.646 108.992C446.989 106.656 448.829 104.827 451.164 103.505C453.499 102.161 456.186 101.49 459.224 101.49C462.262 101.49 464.949 102.161 467.284 103.504C469.619 104.827 471.448 106.656 472.771 108.991C474.114 111.327 474.786 114.013 474.786 117.051L474.786 132.427C474.786 135.465 474.114 138.152 472.771 140.487C471.448 142.823 469.619 144.662 467.284 146.006C464.948 147.328 462.262 147.99 459.224 147.99ZM459.224 141.79C460.877 141.79 462.375 141.397 463.719 140.612C465.083 139.806 466.168 138.731 466.974 137.388C467.78 136.023 468.183 134.504 468.183 132.83L468.183 116.586C468.183 114.933 467.78 113.435 466.974 112.092C466.168 110.728 465.083 109.653 463.719 108.868C462.376 108.062 460.877 107.659 459.224 107.659C457.571 107.659 456.062 108.062 454.698 108.868C453.355 109.653 452.28 110.728 451.474 112.092C450.668 113.435 450.265 114.933 450.265 116.587L450.265 132.831C450.265 134.505 450.668 136.024 451.474 137.388C452.28 138.731 453.354 139.806 454.698 140.612C456.062 141.397 457.57 141.79 459.224 141.79ZM499.003 147.989C495.965 147.989 493.278 147.328 490.943 146.005C488.608 144.662 486.768 142.823 485.425 140.487C484.102 138.152 483.441 135.465 483.441 132.427L483.441 117.051C483.441 114.013 484.103 111.327 485.425 108.991C486.769 106.656 488.608 104.827 490.943 103.504C493.279 102.161 495.965 101.489 499.003 101.489C502.041 101.489 504.728 102.161 507.063 103.504C509.399 104.827 511.228 106.656 512.55 108.991C513.894 111.326 514.565 114.013 514.565 117.051L514.565 132.427C514.565 135.465 513.893 138.152 512.55 140.487C511.227 142.822 509.398 144.662 507.063 146.005C504.728 147.328 502.041 147.989 499.003 147.989ZM499.003 141.789C500.656 141.789 502.155 141.397 503.498 140.611C504.862 139.805 505.947 138.731 506.753 137.387C507.559 136.023 507.962 134.504 507.962 132.83L507.962 116.586C507.962 114.933 507.559 113.435 506.753 112.091C505.947 110.727 504.862 109.653 503.498 108.867C502.155 108.061 500.657 107.658 499.003 107.658C497.35 107.658 495.841 108.061 494.477 108.867C493.134 109.653 492.059 110.727 491.253 112.091C490.447 113.435 490.044 114.933 490.044 116.586L490.044 132.83C490.044 134.504 490.447 136.023 491.253 137.387C492.059 138.731 493.134 139.805 494.477 140.611C495.841 141.397 497.35 141.789 499.003 141.789ZM534.07 138.782L534.07 127.312L522.6 127.312L522.601 122.104L534.071 122.104L534.071 110.696L539.279 110.696L539.279 122.104L550.718 122.104L550.717 127.312L539.278 127.312L539.278 138.782L534.07 138.782Z" fill="#133F7D"/>
<path d="M390.216 189.06L390.216 171.78L392.724 171.78L392.724 189.06L390.216 189.06ZM405.423 189.06L405.423 182.688C405.423 182.184 405.379 181.668 405.291 181.14C405.211 180.604 405.051 180.108 404.811 179.652C404.579 179.196 404.247 178.828 403.815 178.548C403.391 178.268 402.835 178.128 402.147 178.128C401.699 178.128 401.275 178.204 400.875 178.356C400.475 178.5 400.123 178.736 399.819 179.064C399.523 179.392 399.287 179.824 399.111 180.36C398.943 180.896 398.859 181.548 398.859 182.316L397.299 181.728C397.299 180.552 397.519 179.516 397.959 178.62C398.399 177.716 399.031 177.012 399.855 176.508C400.679 176.004 401.675 175.752 402.843 175.752C403.739 175.752 404.491 175.896 405.099 176.184C405.707 176.472 406.199 176.852 406.575 177.324C406.959 177.788 407.251 178.296 407.451 178.848C407.651 179.4 407.787 179.94 407.859 180.468C407.931 180.996 407.967 181.46 407.967 181.86L407.967 189.06L405.423 189.06ZM396.315 189.06L396.315 176.1L398.559 176.1L398.559 179.844L398.859 179.844L398.859 189.06L396.315 189.06ZM418.509 189.06C417.693 189.22 416.893 189.288 416.109 189.264C415.325 189.24 414.625 189.088 414.009 188.808C413.393 188.528 412.929 188.088 412.617 187.488C412.337 186.952 412.185 186.408 412.161 185.856C412.145 185.296 412.137 184.664 412.137 183.96L412.137 172.5L414.657 172.5L414.657 183.84C414.657 184.36 414.661 184.812 414.669 185.196C414.685 185.58 414.769 185.904 414.921 186.168C415.209 186.664 415.665 186.948 416.289 187.02C416.921 187.084 417.661 187.056 418.509 186.936L418.509 189.06ZM409.653 178.116L409.653 176.1L418.509 176.1L418.509 178.116L409.653 178.116ZM426.404 189.42C425.116 189.42 423.984 189.14 423.008 188.58C422.04 188.012 421.284 187.224 420.74 186.216C420.204 185.2 419.936 184.024 419.936 182.688C419.936 181.272 420.2 180.044 420.728 179.004C421.264 177.964 422.008 177.16 422.96 176.592C423.912 176.024 425.02 175.74 426.284 175.74C427.604 175.74 428.728 176.048 429.656 176.664C430.584 177.272 431.276 178.14 431.732 179.268C432.196 180.396 432.38 181.736 432.284 183.288L429.776 183.288L429.776 182.376C429.76 180.872 429.472 179.76 428.912 179.04C428.36 178.32 427.516 177.96 426.38 177.96C425.124 177.96 424.18 178.356 423.548 179.148C422.916 179.94 422.6 181.084 422.6 182.58C422.6 184.004 422.916 185.108 423.548 185.892C424.18 186.668 425.092 187.056 426.284 187.056C427.068 187.056 427.744 186.88 428.312 186.528C428.888 186.168 429.336 185.656 429.656 184.992L432.116 185.772C431.612 186.932 430.848 187.832 429.824 188.472C428.8 189.104 427.66 189.42 426.404 189.42ZM421.784 183.288L421.784 181.332L431.036 181.332L431.036 183.288L421.784 183.288ZM434.976 189.06L434.976 176.1L437.208 176.1L437.208 179.244L436.896 178.836C437.056 178.42 437.264 178.04 437.52 177.696C437.776 177.344 438.072 177.056 438.408 176.832C438.736 176.592 439.1 176.408 439.5 176.28C439.908 176.144 440.324 176.064 440.748 176.04C441.172 176.008 441.58 176.028 441.972 176.1L441.972 178.452C441.548 178.34 441.076 178.308 440.556 178.356C440.044 178.404 439.572 178.568 439.14 178.848C438.732 179.112 438.408 179.432 438.168 179.808C437.936 180.184 437.768 180.604 437.664 181.068C437.56 181.524 437.508 182.008 437.508 182.52L437.508 189.06L434.976 189.06ZM447.761 189.06L443.057 176.1L445.589 176.1L449.033 185.916L452.477 176.1L455.009 176.1L450.305 189.06L447.761 189.06ZM457.411 173.975L457.411 171.539L459.919 171.539L459.919 173.975L457.411 173.975ZM457.411 189.059L457.411 176.099L459.919 176.099L459.919 189.059L457.411 189.059ZM469.271 189.419C467.983 189.419 466.851 189.139 465.875 188.579C464.907 188.011 464.151 187.223 463.607 186.215C463.071 185.199 462.803 184.023 462.803 182.687C462.803 181.271 463.067 180.043 463.595 179.003C464.131 177.963 464.875 177.159 465.827 176.591C466.779 176.023 467.887 175.739 469.151 175.739C470.471 175.739 471.595 176.047 472.523 176.663C473.451 177.271 474.143 178.139 474.599 179.267C475.063 180.395 475.247 181.735 475.151 183.287L472.643 183.287L472.643 182.375C472.627 180.871 472.339 179.759 471.779 179.039C471.227 178.319 470.383 177.959 469.247 177.959C467.991 177.959 467.047 178.355 466.415 179.147C465.783 179.939 465.467 181.083 465.467 182.579C465.467 184.003 465.783 185.107 466.415 185.891C467.047 186.667 467.959 187.055 469.151 187.055C469.935 187.055 470.611 186.879 471.179 186.527C471.755 186.167 472.203 185.655 472.523 184.991L474.983 185.771C474.479 186.931 473.715 187.831 472.691 188.471C471.667 189.103 470.527 189.419 469.271 189.419ZM464.651 183.287L464.651 181.331L473.903 181.331L473.903 183.287L464.651 183.287ZM480.134 189.059L476.174 176.087L478.658 176.099L481.37 184.991L484.106 176.099L486.266 176.099L489.002 184.991L491.714 176.099L494.186 176.099L490.226 189.059L488.21 189.059L485.186 179.675L482.15 189.059L480.134 189.059ZM501.614 189.419C500.326 189.419 499.194 189.139 498.218 188.579C497.25 188.011 496.494 187.223 495.95 186.215C495.414 185.199 495.146 184.023 495.147 182.687C495.147 181.271 495.411 180.043 495.939 179.003C496.475 177.963 497.219 177.159 498.171 176.591C499.123 176.023 500.231 175.739 501.495 175.739C502.815 175.739 503.939 176.047 504.867 176.663C505.795 177.271 506.487 178.139 506.943 179.267C507.407 180.395 507.591 181.735 507.494 183.287L504.986 183.287L504.987 182.375C504.971 180.871 504.683 179.759 504.123 179.039C503.571 178.319 502.727 177.959 501.591 177.959C500.335 177.959 499.391 178.355 498.759 179.147C498.127 179.939 497.811 181.083 497.811 182.579C497.81 184.003 498.126 185.107 498.758 185.891C499.39 186.667 500.302 187.055 501.494 187.055C502.278 187.055 502.954 186.879 503.522 186.527C504.098 186.167 504.546 185.655 504.866 184.991L507.326 185.771C506.822 186.931 506.058 187.831 505.034 188.471C504.01 189.103 502.87 189.419 501.614 189.419ZM496.994 183.287L496.995 181.331L506.247 181.331L506.246 183.287L496.994 183.287ZM510.187 189.059L510.187 176.099L512.419 176.099L512.419 179.243L512.107 178.835C512.267 178.419 512.475 178.039 512.731 177.695C512.987 177.343 513.283 177.055 513.619 176.831C513.947 176.591 514.311 176.407 514.711 176.279C515.119 176.143 515.535 176.063 515.959 176.039C516.383 176.007 516.791 176.027 517.183 176.099L517.183 178.451C516.759 178.339 516.287 178.307 515.767 178.355C515.255 178.403 514.783 178.567 514.351 178.847C513.943 179.111 513.619 179.431 513.379 179.807C513.147 180.183 512.979 180.603 512.875 181.067C512.771 181.523 512.719 182.007 512.719 182.519L512.719 189.059L510.187 189.059ZM523.955 189.407C522.379 189.407 521.095 189.059 520.103 188.363C519.111 187.667 518.503 186.687 518.279 185.423L520.847 185.027C521.007 185.699 521.375 186.231 521.951 186.623C522.535 187.007 523.259 187.199 524.123 187.199C524.907 187.199 525.519 187.039 525.959 186.719C526.407 186.399 526.631 185.959 526.631 185.399C526.631 185.071 526.551 184.807 526.391 184.607C526.239 184.399 525.915 184.203 525.419 184.019C524.923 183.835 524.167 183.607 523.151 183.335C522.039 183.047 521.155 182.739 520.499 182.411C519.851 182.075 519.387 181.687 519.107 181.247C518.835 180.799 518.699 180.259 518.699 179.627C518.699 178.843 518.907 178.159 519.323 177.575C519.739 176.991 520.323 176.539 521.075 176.219C521.835 175.899 522.723 175.739 523.739 175.739C524.731 175.739 525.615 175.895 526.391 176.207C527.167 176.519 527.795 176.963 528.275 177.539C528.755 178.107 529.043 178.775 529.139 179.543L526.571 180.011C526.483 179.387 526.191 178.895 525.695 178.535C525.199 178.175 524.555 177.979 523.763 177.947C523.003 177.915 522.387 178.043 521.915 178.331C521.443 178.611 521.207 178.999 521.207 179.495C521.207 179.783 521.295 180.027 521.471 180.227C521.655 180.427 522.007 180.619 522.527 180.803C523.047 180.987 523.815 181.207 524.831 181.463C525.919 181.743 526.783 182.055 527.423 182.399C528.063 182.735 528.519 183.139 528.791 183.611C529.071 184.075 529.211 184.639 529.211 185.303C529.211 186.583 528.743 187.587 527.807 188.315C526.879 189.043 525.595 189.407 523.955 189.407Z" fill="black"/>
<path d="M706.191 147.99C703.897 147.99 701.758 147.525 699.774 146.595C697.81 145.644 696.126 144.342 694.721 142.689C693.315 141.015 692.313 139.093 691.714 136.923L697.945 135.249C698.296 136.571 698.895 137.718 699.743 138.69C700.611 139.661 701.623 140.415 702.781 140.953C703.938 141.469 705.137 141.728 706.377 141.728C708.009 141.728 709.487 141.335 710.81 140.55C712.153 139.764 713.207 138.71 713.972 137.388C714.757 136.065 715.15 134.608 715.15 133.017C715.15 131.384 714.747 129.906 713.941 128.584C713.156 127.261 712.091 126.217 710.748 125.453C709.425 124.667 707.968 124.275 706.377 124.275C704.558 124.275 703.019 124.636 701.758 125.36C700.497 126.083 699.516 126.92 698.813 127.871L693.171 125.887L694.535 102.42L718.622 102.42L718.622 108.527L697.852 108.527L700.487 106.078L699.402 123.655L698.131 122.012C699.309 120.834 700.714 119.935 702.347 119.315C703.98 118.695 705.602 118.385 707.214 118.385C709.983 118.385 712.453 119.025 714.623 120.307C716.814 121.588 718.539 123.334 719.8 125.546C721.061 127.736 721.691 130.227 721.691 133.017C721.691 135.786 720.978 138.307 719.552 140.581C718.126 142.833 716.235 144.631 713.879 145.975C711.523 147.318 708.96 147.99 706.191 147.99ZM729.1 147.059L729.101 102.419L734.96 102.419L751.141 135.992L767.231 102.419L773.152 102.419L773.151 147.028L767.013 147.028L767.013 116.493L752.598 147.059L749.653 147.059L735.207 116.493L735.207 147.059L729.1 147.059ZM805.335 147.059L805.335 130.598C805.335 129.296 805.221 127.963 804.994 126.599C804.787 125.214 804.374 123.933 803.754 122.755C803.154 121.577 802.297 120.626 801.181 119.903C800.085 119.18 798.649 118.818 796.872 118.818C795.714 118.818 794.619 119.014 793.586 119.407C792.552 119.779 791.643 120.389 790.858 121.236C790.093 122.083 789.483 123.199 789.029 124.584C788.595 125.969 788.378 127.653 788.378 129.637L784.348 128.118C784.348 125.08 784.916 122.404 786.053 120.089C787.189 117.754 788.822 115.935 790.951 114.633C793.079 113.331 795.652 112.68 798.67 112.68C800.984 112.68 802.927 113.052 804.498 113.796C806.068 114.54 807.339 115.522 808.311 116.741C809.303 117.94 810.057 119.252 810.574 120.678C811.09 122.104 811.442 123.499 811.628 124.863C811.814 126.227 811.907 127.426 811.907 128.459L811.907 147.059L805.335 147.059ZM781.806 147.059L781.806 113.579L787.603 113.579L787.603 123.251L788.378 123.251L788.378 147.059L781.806 147.059ZM830.831 138.782L830.831 127.312L819.361 127.312L819.361 122.104L830.831 122.104L830.831 110.696L836.039 110.696L836.039 122.104L847.478 122.104L847.478 127.312L836.039 127.312L836.039 138.782L830.831 138.782Z" fill="#11B2B8"/>
<path d="M689.033 189.06L689.033 171.78L691.541 171.78L691.541 189.06L689.033 189.06ZM704.241 189.06L704.241 182.688C704.241 182.184 704.197 181.668 704.109 181.14C704.029 180.604 703.869 180.108 703.629 179.652C703.397 179.196 703.065 178.828 702.633 178.548C702.209 178.268 701.653 178.128 700.965 178.128C700.517 178.128 700.093 178.204 699.693 178.356C699.293 178.5 698.941 178.736 698.637 179.064C698.341 179.392 698.105 179.824 697.929 180.36C697.761 180.896 697.677 181.548 697.677 182.316L696.117 181.728C696.117 180.552 696.337 179.516 696.777 178.62C697.217 177.716 697.849 177.012 698.673 176.508C699.497 176.004 700.493 175.752 701.661 175.752C702.557 175.752 703.309 175.896 703.917 176.184C704.525 176.472 705.017 176.852 705.393 177.324C705.777 177.788 706.069 178.296 706.269 178.848C706.469 179.4 706.605 179.94 706.677 180.468C706.749 180.996 706.785 181.46 706.785 181.86L706.785 189.06L704.241 189.06ZM695.133 189.06L695.133 176.1L697.377 176.1L697.377 179.844L697.677 179.844L697.677 189.06L695.133 189.06ZM717.326 189.06C716.51 189.22 715.71 189.288 714.926 189.264C714.142 189.24 713.442 189.088 712.826 188.808C712.21 188.528 711.746 188.088 711.434 187.488C711.154 186.952 711.002 186.408 710.978 185.856C710.962 185.296 710.954 184.664 710.954 183.96L710.955 172.5L713.475 172.5L713.474 183.84C713.474 184.36 713.478 184.812 713.486 185.196C713.502 185.58 713.586 185.904 713.738 186.168C714.026 186.664 714.482 186.948 715.106 187.02C715.738 187.084 716.478 187.056 717.326 186.936L717.326 189.06ZM708.47 178.116L708.47 176.1L717.326 176.1L717.326 178.116L708.47 178.116ZM725.221 189.42C723.933 189.42 722.801 189.14 721.825 188.58C720.857 188.012 720.101 187.224 719.557 186.216C719.021 185.2 718.753 184.024 718.753 182.688C718.753 181.272 719.017 180.044 719.545 179.004C720.081 177.964 720.825 177.16 721.777 176.592C722.729 176.024 723.837 175.74 725.101 175.74C726.421 175.739 727.545 176.047 728.473 176.663C729.401 177.271 730.093 178.139 730.549 179.267C731.013 180.395 731.197 181.735 731.101 183.287L728.593 183.287L728.593 182.375C728.577 180.871 728.289 179.759 727.729 179.039C727.177 178.319 726.333 177.959 725.197 177.96C723.941 177.96 722.997 178.356 722.365 179.148C721.733 179.94 721.417 181.084 721.417 182.58C721.417 184.004 721.733 185.108 722.365 185.892C722.997 186.668 723.909 187.056 725.101 187.056C725.885 187.056 726.561 186.879 727.129 186.527C727.705 186.167 728.153 185.655 728.473 184.991L730.933 185.771C730.429 186.931 729.665 187.831 728.641 188.471C727.617 189.103 726.477 189.419 725.221 189.42ZM720.601 183.288L720.601 181.332L729.853 181.331L729.853 183.287L720.601 183.288ZM733.793 189.059L733.793 176.099L736.025 176.099L736.025 179.243L735.713 178.835C735.873 178.419 736.081 178.039 736.337 177.695C736.593 177.343 736.889 177.055 737.225 176.831C737.553 176.591 737.917 176.407 738.317 176.279C738.725 176.143 739.141 176.063 739.565 176.039C739.989 176.007 740.397 176.027 740.789 176.099L740.789 178.451C740.365 178.339 739.893 178.307 739.373 178.355C738.861 178.403 738.389 178.567 737.957 178.847C737.549 179.111 737.225 179.431 736.985 179.807C736.753 180.183 736.585 180.603 736.481 181.067C736.377 181.523 736.325 182.007 736.325 182.519L736.325 189.059L733.793 189.059ZM746.578 189.059L741.875 176.099L744.407 176.099L747.85 185.915L751.295 176.099L753.827 176.099L749.122 189.059L746.578 189.059ZM756.229 173.975L756.229 171.539L758.737 171.539L758.737 173.975L756.229 173.975ZM756.228 189.059L756.229 176.099L758.737 176.099L758.736 189.059L756.228 189.059ZM768.088 189.419C766.8 189.419 765.668 189.139 764.692 188.579C763.724 188.011 762.968 187.223 762.424 186.215C761.888 185.199 761.62 184.023 761.62 182.687C761.62 181.271 761.884 180.043 762.412 179.003C762.948 177.963 763.692 177.159 764.644 176.591C765.596 176.023 766.704 175.739 767.968 175.739C769.288 175.739 770.412 176.047 771.34 176.663C772.268 177.271 772.96 178.139 773.416 179.267C773.88 180.395 774.064 181.735 773.968 183.287L771.46 183.287L771.46 182.375C771.444 180.871 771.156 179.759 770.596 179.039C770.044 178.319 769.2 177.959 768.064 177.959C766.808 177.959 765.864 178.355 765.232 179.147C764.6 179.939 764.284 181.083 764.284 182.579C764.284 184.003 764.6 185.107 765.232 185.891C765.864 186.667 766.776 187.055 767.968 187.055C768.752 187.055 769.428 186.879 769.996 186.527C770.572 186.167 771.02 185.655 771.34 184.991L773.8 185.771C773.296 186.931 772.532 187.831 771.508 188.471C770.484 189.103 769.344 189.419 768.088 189.419ZM763.468 183.287L763.468 181.331L772.72 181.331L772.72 183.287L763.468 183.287ZM778.952 189.059L774.992 176.087L777.476 176.099L780.188 184.991L782.924 176.099L785.084 176.099L787.82 184.991L790.532 176.099L793.004 176.099L789.044 189.059L787.028 189.059L784.004 179.675L780.968 189.059L778.952 189.059ZM799.957 189.059L799.957 171.779L802.225 171.779L808.489 184.775L814.717 171.779L817.009 171.779L817.009 189.047L814.633 189.047L814.633 177.227L809.053 189.059L807.913 189.059L802.321 177.227L802.321 189.059L799.957 189.059ZM820.611 173.975L820.611 171.539L823.119 171.539L823.119 173.975L820.611 173.975ZM820.611 189.059L820.611 176.099L823.119 176.099L823.119 189.059L820.611 189.059ZM835.819 189.059L835.819 182.687C835.819 182.183 835.775 181.667 835.687 181.139C835.607 180.603 835.447 180.107 835.207 179.651C834.975 179.195 834.643 178.827 834.211 178.547C833.787 178.267 833.231 178.127 832.543 178.127C832.095 178.127 831.671 178.203 831.271 178.355C830.871 178.499 830.519 178.735 830.215 179.063C829.919 179.391 829.683 179.823 829.507 180.359C829.339 180.895 829.255 181.547 829.255 182.315L827.695 181.727C827.695 180.551 827.915 179.515 828.355 178.619C828.795 177.715 829.427 177.011 830.251 176.507C831.075 176.003 832.071 175.751 833.239 175.751C834.135 175.751 834.887 175.895 835.495 176.183C836.103 176.471 836.595 176.851 836.971 177.323C837.355 177.787 837.647 178.295 837.847 178.847C838.047 179.399 838.183 179.939 838.255 180.467C838.327 180.995 838.363 181.459 838.363 181.859L838.363 189.059L835.819 189.059ZM826.711 189.059L826.711 176.099L828.955 176.099L828.955 179.843L829.255 179.843L829.255 189.059L826.711 189.059ZM846.444 189.407C844.868 189.407 843.584 189.059 842.592 188.363C841.601 187.667 840.993 186.687 840.769 185.423L843.337 185.027C843.497 185.699 843.865 186.231 844.441 186.623C845.025 187.007 845.749 187.199 846.613 187.199C847.397 187.199 848.009 187.039 848.449 186.719C848.897 186.399 849.121 185.959 849.121 185.399C849.121 185.071 849.041 184.807 848.881 184.607C848.729 184.399 848.405 184.203 847.909 184.019C847.413 183.835 846.657 183.607 845.641 183.335C844.529 183.047 843.645 182.739 842.989 182.411C842.341 182.075 841.877 181.687 841.597 181.247C841.325 180.799 841.189 180.259 841.189 179.627C841.189 178.843 841.397 178.159 841.813 177.575C842.229 176.991 842.813 176.539 843.565 176.219C844.325 175.899 845.213 175.739 846.229 175.739C847.221 175.739 848.105 175.895 848.881 176.207C849.657 176.519 850.285 176.963 850.765 177.539C851.245 178.107 851.533 178.775 851.629 179.543L849.061 180.011C848.973 179.387 848.681 178.895 848.185 178.535C847.689 178.175 847.045 177.979 846.253 177.947C845.493 177.915 844.877 178.043 844.405 178.331C843.933 178.611 843.697 178.999 843.697 179.495C843.697 179.783 843.785 180.027 843.961 180.227C844.145 180.427 844.497 180.619 845.017 180.803C845.537 180.987 846.305 181.207 847.321 181.463C848.409 181.743 849.273 182.055 849.913 182.399C850.553 182.735 851.009 183.139 851.281 183.611C851.561 184.075 851.701 184.639 851.701 185.303C851.701 186.583 851.233 187.587 850.296 188.315C849.368 189.043 848.084 189.407 846.444 189.407Z" fill="black"/>
<defs>
<linearGradient id="paint0_linear_1535_52952" x1="917.542" y1="-7.70572" x2="438.084" y2="672.065" gradientUnits="userSpaceOnUse">
<stop offset="0.0920837" stop-color="#0068E1"/>
<stop offset="0.448532" stop-color="#0031AF"/>
<stop offset="0.911744" stop-color="#000469"/>
</linearGradient>
<linearGradient id="paint1_linear_1535_52952" x1="917.542" y1="-7.70572" x2="438.084" y2="672.065" gradientUnits="userSpaceOnUse">
<stop offset="0.0920837" stop-color="#0068E1"/>
<stop offset="0.448532" stop-color="#0031AF"/>
<stop offset="0.911744" stop-color="#000469"/>
</linearGradient>
<linearGradient id="paint2_linear_1535_52952" x1="917.542" y1="-7.70572" x2="438.084" y2="672.065" gradientUnits="userSpaceOnUse">
<stop offset="0.0920837" stop-color="#0068E1"/>
<stop offset="0.448532" stop-color="#0031AF"/>
<stop offset="0.911744" stop-color="#000469"/>
</linearGradient>
</defs>
</svg>
