<svg width="695" height="737" viewBox="0 0 695 737" fill="none" xmlns="http://www.w3.org/2000/svg">
<path d="M881.708 204.048C876.219 96.9042 811.68 -73.6536 597.427 101.259C329.612 319.901 607.679 436.188 319.98 457.306C32.2823 478.423 -103.76 685.998 99.131 704.188C302.023 722.378 472.171 439.839 491.224 572.731" stroke="white" stroke-opacity="0.34" stroke-width="1.5"/>
<path d="M892.331 207.247C886.545 105.071 823.956 -57.1811 618.351 110.399C361.734 319.624 624.576 432.176 348.296 455.387C71.4455 479.374 -59.8352 679.425 131.742 698.54C323.318 717.655 483.772 449.79 499.312 577.947" stroke="white" stroke-opacity="0.34" stroke-width="1.5"/>
<path d="M902.94 210.452C896.856 113.244 836.216 -40.6982 639.26 119.545C393.842 319.352 641.457 428.17 376.596 453.475C110.594 480.33 -15.9238 672.858 164.337 692.897C344.598 712.937 495.358 459.747 507.385 583.169" stroke="white" stroke-opacity="0.34" stroke-width="1.5"/>
<path d="M913.549 213.663C907.168 121.423 848.477 -24.212 660.169 128.696C425.951 319.087 658.339 424.169 404.897 451.569C149.743 481.293 27.9885 666.297 196.934 687.261C365.879 708.225 506.944 469.71 515.459 588.397" stroke="white" stroke-opacity="0.34" stroke-width="1.5"/>
<path d="M924.136 216.885C917.457 129.613 860.716 -7.71407 681.057 137.859C458.036 318.832 675.199 420.18 433.175 449.674C188.87 482.266 71.8777 659.748 229.508 681.636C387.138 703.525 518.508 479.684 523.51 593.637" stroke="white" stroke-opacity="0.34" stroke-width="1.5"/>
<path d="M934.716 220.116C927.74 137.811 872.948 8.7918 701.937 147.031C490.115 318.587 692.052 416.2 461.446 447.787C227.99 483.248 115.76 653.206 262.075 676.02C408.39 698.832 530.065 489.667 531.554 598.884" stroke="white" stroke-opacity="0.34" stroke-width="1.5"/>
<path d="M945.283 223.36C938.008 146.023 885.166 25.3111 722.803 156.215C522.181 318.354 708.891 412.232 489.705 445.914C267.095 484.244 159.629 646.678 294.628 670.416C429.628 694.154 541.609 499.663 539.585 604.145" stroke="white" stroke-opacity="0.34" stroke-width="1.5"/>
<path d="M955.827 226.619C948.255 154.25 897.363 41.846 743.648 165.415C554.224 318.136 725.708 408.281 517.94 444.056C306.18 485.254 203.476 640.165 327.16 664.828C450.843 689.49 553.13 509.674 547.594 609.422" stroke="white" stroke-opacity="0.34" stroke-width="1.5"/>
<path d="M966.35 229.895C958.48 162.494 909.537 58.3971 764.47 174.631C586.246 317.935 742.504 404.346 546.154 442.214C345.242 486.282 247.301 633.669 359.67 659.256C472.038 684.843 564.63 519.702 555.581 614.715" stroke="white" stroke-opacity="0.34" stroke-width="1.5"/>
<path d="M976.853 233.191C968.685 170.757 921.692 74.9676 785.273 183.867C618.247 317.754 759.279 400.43 574.348 440.392C384.284 487.329 291.106 627.193 392.16 653.704C493.212 680.216 576.109 529.75 563.547 620.027" stroke="white" stroke-opacity="0.34" stroke-width="1.5"/>
<path d="M987.312 236.519C978.846 179.053 933.803 91.572 806.033 193.136C650.205 317.606 776.011 396.546 602.499 438.603C423.283 488.408 334.868 620.749 424.606 648.185C514.343 675.622 587.545 539.83 571.471 625.373" stroke="white" stroke-opacity="0.34" stroke-width="1.5"/>
<path d="M997.736 239.88C988.974 187.38 945.879 108.207 826.758 202.437C682.129 317.49 792.709 392.696 630.615 436.846C462.248 489.52 378.595 614.337 457.018 642.698C535.439 671.059 598.947 549.942 579.36 630.75" stroke="white" stroke-opacity="0.34" stroke-width="1.5"/>
<path d="M1008.1 243.285C999.036 195.754 957.892 124.889 847.418 211.784C713.988 317.42 809.342 388.89 658.667 435.134C501.148 490.677 422.258 607.971 489.365 637.257C556.472 666.542 610.284 560.1 587.185 636.173" stroke="white" stroke-opacity="0.34" stroke-width="1.5"/>
<path d="M1018.39 246.746C1009.04 204.183 969.84 141.625 868.015 221.186C745.784 317.404 825.911 385.14 686.655 433.479C539.985 491.89 465.857 601.66 521.649 631.871C577.44 662.081 621.558 570.314 594.946 641.651" stroke="white" stroke-opacity="0.34" stroke-width="1.5"/>
<path d="M1028.59 250.291C1018.94 212.695 981.692 158.445 888.515 230.67C777.483 317.472 842.384 381.473 714.546 431.905C578.724 493.185 509.36 595.432 553.836 626.567C598.311 657.702 632.735 580.61 602.61 647.212" stroke="white" stroke-opacity="0.34" stroke-width="1.5"/>
</svg>
