<svg width="545" height="412" viewBox="0 0 545 412" fill="none" xmlns="http://www.w3.org/2000/svg">
<path d="M303.605 129.886C290.763 129.583 280.604 119.092 280.913 106.454C281.221 93.8167 291.883 83.8196 304.725 84.1222C317.567 84.4247 327.725 94.9163 327.417 107.554C327.109 120.191 316.447 130.188 303.605 129.886Z" fill="white"/>
<path d="M303.608 129.885C303.608 129.885 303.738 129.874 303.986 129.862C304.246 129.85 304.613 129.839 305.091 129.816C305.334 129.81 305.605 129.798 305.907 129.787C306.208 129.763 306.527 129.705 306.882 129.664C307.236 129.618 307.615 129.566 308.017 129.513C308.424 129.473 308.838 129.339 309.293 129.246C311.102 128.885 313.241 128.106 315.522 126.856C317.792 125.594 320.179 123.75 322.23 121.215C322.484 120.895 322.738 120.575 322.999 120.249C323.235 119.906 323.46 119.551 323.69 119.197C323.909 118.836 324.181 118.493 324.37 118.103C324.571 117.719 324.772 117.33 324.973 116.934C325.073 116.737 325.174 116.539 325.274 116.341C325.357 116.132 325.44 115.922 325.522 115.713C325.688 115.294 325.859 114.87 326.031 114.445C326.19 114.015 326.291 113.561 326.427 113.113C326.545 112.66 326.716 112.218 326.776 111.741C326.935 110.805 327.154 109.857 327.184 108.874C327.213 108.385 327.272 107.891 327.278 107.391C327.266 106.891 327.249 106.391 327.237 105.885C327.225 105.635 327.231 105.379 327.207 105.123L327.107 104.361C327.036 103.855 326.989 103.337 326.894 102.826C326.64 101.814 326.457 100.773 326.067 99.7723C325.76 98.743 325.27 97.7718 324.815 96.7773C324.561 96.2888 324.265 95.8235 323.987 95.3408C323.84 95.1023 323.722 94.8523 323.556 94.6255L323.066 93.945C322.445 93.0029 321.659 92.177 320.903 91.3105C320.064 90.5254 319.242 89.6995 318.279 89.0191L317.582 88.4782L316.831 88.0013L316.075 87.5244C315.827 87.3616 315.573 87.2104 315.295 87.0824C314.763 86.8149 314.225 86.5416 313.687 86.274C313.126 86.053 312.559 85.8378 311.991 85.6168C309.693 84.82 307.24 84.3606 304.734 84.2733C302.229 84.2442 299.752 84.5872 297.418 85.2735C296.839 85.4654 296.266 85.6573 295.692 85.8492C295.143 86.0934 294.593 86.3377 294.043 86.5819L293.636 86.768L293.246 86.989L292.471 87.4252L291.697 87.8671L290.976 88.3731C289.983 89.007 289.12 89.7921 288.246 90.5364C287.448 91.3623 286.62 92.1532 285.952 93.0604L285.426 93.7176C285.249 93.9327 285.113 94.1828 284.959 94.4096C284.664 94.8807 284.339 95.3343 284.067 95.8053C283.565 96.7824 283.027 97.7303 282.672 98.7422C282.229 99.7192 281.998 100.754 281.691 101.755C281.573 102.261 281.496 102.772 281.401 103.278L281.265 104.034C281.224 104.284 281.218 104.54 281.194 104.79C281.153 105.296 281.117 105.797 281.076 106.297C281.058 106.797 281.093 107.291 281.099 107.78C281.082 108.763 281.253 109.722 281.365 110.664C281.4 111.141 281.554 111.589 281.649 112.048C281.761 112.502 281.844 112.961 281.979 113.398C282.127 113.834 282.275 114.264 282.423 114.689L282.641 115.328L282.919 115.939C283.102 116.34 283.285 116.742 283.468 117.137C283.64 117.538 283.888 117.893 284.095 118.265C284.313 118.632 284.514 118.998 284.733 119.353C284.975 119.69 285.217 120.028 285.454 120.353C287.374 122.982 289.673 124.936 291.877 126.303C294.093 127.658 296.197 128.536 297.982 128.984C298.425 129.1 298.839 129.257 299.241 129.315C299.642 129.385 300.021 129.455 300.369 129.519C300.718 129.577 301.037 129.647 301.339 129.688C301.634 129.711 301.906 129.734 302.148 129.757C302.627 129.798 302.993 129.833 303.247 129.856C303.478 129.862 303.608 129.885 303.608 129.885C303.608 129.885 303.478 129.885 303.23 129.874C302.97 129.856 302.603 129.839 302.125 129.81C301.882 129.792 301.61 129.775 301.309 129.757C301.008 129.722 300.688 129.658 300.334 129.6C299.979 129.542 299.601 129.478 299.199 129.408C298.791 129.356 298.378 129.199 297.929 129.088C296.126 128.658 294.005 127.792 291.765 126.436C289.531 125.07 287.209 123.116 285.259 120.469C285.017 120.138 284.774 119.801 284.526 119.458C284.302 119.103 284.095 118.731 283.876 118.364C283.669 117.986 283.415 117.631 283.238 117.23C283.055 116.835 282.866 116.428 282.683 116.026L282.405 115.416L282.18 114.77C282.033 114.34 281.879 113.904 281.731 113.467C281.595 113.025 281.507 112.56 281.389 112.107C281.294 111.647 281.14 111.188 281.099 110.705C280.981 109.751 280.804 108.786 280.822 107.786C280.816 107.291 280.78 106.785 280.798 106.285C280.834 105.779 280.875 105.273 280.91 104.761C280.934 104.505 280.94 104.25 280.976 103.994L281.112 103.226C281.212 102.714 281.283 102.197 281.401 101.685C281.703 100.673 281.939 99.6262 282.388 98.6375C282.749 97.614 283.287 96.6544 283.801 95.6658C284.079 95.1831 284.404 94.7236 284.705 94.2526C284.865 94.02 285.001 93.7699 285.178 93.5489L285.71 92.8801C286.384 91.9612 287.223 91.1587 288.027 90.3213C288.913 89.5652 289.788 88.7743 290.793 88.1288L291.526 87.6171L292.306 87.1693L293.092 86.7215L293.488 86.5005L293.902 86.3144C294.457 86.0701 295.013 85.8201 295.574 85.57C296.153 85.3781 296.738 85.1804 297.323 84.9827C299.693 84.2848 302.199 83.9418 304.74 83.9709C307.276 84.064 309.764 84.5293 312.098 85.3377C312.671 85.5587 313.244 85.7855 313.817 86.0065C314.361 86.2799 314.905 86.5532 315.449 86.8265C315.726 86.9545 315.986 87.1057 316.234 87.2744L316.997 87.7571L317.753 88.2398L318.462 88.7865C319.431 89.4785 320.265 90.316 321.116 91.1128C321.878 91.9909 322.676 92.8284 323.302 93.7822L323.798 94.4743C323.964 94.7011 324.088 94.957 324.236 95.1954C324.513 95.6839 324.815 96.1608 325.069 96.6493C325.53 97.6613 326.02 98.6441 326.333 99.6851C326.729 100.697 326.912 101.755 327.166 102.779C327.261 103.297 327.308 103.82 327.379 104.332L327.479 105.099C327.509 105.355 327.497 105.611 327.509 105.867C327.521 106.379 327.532 106.885 327.55 107.391C327.544 107.897 327.485 108.391 327.449 108.891C327.414 109.886 327.189 110.845 327.03 111.793C326.965 112.27 326.787 112.718 326.669 113.177C326.533 113.631 326.421 114.085 326.261 114.521C326.09 114.951 325.918 115.382 325.747 115.8C325.664 116.01 325.576 116.225 325.493 116.434C325.386 116.638 325.286 116.835 325.185 117.033C324.979 117.429 324.772 117.824 324.571 118.214C324.376 118.609 324.104 118.952 323.879 119.319C323.643 119.673 323.418 120.04 323.176 120.383C322.91 120.709 322.65 121.034 322.396 121.354C320.315 123.907 317.898 125.751 315.605 127.007C313.3 128.251 311.137 129.019 309.317 129.362C308.862 129.449 308.442 129.583 308.034 129.618C307.627 129.664 307.248 129.711 306.894 129.757C306.539 129.798 306.214 129.845 305.913 129.868C305.611 129.874 305.339 129.88 305.097 129.88C304.618 129.885 304.252 129.891 303.992 129.891C303.738 129.891 303.608 129.885 303.608 129.885Z" fill="#00003D"/>
<path d="M306.178 106.818C308.181 106.045 309.641 104.067 309.706 101.7C309.795 98.5943 307.473 96.0121 304.513 95.9251C301.558 95.8439 299.088 98.2926 298.998 101.393C298.927 103.783 300.298 105.853 302.284 106.72C294.01 107.75 294.169 116.573 294.169 116.573L313.658 117.124C313.658 117.13 314.321 108.225 306.178 106.818Z" fill="#0000CB"/>
<path d="M202.778 92.3062C198.199 89.6486 196.675 83.8325 199.382 79.3249C202.083 74.8172 207.993 73.3163 212.572 75.9798C217.152 78.6374 218.676 84.4535 215.969 88.9611C213.262 93.4688 207.358 94.9697 202.778 92.3062Z" fill="white"/>
<path d="M202.78 92.3054C202.804 92.2588 203.513 92.7473 204.973 93.1718C205.699 93.3927 206.627 93.5322 207.703 93.5263C208.778 93.5146 210.007 93.3226 211.26 92.8106C212.501 92.2987 213.784 91.4901 214.818 90.2977C215.84 89.1111 216.686 87.593 216.987 85.8598C217.165 84.999 217.194 84.0917 217.094 83.1785C217.065 82.719 216.947 82.2654 216.852 81.8117C216.71 81.3639 216.58 80.9103 216.38 80.4741C215.635 78.7118 214.253 77.1532 212.492 76.1123C210.714 75.1004 208.657 74.6586 206.731 74.8739C206.246 74.9089 205.779 75.0194 205.313 75.1125C204.857 75.2522 204.402 75.3743 203.977 75.5663C203.114 75.9212 202.322 76.3865 201.643 76.9508C200.242 78.0501 199.308 79.5159 198.746 80.9642C198.185 82.4299 198.084 83.9247 198.231 85.2449C198.385 86.571 198.804 87.7284 199.312 88.6589C199.826 89.5895 200.399 90.3223 200.949 90.8398C202.036 91.8867 202.81 92.2646 202.78 92.3054C202.78 92.3112 202.733 92.2879 202.644 92.2356C202.538 92.1716 202.414 92.096 202.254 91.9972C202.077 91.8983 201.87 91.7587 201.646 91.5726C201.415 91.3923 201.138 91.1888 200.872 90.9155C200.305 90.4037 199.708 89.6709 199.164 88.7345C198.633 87.7924 198.184 86.6234 198.019 85.2682C197.853 83.9247 197.948 82.3892 198.51 80.877C199.077 79.3821 200.035 77.8699 201.471 76.7298C202.169 76.1423 202.984 75.6594 203.871 75.293C204.308 75.0893 204.775 74.9672 205.248 74.8217C205.726 74.7228 206.211 74.6064 206.713 74.5715C208.705 74.3503 210.826 74.8038 212.664 75.8447C214.483 76.9205 215.907 78.5315 216.669 80.3519C216.882 80.7997 217.012 81.2708 217.154 81.7303C217.254 82.2014 217.366 82.6667 217.401 83.1436C217.502 84.0858 217.466 85.0222 217.283 85.9063C216.963 87.6919 216.083 89.2449 215.025 90.4606C213.955 91.6762 212.631 92.4964 211.355 93.0084C210.072 93.5203 208.808 93.7007 207.714 93.695C206.621 93.6835 205.676 93.5265 204.949 93.2823C204.577 93.1834 204.263 93.0497 203.992 92.9334C203.714 92.8287 203.495 92.7124 203.318 92.6136C203.153 92.5205 203.023 92.4507 202.916 92.3926C202.822 92.3403 202.774 92.3112 202.78 92.3054Z" fill="black"/>
<path d="M208.447 84.4815C209.328 84.5978 210.261 84.1732 210.776 83.3299C211.443 82.2249 211.136 80.8292 210.078 80.2127C209.026 79.5962 207.631 79.9917 206.964 81.0967C206.449 81.9458 206.52 82.9694 207.058 83.6789C203.855 82.4053 202.105 85.6272 202.105 85.6272L209.044 89.6982C209.038 89.6982 211.106 86.61 208.447 84.4815Z" fill="#006AFF"/>
<path d="M508.134 260.645C492.265 255.137 478.43 261.756 478.43 261.756C490.315 269.467 508.134 260.645 508.134 260.645Z" fill="#0085FF"/>
<path d="M465.26 247.982C463.917 258.056 469.861 265.912 469.861 265.912C473.099 258.067 465.26 247.982 465.26 247.982Z" fill="#0085FF"/>
<path d="M471.986 269.619C482.908 275.4 494.386 272.242 494.386 272.242C486.815 265.333 471.986 269.619 471.986 269.619Z" fill="#0085FF"/>
<path d="M484.485 254.022C484.313 253.871 478.119 260.257 470.643 268.282C463.167 276.314 457.244 282.944 457.416 283.095C457.587 283.246 463.781 276.866 471.258 268.835C478.728 260.803 484.65 254.174 484.485 254.022Z" fill="#0085FF"/>
<path d="M505.298 235.921C505.298 235.921 486.528 239.842 482.035 256.127C482.041 256.127 498.104 252.997 505.298 235.921Z" fill="#0085FF"/>
<path d="M481.253 233.225C481.253 233.225 470.367 245.362 475.732 258.831C475.732 258.831 485.164 248.595 481.253 233.225Z" fill="#0085FF"/>
<path d="M202.683 221.988C198.753 239.761 207.976 253.707 207.976 253.707C214.891 239.901 202.683 221.988 202.683 221.988Z" fill="#E0E0E0"/>
<path d="M194.52 269.74C205.862 269.804 213.752 262.342 213.752 262.342C204.621 259.94 194.52 269.74 194.52 269.74Z" fill="#E0E0E0"/>
<path d="M217.574 259.553C222.485 247.044 217.416 235.168 217.416 235.168C210.798 244.229 217.574 259.553 217.574 259.553Z" fill="#E0E0E0"/>
<path d="M198.585 248.277C198.437 248.481 206.362 254.255 216.278 261.17C226.195 268.091 234.356 273.534 234.503 273.33C234.651 273.127 226.732 267.352 216.81 260.437C206.888 253.517 198.733 248.073 198.585 248.277Z" fill="#E0E0E0"/>
<path d="M175.689 228.426C175.689 228.426 182.602 248.031 201.254 250.612C201.254 250.612 195.593 233.805 175.689 228.426Z" fill="#E0E0E0"/>
<path d="M175.987 254.603C175.987 254.603 190.928 264.618 205.113 257.017C205.113 257.017 192.483 248.299 175.987 254.603Z" fill="#E0E0E0"/>
<path d="M521.478 63.2244L489.622 71.0584L498.174 78.8573L476.016 90.9543L513.794 83.5099L504.97 75.4667L521.478 63.2244Z" fill="#0085FF"/>
<path d="M382.229 75.6932L386.46 93.1524L390.903 88.5518L397.585 100.751L393.609 80.064L389.03 84.8066L382.229 75.6932Z" fill="#0085FF"/>
<path d="M415.154 17.7371L409.584 39.775L418.289 36.571L419.247 53.7147L427.199 28.0882L418.226 31.3913L415.154 17.7371Z" fill="#0085FF"/>
<path d="M524.55 219.421L509.528 209.265L509.377 215.635L496.12 211.006L513.15 223.736L513.306 217.167L524.55 219.421Z" fill="#0085FF"/>
<path d="M544.267 299.238C544.267 299.32 459.361 299.39 354.65 299.39C249.904 299.391 165.016 299.321 165.016 299.239C165.016 299.158 249.904 299.088 354.65 299.087C459.361 299.087 544.267 299.157 544.267 299.238Z" fill="#263238"/>
<path d="M440.121 297.045L228.239 297.041C218.168 297.041 210.001 289.009 210.002 279.094L210.013 149.406C210.013 141.683 216.373 135.426 224.221 135.426L444.755 135.43C452.273 135.43 458.365 141.426 458.365 148.823L458.354 279.098C458.359 289.008 450.191 297.045 440.121 297.045Z" fill="#8BB8CF"/>
<path d="M460.588 299.234L207.727 299.249C203.247 299.249 199.619 295.676 199.619 291.265L199.62 285.102L468.698 285.086L468.698 291.249C468.697 295.661 465.068 299.234 460.588 299.234Z" fill="#8BB8CF"/>
<path d="M441.915 278.333L225.748 278.329C220.73 278.329 216.664 274.328 216.665 269.391L216.674 150.788C216.674 145.851 220.741 141.85 225.758 141.85L441.926 141.854C446.944 141.854 451.009 145.855 451.009 150.792L451 269.395C450.993 274.332 446.927 278.333 441.915 278.333Z" fill="white"/>
<path d="M309.706 285.1L313.045 290.322L360.031 290.322L363.128 285.099L309.706 285.1Z" fill="#455A64"/>
<path d="M458.411 285.048L210.047 285.049L210.047 285.828L458.411 285.827L458.411 285.048Z" fill="#455A64"/>
<path d="M257.704 235.484L236.493 235.484L236.493 278.335L257.704 278.335L257.704 235.484Z" fill="#84B7FF"/>
<path d="M291.126 213.984L269.915 213.984L269.914 278.336L291.125 278.336L291.126 213.984Z" fill="#84B7FF"/>
<path d="M325.726 213.982L304.515 213.982L304.514 278.334L325.725 278.334L325.726 213.982Z" fill="#EBEBEB"/>
<path d="M396.665 182.695L375.454 182.695L375.453 278.336L396.664 278.335L396.665 182.695Z" fill="#84B7FF"/>
<path d="M429.119 162.078L407.908 162.078L407.907 278.341L429.117 278.341L429.119 162.078Z" fill="#84B7FF"/>
<path d="M280.621 231.38L305.373 196.31L351.886 160.625L376.961 226.064C376.961 226.064 348.533 243.97 341.14 245.773C333.746 247.57 328.35 247.384 320.158 259.167L280.621 231.38Z" fill="#FFBF9D"/>
<path d="M386.662 149.906C387.36 149.871 395.876 155.92 391.077 160.84C385.982 166.074 367.796 181.352 367.796 181.352C367.796 181.352 358.577 180.503 360.563 175.281C362.572 170 386.662 149.906 386.662 149.906Z" fill="#FFBF9D"/>
<path d="M393.923 239.393C389.555 239.62 385.123 239.311 380.708 238.456C366.43 235.694 354.196 227.558 346.265 215.548C338.677 204.056 335.965 190.319 338.637 176.868C341.303 163.416 349.069 151.691 360.494 143.852L407.503 111.598L421.958 131.999L374.949 164.253C368.932 168.377 364.848 174.553 363.447 181.631C362.04 188.714 363.47 195.943 367.465 201.992C371.637 208.313 378.079 212.594 385.597 214.048C393.031 215.484 400.555 213.972 406.808 209.785L453.474 174.873L468.769 194.67L421.635 229.925L421.405 230.082C413.136 235.729 403.686 238.893 393.923 239.393Z" fill="#0000CB"/>
<path d="M444.912 203.085L449.592 209.023L468.765 194.681L464.687 189.424L444.912 203.085Z" fill="#E0E0E0"/>
<path d="M398.294 140.31L402.182 145.573L421.952 132.005L418.063 126.648L398.294 140.31Z" fill="#E0E0E0"/>
<g opacity="0.3">
<path d="M393.969 239.457C389.601 239.684 385.169 239.376 380.754 238.521C366.475 235.758 354.242 227.622 346.311 215.613C338.723 204.121 336.011 190.384 338.683 176.932C341.349 163.48 349.115 151.756 360.539 143.916L407.549 111.662L422.004 132.064L374.995 164.318C368.978 168.441 364.894 174.617 363.493 181.695C362.086 188.779 363.516 196.008 367.511 202.056C371.683 208.378 378.125 212.658 385.642 214.112C393.077 215.549 400.601 214.037 406.854 209.849L453.52 174.937L468.815 194.734L421.681 229.989L421.45 230.146C413.182 235.793 403.732 238.951 393.969 239.457Z" fill="black"/>
</g>
<g filter="url(#filter0_d_2127_76539)">
<path d="M390 234.094C385.632 234.321 381.2 234.012 376.785 233.158C362.507 230.395 350.273 222.259 342.343 210.249C334.755 198.757 332.042 185.021 334.714 171.569C337.38 158.117 345.146 146.393 356.571 138.553L403.58 106.299L418.035 126.701L371.026 158.955C365.009 163.078 360.925 169.254 359.524 176.332C358.117 183.416 359.547 190.645 363.542 196.693C367.714 203.015 374.156 207.295 381.674 208.749C389.108 210.185 396.632 208.673 402.885 204.486L449.551 169.574L464.858 189.604L417.712 224.632L417.482 224.789C409.213 230.43 399.757 233.588 390 234.094Z" fill="#0000CB"/>
</g>
<path d="M367.754 190.779L369.267 189.64C372.689 185.947 372.081 182.399 368.576 180.108C367.884 179.654 367.152 179.352 366.383 179.293C362.565 179.008 352.867 180.474 348.801 182.294C344.734 184.115 342.808 188.721 345.514 191.966C348.221 195.205 351.726 194.542 357.346 193.932C362.967 193.309 367.754 190.779 367.754 190.779Z" fill="#FFBF9D"/>
<path d="M354.899 197.687C354.899 197.687 349.248 201.689 351.553 206.184C353.864 210.68 356.6 210.325 361.565 209.534C366.529 208.743 374.165 201.427 374.165 201.427C374.165 201.427 377.256 196.867 374.757 193.663C371.376 189.33 368.592 191.121 365.691 192.133C362.789 193.151 354.899 197.687 354.899 197.687Z" fill="#FFBF9D"/>
<path d="M367.037 208.539C367.037 208.539 362.971 215.815 368.261 218.339C372.959 220.572 377.126 216.175 379.655 212.657C382.185 209.144 384.419 206.149 380.832 203.445C377.439 200.886 375.601 200.612 373.397 202.153C370.111 204.456 367.037 208.539 367.037 208.539Z" fill="#FFBF9D"/>
<path d="M294.71 212.053C294.71 212.053 305.041 184.306 308.416 177.327C311.791 170.348 332.246 154.268 332.246 154.268L353.628 144.66C353.628 144.66 361.613 153.884 351.885 160.624C342.162 167.365 333.345 171.866 333.345 171.866L331.329 185.173C331.329 185.173 337.599 216.927 312.12 236.101L294.71 212.053Z" fill="#FFBF9D"/>
<path d="M334.008 171.832C334.014 171.832 333.997 171.884 333.967 171.983C333.926 172.1 333.873 172.239 333.813 172.419C333.666 172.797 333.471 173.362 333.234 174.094C332.767 175.56 332.23 177.729 331.887 180.463C331.544 183.19 331.42 186.47 331.502 190.111C331.567 193.752 331.827 197.753 331.809 201.963C331.785 206.174 331.419 210.21 330.443 213.746C329.48 217.282 327.961 220.283 326.313 222.522C324.652 224.767 322.914 226.256 321.614 227.122C321.289 227.332 320.994 227.518 320.74 227.681C320.48 227.838 320.249 227.942 320.072 228.041C319.901 228.129 319.765 228.198 319.652 228.256C319.558 228.303 319.511 228.326 319.505 228.32C319.505 228.315 319.546 228.286 319.635 228.227C319.741 228.163 319.871 228.088 320.037 227.989C320.214 227.884 320.438 227.768 320.687 227.605C320.941 227.436 321.224 227.245 321.543 227.029C322.814 226.14 324.516 224.639 326.135 222.4C327.743 220.161 329.226 217.183 330.166 213.676C331.117 210.17 331.472 206.157 331.496 201.963C331.514 197.764 331.266 193.763 331.213 190.117C331.148 186.47 331.296 183.179 331.668 180.439C332.04 177.7 332.614 175.525 333.116 174.065C333.37 173.333 333.583 172.774 333.748 172.402C333.825 172.228 333.884 172.088 333.932 171.977C333.979 171.879 334.003 171.832 334.008 171.832Z" fill="#FF9A6C"/>
<path d="M383.359 120.246L398.293 140.31L418.063 126.649L403.678 106.125L383.359 120.246Z" fill="#E0E0E0"/>
<path d="M429.659 184.36L445.574 203.877L464.847 189.617L449.635 169.535L429.659 184.36Z" fill="#E0E0E0"/>
<path d="M364.015 179.288C364.015 179.271 364.263 179.248 364.73 179.224C364.854 179.219 364.978 179.213 365.12 179.207C365.268 179.219 365.422 179.224 365.587 179.236C365.759 179.248 365.936 179.259 366.125 179.277C366.314 179.312 366.515 179.352 366.722 179.387C367.555 179.562 368.56 179.916 369.476 180.649C370.392 181.365 371.201 182.435 371.615 183.766L371.615 183.772L371.615 183.784C371.698 184.732 371.532 185.75 371.124 186.703C370.445 188.309 369.269 189.559 368.045 190.425C366.816 191.292 365.563 191.839 364.505 192.228C363.441 192.618 362.561 192.862 361.952 193.031C361.343 193.194 361 193.27 360.995 193.252C360.989 193.229 361.32 193.118 361.916 192.921C362.513 192.717 363.382 192.444 364.422 192.031C365.462 191.618 366.686 191.059 367.874 190.199C369.05 189.344 370.179 188.122 370.835 186.587C371.225 185.674 371.379 184.709 371.308 183.807L371.314 183.83C370.936 182.592 370.167 181.533 369.299 180.841C368.43 180.132 367.472 179.759 366.669 179.568C366.468 179.521 366.273 179.48 366.09 179.44C365.906 179.422 365.729 179.399 365.564 179.381C365.404 179.364 365.25 179.347 365.108 179.329C364.973 179.329 364.843 179.323 364.724 179.323C364.269 179.317 364.015 179.306 364.015 179.288Z" fill="#FF9A6C"/>
<path d="M375.094 199.874C375.112 199.886 375.011 200.049 374.81 200.333C374.615 200.618 374.314 201.02 373.924 201.502C373.15 202.468 372.003 203.747 370.573 205.004C369.143 206.26 367.695 207.219 366.583 207.789C366.028 208.08 365.567 208.289 365.236 208.406C364.911 208.528 364.722 208.586 364.716 208.569C364.698 208.522 365.407 208.22 366.477 207.603C367.547 206.993 368.953 206.015 370.366 204.777C371.779 203.532 372.937 202.288 373.753 201.363C374.574 200.438 375.059 199.845 375.094 199.874Z" fill="#FF9A6C"/>
<path d="M227.522 278.335L279.964 225.586L327.02 263.074L314.904 278.416L227.522 278.335Z" fill="#0000CB"/>
<path d="M254.147 154.005C255.559 153.162 257.066 152.528 258.615 152.091L259.537 147.736L267.013 147.608L268.088 151.929C269.654 152.307 271.185 152.894 272.627 153.685L276.403 151.248L281.781 156.36L279.44 160.164C280.297 161.554 280.941 163.037 281.385 164.566L285.811 165.474L285.94 172.831L281.549 173.889C281.165 175.43 280.568 176.931 279.764 178.355L282.24 182.072L277.045 187.364L273.18 185.061C271.768 185.904 270.261 186.538 268.706 186.974L267.784 191.33L260.308 191.458L259.233 187.137C257.667 186.759 256.142 186.171 254.694 185.38L250.918 187.817L245.54 182.705L247.881 178.902C247.024 177.512 246.38 176.029 245.937 174.499L241.51 173.592L241.381 166.235L245.772 165.177C246.156 163.635 246.753 162.135 247.557 160.71L245.081 156.994L250.276 151.702L254.147 154.005ZM258.129 163.804C255.05 166.939 255.138 171.94 258.33 174.965C261.515 177.995 266.597 177.907 269.671 174.767C272.75 171.632 272.661 166.631 269.47 163.607C266.285 160.582 261.209 160.67 258.129 163.804Z" fill="#E0E0E0"/>
<path d="M239.997 197.213C241.025 196.603 242.119 196.137 243.253 195.823L243.921 192.654L249.364 192.561L250.15 195.707C251.291 195.986 252.402 196.411 253.454 196.987L256.202 195.213L260.12 198.935L258.418 201.703C259.038 202.715 259.511 203.797 259.83 204.908L263.051 205.565L263.145 210.921L259.948 211.694C259.664 212.817 259.232 213.91 258.647 214.945L260.45 217.65L256.667 221.505L253.854 219.831C252.826 220.441 251.727 220.906 250.598 221.22L249.93 224.39L244.487 224.483L243.701 221.337C242.56 221.058 241.449 220.633 240.397 220.057L237.649 221.831L233.731 218.109L235.433 215.341C234.813 214.329 234.34 213.247 234.021 212.136L230.8 211.479L230.706 206.123L233.903 205.349C234.187 204.227 234.619 203.134 235.204 202.098L233.401 199.394L237.184 195.538L239.997 197.213ZM242.898 204.349C240.658 206.635 240.723 210.269 243.046 212.474C245.368 214.678 249.062 214.614 251.302 212.328C253.542 210.043 253.477 206.408 251.154 204.204C248.832 202.005 245.138 202.069 242.898 204.349Z" fill="#EBEBEB"/>
<path d="M295.432 152.994C296.129 152.581 296.868 152.267 297.63 152.051L298.086 149.911L301.761 149.847L302.287 151.97C303.055 152.156 303.806 152.446 304.515 152.83L306.371 151.632L309.012 154.144L307.859 156.011C308.279 156.698 308.598 157.425 308.81 158.175L310.985 158.623L311.05 162.24L308.893 162.758C308.703 163.514 308.408 164.253 308.018 164.951L309.235 166.777L306.682 169.377L304.785 168.243C304.087 168.656 303.349 168.97 302.586 169.179L302.131 171.32L298.455 171.384L297.929 169.261C297.161 169.075 296.411 168.784 295.702 168.4L293.846 169.599L291.205 167.086L292.357 165.219C291.938 164.533 291.619 163.806 291.4 163.056L289.226 162.608L289.161 158.996L291.318 158.479C291.507 157.722 291.803 156.984 292.193 156.286L290.976 154.46L293.529 151.86L295.432 152.994ZM297.387 157.809C295.874 159.351 295.921 161.805 297.487 163.294C299.053 164.783 301.547 164.736 303.06 163.195C304.573 161.653 304.526 159.199 302.96 157.71C301.394 156.221 298.9 156.268 297.387 157.809Z" fill="#EBEBEB"/>
<path d="M360.59 249.174L339.379 249.174L339.379 278.334L360.59 278.334L360.59 249.174Z" fill="#84B7FF"/>
<path d="M246.524 194.251C244.202 192.651 240.898 192.564 238.486 194.047C237.694 191.273 235.413 188.952 232.618 188.092C229.822 187.231 226.601 187.853 224.343 189.697C221.932 187.405 218.15 186.632 215.006 187.778C211.861 188.929 209.515 191.948 209.207 195.234C205.673 195.42 202.027 197.712 201.288 201.615L249.467 201.614C250.058 198.88 248.847 195.85 246.524 194.251Z" fill="white"/>
<path d="M246.521 194.247C246.521 194.247 246.681 194.346 246.982 194.567C247.266 194.8 247.686 195.16 248.129 195.73C248.566 196.295 249.033 197.068 249.352 198.063C249.659 199.057 249.825 200.284 249.547 201.622L249.535 201.686L249.47 201.686C239.63 201.704 221.734 201.728 201.291 201.758L201.096 201.758L201.137 201.578C201.155 201.508 201.173 201.427 201.19 201.351C201.575 199.525 202.704 197.919 204.181 196.849C205.653 195.773 207.432 195.174 209.199 195.075L209.057 195.209C209.424 191.533 212.172 188.438 215.446 187.479C218.744 186.507 222.261 187.531 224.436 189.595L224.264 189.589C225.683 188.455 227.379 187.815 229.028 187.647C230.683 187.466 232.296 187.739 233.644 188.362C236.368 189.618 237.993 191.944 238.566 194.021L238.448 193.974C239.63 193.265 240.86 192.991 241.912 192.939C242.969 192.892 243.868 193.061 244.559 193.27C245.251 193.485 245.741 193.753 246.06 193.933C246.368 194.131 246.521 194.247 246.521 194.247C246.521 194.253 246.48 194.23 246.397 194.183C246.309 194.131 246.19 194.061 246.037 193.974C245.712 193.805 245.221 193.555 244.53 193.352C243.844 193.154 242.958 193.003 241.912 193.061C240.877 193.125 239.672 193.404 238.525 194.108L238.436 194.166L238.407 194.067C237.828 192.037 236.214 189.763 233.549 188.559C232.231 187.966 230.659 187.705 229.046 187.885C227.438 188.054 225.789 188.688 224.418 189.793L224.329 189.863L224.246 189.787C222.137 187.792 218.709 186.809 215.523 187.758C212.361 188.688 209.701 191.701 209.353 195.249L209.341 195.377L209.211 195.383C207.503 195.476 205.783 196.058 204.358 197.099C202.934 198.129 201.858 199.67 201.486 201.421C201.468 201.497 201.45 201.572 201.433 201.642L201.279 201.462C221.722 201.49 239.618 201.518 249.458 201.529L249.381 201.593C249.659 200.29 249.517 199.08 249.222 198.103C248.921 197.12 248.472 196.353 248.052 195.783C247.626 195.213 247.219 194.846 246.947 194.602C246.811 194.492 246.705 194.41 246.622 194.34C246.551 194.282 246.515 194.253 246.521 194.247Z" fill="#263238"/>
<path d="M325.706 257.984C323.431 256.42 320.204 256.333 317.845 257.787C317.071 255.071 314.837 252.802 312.107 251.965C309.371 251.122 306.22 251.732 304.016 253.53C301.658 251.291 297.958 250.529 294.885 251.657C291.811 252.78 289.512 255.734 289.211 258.945C285.753 259.125 282.189 261.364 281.468 265.186L328.59 265.185C329.169 262.509 327.981 259.549 325.706 257.984Z" fill="white"/>
<path d="M325.705 257.984C325.705 257.984 325.865 258.082 326.154 258.298C326.432 258.53 326.846 258.879 327.277 259.438C327.709 259.99 328.164 260.746 328.471 261.723C328.772 262.695 328.932 263.899 328.666 265.207L328.654 265.271L328.589 265.271C318.967 265.289 301.467 265.313 281.468 265.343L281.272 265.343L281.314 265.163C281.332 265.093 281.349 265.017 281.367 264.936C281.745 263.15 282.851 261.574 284.293 260.533C285.735 259.48 287.473 258.893 289.204 258.799L289.062 258.933C289.423 255.333 292.107 252.308 295.316 251.372C298.543 250.424 301.982 251.424 304.11 253.442L303.939 253.436C305.327 252.325 306.982 251.703 308.602 251.534C310.221 251.359 311.799 251.627 313.117 252.232C315.782 253.459 317.372 255.733 317.933 257.769L317.815 257.722C318.968 257.024 320.173 256.762 321.208 256.71C322.248 256.663 323.123 256.826 323.796 257.036C324.476 257.245 324.949 257.507 325.268 257.687C325.557 257.867 325.705 257.984 325.705 257.984C325.705 257.989 325.664 257.966 325.581 257.92C325.492 257.867 325.38 257.797 325.232 257.71C324.913 257.547 324.435 257.297 323.761 257.105C323.087 256.913 322.224 256.768 321.202 256.826C320.191 256.89 319.009 257.164 317.892 257.85L317.803 257.908L317.774 257.809C317.207 255.82 315.635 253.604 313.028 252.424C311.74 251.842 310.203 251.586 308.625 251.767C307.053 251.935 305.44 252.552 304.104 253.628L304.015 253.698L303.933 253.622C301.87 251.674 298.519 250.714 295.404 251.639C292.313 252.547 289.713 255.496 289.37 258.962L289.358 259.09L289.228 259.096C287.555 259.189 285.877 259.759 284.488 260.777C283.099 261.784 282.041 263.29 281.68 265.006C281.663 265.081 281.645 265.151 281.627 265.221L281.473 265.041C301.467 265.069 318.967 265.097 328.595 265.108L328.518 265.172C328.79 263.899 328.648 262.718 328.364 261.758C328.069 260.793 327.632 260.042 327.218 259.49C326.798 258.932 326.403 258.577 326.137 258.332C326.001 258.228 325.9 258.141 325.817 258.077C325.741 258.018 325.705 257.984 325.705 257.984Z" fill="#263238"/>
<path d="M430.726 256.34C428.451 254.775 425.224 254.688 422.866 256.142C422.092 253.426 419.858 251.158 417.127 250.32C414.391 249.477 411.241 250.088 409.036 251.885C406.678 249.646 402.979 248.884 399.905 250.013C396.832 251.135 394.533 254.09 394.231 257.3C390.774 257.481 387.21 259.72 386.489 263.541L433.61 263.54C434.184 260.865 433.002 257.904 430.726 256.34Z" fill="white"/>
<path d="M430.728 256.337C430.728 256.337 430.887 256.436 431.177 256.651C431.455 256.884 431.868 257.233 432.3 257.791C432.731 258.344 433.186 259.1 433.493 260.077C433.795 261.048 433.954 262.252 433.688 263.561L433.676 263.625L433.611 263.625C423.99 263.643 406.49 263.667 386.49 263.697L386.295 263.697L386.336 263.516C386.354 263.447 386.372 263.371 386.39 263.29C386.768 261.504 387.873 259.928 389.315 258.886C390.757 257.834 392.495 257.246 394.227 257.153L394.085 257.287C394.446 253.686 397.129 250.662 400.338 249.725C403.565 248.777 407.005 249.777 409.132 251.795L408.961 251.79C410.35 250.679 412.005 250.056 413.624 249.888C415.244 249.713 416.822 249.98 418.139 250.585C420.805 251.812 422.395 254.086 422.956 256.122L422.838 256.076C423.99 255.378 425.196 255.116 426.23 255.063C427.27 255.017 428.145 255.18 428.819 255.389C429.498 255.598 429.971 255.86 430.29 256.04C430.58 256.221 430.728 256.337 430.728 256.337C430.728 256.343 430.686 256.32 430.604 256.273C430.515 256.221 430.403 256.151 430.255 256.064C429.936 255.901 429.457 255.651 428.783 255.459C428.11 255.267 427.247 255.122 426.224 255.18C425.214 255.244 424.032 255.517 422.914 256.204L422.826 256.262L422.796 256.163C422.229 254.174 420.657 251.958 418.051 250.777C416.762 250.196 415.226 249.94 413.648 250.12C412.076 250.289 410.462 250.906 409.126 251.982L409.038 252.051L408.955 251.976C406.893 250.027 403.542 249.068 400.427 249.993C397.336 250.9 394.735 253.849 394.392 257.316L394.38 257.444L394.25 257.45C392.578 257.543 390.899 258.113 389.51 259.131C388.121 260.137 387.063 261.644 386.703 263.359C386.685 263.435 386.667 263.505 386.65 263.575L386.496 263.394C406.49 263.422 423.99 263.451 433.617 263.462L433.54 263.526C433.812 262.252 433.671 261.071 433.387 260.112C433.091 259.146 432.654 258.396 432.241 257.843C431.821 257.285 431.425 256.93 431.159 256.692C431.023 256.587 430.923 256.5 430.84 256.436C430.763 256.366 430.728 256.337 430.728 256.337Z" fill="#263238"/>
<path d="M283.909 181.797C282.426 180.774 280.316 180.721 278.779 181.663C278.277 179.89 276.817 178.412 275.032 177.86C273.247 177.313 271.191 177.709 269.749 178.884C268.206 177.424 265.795 176.924 263.785 177.662C261.776 178.395 260.28 180.32 260.085 182.42C257.828 182.536 255.499 184.002 255.032 186.496L285.795 186.496C286.167 184.752 285.393 182.821 283.909 181.797Z" fill="white"/>
<path d="M283.911 181.797C283.911 181.797 284.366 182.018 284.951 182.734C285.235 183.094 285.536 183.589 285.737 184.228C285.938 184.862 286.045 185.653 285.867 186.514L285.856 186.578L285.791 186.578C279.532 186.619 268.095 186.648 255.028 186.648L254.833 186.648L254.874 186.468C254.886 186.421 254.898 186.369 254.91 186.322C255.158 185.147 255.885 184.106 256.837 183.414C257.788 182.722 258.929 182.333 260.069 182.274L259.928 182.408C260.17 180.035 261.931 178.046 264.047 177.43C266.175 176.808 268.432 177.465 269.833 178.797L269.662 178.791C271.506 177.314 273.976 177.203 275.696 178.006C277.445 178.814 278.486 180.309 278.852 181.646L278.734 181.6C279.496 181.146 280.288 180.972 280.962 180.943C281.642 180.913 282.215 181.024 282.658 181.164C283.545 181.449 283.911 181.797 283.911 181.797C283.899 181.827 283.515 181.501 282.635 181.239C282.197 181.117 281.636 181.024 280.968 181.065C280.312 181.111 279.544 181.286 278.817 181.734L278.728 181.792L278.698 181.693C278.326 180.402 277.304 178.965 275.607 178.203C273.952 177.441 271.577 177.575 269.827 178.988L269.739 179.058L269.656 178.983C268.32 177.721 266.145 177.104 264.136 177.703C262.138 178.291 260.454 180.198 260.235 182.443L260.223 182.571L260.093 182.577C259.012 182.635 257.924 183.007 257.026 183.664C256.127 184.316 255.448 185.287 255.211 186.392C255.199 186.439 255.188 186.485 255.176 186.532L255.022 186.351C268.084 186.351 279.52 186.38 285.785 186.421L285.708 186.485C285.885 185.659 285.796 184.891 285.613 184.269C285.424 183.641 285.14 183.153 284.875 182.792C284.331 182.059 283.888 181.821 283.911 181.797Z" fill="#263238"/>
<path d="M489.693 201.665C484.032 199.089 481.563 192.482 484.181 186.91C486.8 181.338 493.513 178.907 499.175 181.483C504.836 184.059 507.305 190.666 504.687 196.238C502.074 201.81 495.361 204.241 489.693 201.665Z" fill="white"/>
<path d="M489.694 201.663C489.694 201.657 489.754 201.675 489.872 201.716C490.002 201.762 490.167 201.82 490.374 201.902C490.593 201.989 490.864 202.088 491.201 202.169C491.532 202.256 491.91 202.373 492.36 202.431C493.234 202.611 494.339 202.663 495.592 202.535C496.845 202.401 498.263 202.029 499.67 201.29C501.064 200.552 502.465 199.458 503.535 197.946C504.587 196.439 505.403 194.572 505.545 192.508C505.646 191.484 505.575 190.414 505.35 189.361C505.256 188.826 505.073 188.314 504.907 187.785C504.689 187.279 504.482 186.762 504.193 186.279C503.111 184.301 501.309 182.638 499.123 181.62C496.919 180.644 494.466 180.365 492.232 180.836C491.671 180.929 491.133 181.115 490.601 181.278C490.087 181.493 489.567 181.685 489.094 181.964C488.131 182.476 487.256 183.116 486.529 183.855C485.022 185.303 484.106 187.124 483.621 188.886C483.142 190.666 483.201 192.428 483.532 193.952C483.869 195.481 484.501 196.784 485.21 197.813C485.925 198.837 486.681 199.628 487.384 200.169C487.715 200.465 488.052 200.675 488.335 200.867C488.613 201.064 488.867 201.21 489.074 201.314C489.269 201.419 489.423 201.506 489.541 201.576C489.647 201.623 489.7 201.657 489.694 201.663C489.694 201.669 489.635 201.646 489.523 201.593C489.399 201.535 489.239 201.46 489.039 201.361C488.826 201.262 488.566 201.128 488.276 200.936C487.987 200.75 487.638 200.547 487.295 200.256C486.574 199.727 485.789 198.936 485.05 197.906C484.317 196.871 483.662 195.557 483.301 193.998C482.953 192.445 482.876 190.648 483.355 188.828C483.84 187.019 484.774 185.152 486.311 183.663C487.055 182.901 487.948 182.244 488.935 181.714C489.419 181.429 489.951 181.231 490.483 181.01C491.033 180.842 491.582 180.65 492.156 180.551C494.449 180.062 496.972 180.347 499.235 181.353C501.481 182.4 503.33 184.109 504.441 186.139C504.742 186.634 504.949 187.169 505.173 187.692C505.345 188.233 505.534 188.762 505.628 189.309C505.858 190.391 505.929 191.484 505.817 192.537C505.657 194.654 504.817 196.567 503.73 198.097C502.631 199.638 501.189 200.744 499.764 201.488C498.328 202.233 496.88 202.593 495.604 202.71C494.327 202.826 493.21 202.751 492.33 202.553C491.881 202.483 491.503 202.361 491.172 202.262C490.835 202.175 490.563 202.065 490.35 201.966C490.144 201.878 489.984 201.809 489.854 201.756C489.748 201.692 489.694 201.669 489.694 201.663Z" fill="#263238"/>
<path d="M495.385 191.873C496.431 191.908 497.465 191.303 497.961 190.262C498.612 188.895 498.08 187.302 496.779 186.703C495.479 186.103 493.895 186.726 493.245 188.093C492.743 189.145 492.95 190.326 493.665 191.093C489.776 189.977 488.115 193.943 488.115 193.943L496.697 197.892C496.691 197.892 498.736 194.048 495.385 191.873Z" fill="#0000CB"/>
<path d="M437.302 167.581C431.546 172.414 422.9 171.733 417.995 166.069C413.084 160.404 413.776 151.896 419.533 147.069C425.289 142.236 433.935 142.917 438.84 148.581C443.751 154.24 443.059 162.748 437.302 167.581Z" fill="white"/>
<path d="M437.302 167.58C437.296 167.575 437.349 167.522 437.456 167.418C437.568 167.307 437.722 167.156 437.917 166.97C438.023 166.871 438.135 166.76 438.259 166.638C438.378 166.51 438.502 166.359 438.638 166.208C438.91 165.894 439.229 165.539 439.524 165.091C440.169 164.236 440.795 163.067 441.292 161.637C441.782 160.206 442.09 158.479 441.972 156.583C441.854 154.693 441.34 152.616 440.188 150.686C439.035 148.778 437.351 146.946 435.112 145.736C434.568 145.405 433.971 145.172 433.374 144.911C432.76 144.707 432.139 144.469 431.483 144.347C430.839 144.178 430.165 144.12 429.492 144.033C428.812 144.015 428.127 143.969 427.435 144.044C426.058 144.155 424.657 144.422 423.34 144.975C422.016 145.51 420.763 146.254 419.634 147.179C418.529 148.133 417.583 149.232 416.832 150.43C416.07 151.622 415.579 152.943 415.248 154.263C415.065 154.92 415 155.595 414.911 156.258C414.893 156.926 414.846 157.589 414.911 158.241C414.929 158.898 415.07 159.538 415.177 160.166C415.342 160.788 415.484 161.405 415.732 161.986C416.589 164.353 418.167 166.278 419.898 167.703C421.653 169.128 423.656 169.954 425.53 170.372C427.415 170.785 429.2 170.756 430.707 170.506C432.219 170.25 433.49 169.825 434.447 169.337C434.944 169.122 435.352 168.866 435.706 168.656C435.884 168.546 436.055 168.459 436.197 168.36C436.339 168.255 436.463 168.162 436.581 168.081C436.8 167.924 436.977 167.796 437.107 167.703C437.237 167.615 437.302 167.575 437.302 167.58C437.308 167.586 437.249 167.633 437.137 167.726C437.012 167.825 436.841 167.958 436.628 168.127C436.516 168.214 436.386 168.313 436.25 168.424C436.108 168.523 435.937 168.621 435.765 168.738C435.411 168.959 435.009 169.226 434.507 169.447C433.543 169.959 432.267 170.401 430.736 170.68C429.211 170.948 427.403 170.995 425.482 170.587C423.574 170.18 421.529 169.349 419.732 167.907C417.96 166.464 416.347 164.51 415.46 162.097C415.206 161.503 415.059 160.87 414.887 160.241C414.775 159.596 414.627 158.945 414.61 158.276C414.539 157.607 414.586 156.932 414.604 156.246C414.693 155.566 414.758 154.879 414.941 154.205C415.278 152.855 415.775 151.506 416.555 150.285C417.317 149.058 418.286 147.935 419.415 146.958C420.574 146.016 421.856 145.254 423.204 144.702C424.551 144.137 425.987 143.864 427.394 143.753C428.097 143.684 428.8 143.724 429.498 143.748C430.189 143.835 430.875 143.899 431.531 144.073C432.198 144.195 432.831 144.445 433.463 144.649C434.072 144.916 434.68 145.161 435.236 145.498C437.523 146.742 439.23 148.615 440.394 150.569C441.558 152.541 442.066 154.658 442.173 156.577C442.273 158.508 441.948 160.252 441.439 161.695C440.919 163.137 440.269 164.306 439.607 165.161C439.306 165.609 438.975 165.958 438.691 166.272C438.549 166.423 438.425 166.574 438.301 166.696C438.171 166.813 438.053 166.917 437.946 167.016C437.739 167.197 437.58 167.342 437.462 167.447C437.367 167.534 437.308 167.58 437.302 167.58Z" fill="#263238"/>
<path d="M429.239 156.454C429.812 155.343 429.658 153.912 428.743 152.842C427.543 151.446 425.493 151.208 424.157 152.319C422.827 153.424 422.72 155.454 423.92 156.85C424.842 157.926 426.272 158.304 427.489 157.92C424.268 161.567 427.861 165.382 427.861 165.382L436.631 158.088C436.637 158.088 433.376 153.929 429.239 156.454Z" fill="#0000CB"/>
<path d="M356.553 110.928C352.411 108.52 351.035 103.262 353.476 99.185C355.923 95.1077 361.265 93.7521 365.407 96.1539C369.549 98.5615 370.925 103.819 368.484 107.897C366.043 111.98 360.701 113.335 356.553 110.928Z" fill="white"/>
<path d="M356.555 110.935C356.579 110.894 357.223 111.331 358.54 111.714C359.84 112.086 361.944 112.307 364.225 111.382C365.348 110.917 366.506 110.184 367.44 109.108C368.362 108.032 369.13 106.665 369.403 105.1C369.562 104.321 369.592 103.501 369.498 102.681C369.421 101.855 369.202 101.023 368.848 100.238C368.175 98.6443 366.928 97.2369 365.339 96.2948C363.732 95.3818 361.876 94.9807 360.133 95.1728C359.258 95.2485 358.419 95.4638 357.645 95.7954C356.871 96.1153 356.15 96.5342 355.535 97.046C354.271 98.0407 353.425 99.3611 352.917 100.676C352.408 102.002 352.32 103.351 352.449 104.543C352.732 106.957 353.949 108.661 354.907 109.598C355.881 110.551 356.584 110.894 356.555 110.935C356.555 110.941 356.508 110.918 356.431 110.871C356.336 110.813 356.218 110.743 356.076 110.656C355.917 110.563 355.728 110.441 355.521 110.272C355.308 110.109 355.06 109.929 354.818 109.679C354.304 109.22 353.76 108.551 353.27 107.702C352.786 106.852 352.378 105.788 352.231 104.561C352.083 103.34 352.166 101.949 352.675 100.583C353.189 99.2274 354.052 97.8605 355.352 96.825C355.985 96.2957 356.723 95.8536 357.527 95.522C358.325 95.1788 359.199 94.9519 360.098 94.8703C361.9 94.6666 363.826 95.0794 365.487 96.0273C367.135 97.0042 368.429 98.464 369.12 100.116C369.486 100.93 369.705 101.791 369.781 102.646C369.876 103.495 369.84 104.344 369.674 105.147C369.384 106.764 368.586 108.171 367.629 109.271C366.66 110.37 365.46 111.115 364.308 111.574C363.143 112.034 362.003 112.203 361.01 112.197C360.017 112.185 359.166 112.04 358.505 111.819C358.168 111.732 357.884 111.604 357.636 111.505C357.388 111.412 357.187 111.307 357.028 111.214C356.88 111.133 356.762 111.063 356.667 111.011C356.596 110.964 356.555 110.935 356.555 110.935Z" fill="#263238"/>
<path d="M361.683 103.837C362.481 103.941 363.326 103.558 363.787 102.796C364.39 101.795 364.112 100.533 363.16 99.9751C362.209 99.4168 360.944 99.7715 360.341 100.772C359.874 101.54 359.939 102.464 360.43 103.104C357.534 101.953 355.944 104.872 355.944 104.872L362.221 108.553C362.215 108.559 364.082 105.762 361.683 103.837Z" fill="#0000CB"/>
<path d="M486.382 55.8667C498.842 49.6697 503.837 34.7067 497.54 22.446C491.243 10.1853 476.037 5.26969 463.577 11.4667C451.116 17.6638 446.121 32.6268 452.418 44.8875C458.716 57.1482 473.921 62.0638 486.382 55.8667Z" fill="white"/>
<path d="M485.367 25.7396C485.302 23.9716 484.481 22.2385 483.145 21.0579C481.673 19.761 479.664 19.1562 477.69 19.0922C475.716 19.0282 473.754 19.4586 471.863 20.0228C470.799 20.3368 469.729 20.709 468.86 21.3836C467.271 22.6166 465.462 24.8266 464.883 26.7342C464.41 28.2753 464.085 32.3347 464.416 33.9108C464.534 34.4691 465.007 35.0623 465.615 35.6206C466.011 37.1909 466.673 38.6972 467.595 40.0348C468.216 39.0694 468.836 38.1039 469.457 37.1385L485.367 25.7396Z" fill="#263238"/>
<path d="M484.914 23.5939L481.912 22.3145C482.662 26.7286 480.931 36.0164 480.889 40.4887C482.438 39.1045 486.326 34.7078 486.657 32.6723C487 30.6484 488.72 24.1173 484.914 23.5939Z" fill="#263238"/>
<path d="M468.454 26.8329C469.186 24.524 471.19 22.9596 473.643 22.9189L481.296 22.7793C484.493 23.1689 485.675 27.4319 485.137 30.5549C484.546 34.0327 483.819 37.6734 482.803 40.1335C480.758 45.0827 476.597 44.8152 476.597 44.8152C476.597 44.8094 476.012 47.2578 475.651 48.7583L472.684 55.1265L464.174 48.6536L468.418 26.891C468.442 26.8038 468.418 26.9492 468.454 26.8329Z" fill="#FFBF9D"/>
<path d="M482.426 34.3878C482.355 34.7367 481.995 34.9693 481.622 34.9054C481.25 34.8414 481.002 34.5041 481.073 34.1551C481.144 33.8062 481.504 33.5736 481.876 33.6375C482.249 33.7015 482.497 34.0388 482.426 34.3878Z" fill="#263238"/>
<path d="M483.873 32.3865C483.766 32.4563 483.347 31.9678 482.626 31.805C481.91 31.6305 481.29 31.8748 481.237 31.7701C481.207 31.7236 481.331 31.5898 481.597 31.4735C481.863 31.363 482.289 31.2874 482.738 31.3979C483.187 31.5026 483.524 31.7526 483.701 31.9678C483.884 32.183 483.92 32.3575 483.873 32.3865Z" fill="#263238"/>
<path d="M475.989 32.7003C475.918 33.0492 475.557 33.2818 475.185 33.2179C474.812 33.1539 474.564 32.8166 474.635 32.4676C474.706 32.1187 475.067 31.8861 475.439 31.95C475.811 32.014 476.059 32.3513 475.989 32.7003Z" fill="#263238"/>
<path d="M477.029 30.8006C476.923 30.8646 476.503 30.3819 475.782 30.219C475.067 30.0446 474.446 30.2888 474.393 30.1841C474.364 30.1376 474.482 30.0039 474.754 29.8875C475.02 29.777 475.445 29.7014 475.894 29.8119C476.343 29.9166 476.68 30.1667 476.858 30.3819C477.041 30.5971 477.082 30.7715 477.029 30.8006Z" fill="#263238"/>
<path d="M477.952 36.8888C477.958 36.8481 478.425 36.8771 479.169 36.9469C479.359 36.9702 479.542 36.976 479.601 36.8597C479.678 36.7376 479.642 36.5282 479.607 36.2956C479.536 35.8187 479.465 35.3185 479.388 34.7893C479.099 32.6549 478.933 30.9102 479.022 30.9044C479.111 30.8927 479.418 32.6142 479.707 34.7544C479.772 35.2778 479.837 35.7838 479.902 36.2607C479.926 36.4817 479.985 36.7434 479.831 36.9935C479.749 37.1156 479.589 37.1854 479.465 37.1912C479.341 37.197 479.234 37.1796 479.14 37.1621C478.395 37.0284 477.946 36.9295 477.952 36.8888Z" fill="#263238"/>
<path d="M470.116 41.3848C470.116 41.3848 470.967 45.3046 476.31 46.0257L476.599 44.816C476.599 44.8219 473.107 44.2461 470.116 41.3848Z" fill="#FF9A6C"/>
<path d="M477.419 28.1889C477.301 28.3634 476.603 28.1075 475.735 28.0145C474.866 27.904 474.127 27.9912 474.056 27.7935C474.027 27.7004 474.186 27.5434 474.505 27.4213C474.825 27.2991 475.303 27.2235 475.823 27.2817C476.343 27.3457 476.793 27.5318 477.07 27.7237C477.348 27.9156 477.472 28.1017 477.419 28.1889Z" fill="#263238"/>
<path d="M484.156 30.1656C483.991 30.2993 483.536 30.0143 482.939 29.8689C482.348 29.7061 481.81 29.7236 481.733 29.5316C481.703 29.4386 481.822 29.2932 482.076 29.1943C482.33 29.0896 482.72 29.0489 483.128 29.1594C483.536 29.2641 483.855 29.4967 484.026 29.7061C484.197 29.9155 484.227 30.1016 484.156 30.1656Z" fill="#263238"/>
<path d="M484.844 25.5352C484.708 24.6861 483.957 24.0231 483.124 23.7847C482.285 23.5462 481.386 23.6684 480.553 23.9184C477.019 24.9653 474.401 28.8677 470.89 29.9843C470.027 30.2576 469.141 29.6179 468.355 30.0657C467.568 30.5135 466.924 31.3685 467.09 32.2466C466.812 31.5953 466.528 30.9323 466.451 30.2286C466.375 29.5249 466.522 28.763 467.019 28.2454C467.391 27.8557 467.947 27.6173 468.195 27.1404C468.414 26.7217 468.349 26.2099 468.479 25.7562C468.609 25.291 468.94 24.913 469.271 24.5582C470.973 22.7437 473.083 21.2316 475.494 20.5511C477.072 20.1033 478.768 20.0219 480.352 20.4464C481.936 20.871 483.39 21.8189 484.3 23.1566C484.838 23.9475 485.405 24.7617 484.844 25.5352Z" fill="#263238"/>
<path d="M468.275 30.7173C468.258 30.5544 465.764 28.9609 465.048 31.799C464.351 34.5557 467.318 34.672 467.341 34.5905C467.365 34.5149 468.275 30.7173 468.275 30.7173Z" fill="#FFBF9D"/>
<path d="M466.738 33.3413C466.726 33.3297 466.679 33.3646 466.591 33.3821C466.502 33.3995 466.354 33.3879 466.224 33.3006C465.952 33.1203 465.822 32.5969 465.929 32.0968C465.982 31.8467 466.1 31.6199 466.236 31.4396C466.372 31.2593 466.537 31.1488 466.697 31.1604C466.857 31.1604 466.939 31.2768 466.951 31.364C466.969 31.4512 466.939 31.5036 466.951 31.5094C466.957 31.521 467.022 31.4803 467.028 31.3582C467.028 31.3 467.016 31.2302 466.963 31.1604C466.91 31.0907 466.815 31.0383 466.709 31.0267C466.49 30.9918 466.248 31.1372 466.094 31.3291C465.929 31.521 465.793 31.7711 465.734 32.0561C465.615 32.6144 465.775 33.2076 466.147 33.4228C466.331 33.5216 466.514 33.5042 466.614 33.4577C466.715 33.4053 466.744 33.3472 466.738 33.3413Z" fill="#FF9A6C"/>
<path d="M467.501 29.0383C467.501 29.0441 467.566 29.0266 467.69 28.9859C467.814 28.9452 468.004 28.8929 468.234 28.7998C468.695 28.6137 469.345 28.2938 470.078 27.7937C470.811 27.2935 471.621 26.6131 472.501 25.8512C473.382 25.0894 474.357 24.2461 475.504 23.5482C476.083 23.2109 476.674 22.9259 477.277 22.734C477.88 22.5362 478.488 22.4315 479.067 22.385C480.232 22.292 481.29 22.4606 482.129 22.7165C482.974 22.9666 483.612 23.3039 484.032 23.5656C484.245 23.6877 484.398 23.804 484.505 23.8738C484.611 23.9494 484.67 23.9843 484.67 23.9785C484.67 23.9727 484.623 23.932 484.517 23.8506C484.416 23.7691 484.262 23.647 484.056 23.5191C483.642 23.2457 483.004 22.891 482.153 22.6293C481.302 22.3559 480.232 22.1815 479.05 22.2687C478.459 22.3094 477.844 22.4141 477.229 22.6118C476.615 22.8096 476.012 23.0945 475.427 23.4377C474.263 24.1472 473.293 24.9963 472.413 25.764C471.538 26.5317 470.74 27.2179 470.013 27.7181C469.292 28.224 468.654 28.5497 468.204 28.7533C467.98 28.8522 467.797 28.9103 467.673 28.9627C467.56 29.0092 467.495 29.0383 467.501 29.0383Z" fill="white"/>
<path d="M468.02 29.9847C467.796 30.7291 467.571 31.5201 467.76 32.2703C467.955 33.0263 468.741 33.6893 469.498 33.4683C470.118 33.288 470.443 32.6425 470.68 32.0493C471.365 30.3511 471.915 28.5947 472.618 26.9023L468.02 29.9847Z" fill="#263238"/>
<path d="M484.465 24.0598C484.459 24.0773 484.228 23.9552 483.779 23.8388C483.336 23.7225 482.656 23.6295 481.841 23.74C481.433 23.7981 480.99 23.897 480.535 24.0599C480.08 24.2227 479.601 24.4379 479.116 24.6821C478.147 25.1823 477.113 25.8104 476.167 26.6304C475.694 27.0433 475.257 27.4737 474.802 27.8634C474.347 28.2588 473.868 28.5962 473.377 28.8462C472.39 29.358 471.433 29.6488 470.629 29.8582C469.819 30.0676 469.157 30.1897 468.696 30.2711C468.484 30.306 468.306 30.3351 468.165 30.3583C468.04 30.3758 467.981 30.3816 467.975 30.3816C467.975 30.3758 468.035 30.3583 468.153 30.3293C468.289 30.3002 468.46 30.2595 468.673 30.2071C469.128 30.1024 469.784 29.9629 470.588 29.7419C471.386 29.5209 472.331 29.2184 473.295 28.7067C473.773 28.4566 474.24 28.1251 474.683 27.7354C475.133 27.3516 475.57 26.9154 476.049 26.4967C477.012 25.665 478.058 25.0311 479.039 24.5367C479.536 24.2925 480.015 24.0831 480.481 23.9203C480.948 23.7574 481.403 23.6644 481.817 23.612C482.656 23.5132 483.342 23.6237 483.791 23.7632C484.016 23.833 484.181 23.9028 484.293 23.9552C484.412 24.025 484.471 24.0598 484.465 24.0598Z" fill="#455A64"/>
<path d="M468.353 28.2585C468.353 28.2702 468.253 28.3051 468.064 28.3632C467.845 28.4272 467.573 28.5144 467.254 28.6075C467.165 28.6307 467.077 28.6598 466.982 28.6889C466.882 28.718 466.775 28.7354 466.651 28.718C466.592 28.7064 466.521 28.6889 466.474 28.6307C466.421 28.5784 466.397 28.497 466.415 28.4214C466.444 28.276 466.551 28.1887 466.634 28.1015C466.982 27.7584 467.366 27.3862 467.774 26.9907L467.863 27.1186C467.555 27.2524 467.207 27.3338 466.852 27.3513C466.492 27.3745 466.143 27.328 465.818 27.235C465.735 27.2117 465.652 27.1826 465.576 27.1303C465.499 27.0838 465.416 27.0082 465.404 26.8918C465.387 26.7813 465.452 26.6767 465.517 26.6243C465.582 26.5662 465.658 26.5254 465.718 26.4906C466.232 26.1881 466.645 25.845 466.959 25.5251C467.591 24.8796 467.845 24.3736 467.875 24.3911C467.881 24.3969 467.827 24.5248 467.697 24.74C467.567 24.9552 467.355 25.2634 467.047 25.6007C466.734 25.9381 466.32 26.2986 465.8 26.6127C465.67 26.6883 465.54 26.7755 465.558 26.8686C465.57 26.9616 465.717 27.043 465.865 27.0779C466.173 27.1652 466.504 27.2059 466.846 27.1826C467.183 27.1652 467.508 27.0838 467.804 26.9616L468.2 26.7988L467.892 27.0896C467.479 27.4792 467.094 27.8514 466.74 28.1829C466.651 28.2644 466.568 28.3458 466.557 28.4272C466.539 28.5086 466.598 28.5668 466.693 28.5842C466.876 28.6191 467.071 28.5319 467.248 28.497C467.573 28.4156 467.851 28.3516 468.07 28.2934C468.241 28.2702 468.347 28.2527 468.353 28.2585Z" fill="white"/>
<path d="M474.895 37.5628C475.09 37.1615 475.61 36.9405 476.036 37.0859C476.349 37.1905 476.585 37.4755 476.662 37.7896C476.739 38.1036 476.662 38.4526 476.485 38.7259L476.455 38.7899C476.083 39.04 475.545 39.0341 475.19 38.7608C474.836 38.4875 474.7 37.9582 474.895 37.5628Z" fill="#FF9A6C"/>
<path d="M476.976 38.9243C477.006 38.8196 476.267 38.68 475.859 37.9647C475.451 37.2493 475.676 36.4933 475.575 36.47C475.528 36.4526 475.398 36.6154 475.327 36.9411C475.256 37.261 475.274 37.7437 475.522 38.1857C475.77 38.6219 476.172 38.8603 476.468 38.9417C476.769 39.0173 476.97 38.9708 476.976 38.9243Z" fill="#263238"/>
<path d="M483.894 52.6885C482.706 51.1706 480.756 49.9086 480.756 49.9086L475.921 47.5242C475.921 47.5242 473.657 50.6124 469.579 49.3098C465.75 48.0827 464.881 44.4305 464.881 44.4305C464.881 44.4305 458.031 43.5524 453.025 46.1696C455.974 50.8861 459.999 54.7942 466.222 57.0506C471.719 59.2256 479.798 59.3069 486.122 56.0267C486.128 56.0267 485.194 54.3517 483.894 52.6885Z" fill="#455A64"/>
<path d="M450.658 39.949C450.658 39.949 450.711 40.0769 450.8 40.3328C450.888 40.6004 451.013 40.9784 451.172 41.4669C451.255 41.717 451.343 41.9961 451.444 42.2986C451.556 42.601 451.71 42.9208 451.864 43.2698C452.171 43.9735 452.502 44.7935 453.022 45.6426C453.938 47.4048 455.398 49.3938 457.407 51.3886C459.422 53.3718 462.094 55.3026 465.403 56.6751C468.701 58.036 472.649 58.9083 476.869 58.6059C477.915 58.4954 478.991 58.443 480.054 58.1871C480.586 58.0708 481.13 57.9894 481.668 57.8498C482.194 57.6869 482.732 57.5241 483.27 57.3613C483.536 57.274 483.813 57.2101 484.073 57.1054L484.859 56.7797C485.379 56.5529 485.917 56.3551 486.437 56.105C487.442 55.5467 488.506 55.0524 489.457 54.3487C490.468 53.7322 491.361 52.9412 492.294 52.1736C492.738 51.7665 493.151 51.3245 493.589 50.8999C494.038 50.487 494.422 50.0101 494.806 49.5332C495.628 48.6143 496.284 47.5558 496.987 46.5206C497.578 45.4214 498.216 44.3281 498.666 43.1358C499.611 40.7863 500.315 38.2564 500.457 35.6335C500.634 33.0164 500.403 30.3469 499.765 27.724C499.056 25.1186 497.969 22.6585 496.55 20.4427C496.172 19.9018 495.8 19.361 495.427 18.8259C495.002 18.3258 494.582 17.8314 494.163 17.3371C493.962 17.0812 493.737 16.8486 493.495 16.6276L492.797 15.953L492.1 15.2841L491.35 14.6851C490.38 13.8418 489.287 13.1847 488.235 12.4926C487.118 11.911 486.03 11.2887 484.86 10.8642C484.287 10.6257 483.72 10.3873 483.129 10.2303C482.538 10.0616 481.964 9.86389 481.373 9.71268C480.185 9.47424 479.015 9.2009 477.827 9.1253C476.651 8.95083 475.475 9.01481 474.323 8.99737C473.743 9.02063 473.176 9.09624 472.609 9.14277L471.758 9.22419C471.474 9.25909 471.202 9.32888 470.924 9.37541C470.375 9.48591 469.825 9.59059 469.281 9.69528C468.743 9.82323 468.223 10.0035 467.703 10.1547C466.645 10.4223 465.676 10.8817 464.695 11.2772C460.836 12.987 457.786 15.6042 455.54 18.3434C453.294 21.1059 451.876 24.0545 451.06 26.7414C450.256 29.4341 449.937 31.8709 449.984 33.8483C449.937 34.8428 450.043 35.7151 450.114 36.477C450.156 36.855 450.173 37.2098 450.215 37.5296C450.274 37.8437 450.333 38.1345 450.38 38.3904C450.475 38.8963 450.546 39.2802 450.599 39.5593C450.64 39.8094 450.658 39.949 450.658 39.949C450.658 39.949 450.617 39.8152 450.557 39.5535C450.498 39.2802 450.41 38.8905 450.303 38.3904C450.25 38.1345 450.185 37.8437 450.12 37.5296C450.067 37.2098 450.043 36.855 449.996 36.477C449.913 35.7151 449.795 34.8369 449.831 33.8366C449.76 31.8476 450.067 29.3934 450.853 26.6716C451.657 23.9556 453.07 20.9779 455.327 18.1747C457.579 15.3948 460.658 12.737 464.559 10.9922C465.546 10.5909 466.527 10.1257 467.597 9.8465C468.129 9.69529 468.649 9.50918 469.199 9.38123C469.748 9.27073 470.304 9.16023 470.859 9.04972C471.137 8.99738 471.415 8.92759 471.699 8.8927L472.555 8.81127C473.129 8.76474 473.708 8.68332 474.293 8.66005C475.463 8.6775 476.651 8.61352 477.845 8.78217C479.051 8.85195 480.233 9.13111 481.438 9.36955C482.035 9.51494 482.62 9.71849 483.217 9.89296C483.82 10.05 484.399 10.2884 484.979 10.5327C486.161 10.963 487.266 11.5911 488.4 12.1844C489.47 12.8822 490.575 13.5569 491.562 14.406L492.325 15.0166L493.034 15.6971L493.743 16.3833C493.985 16.6043 494.216 16.8428 494.423 17.0987C494.848 17.5988 495.28 18.1048 495.711 18.6107C496.089 19.1574 496.468 19.7041 496.852 20.2508C498.294 22.5015 499.399 24.9964 500.114 27.6368C500.758 30.2946 500.994 33.0048 500.811 35.6626C500.663 38.3262 499.948 40.8851 498.991 43.2696C498.536 44.4793 497.885 45.5901 497.283 46.7009C496.567 47.7536 495.906 48.8237 495.072 49.7542C494.682 50.2369 494.286 50.7196 493.837 51.1383C493.394 51.5687 492.974 52.0223 492.525 52.4295C491.579 53.203 490.669 54.0055 489.647 54.6278C488.683 55.3374 487.602 55.8375 486.579 56.4017C486.053 56.6517 485.509 56.8553 484.978 57.0821L484.18 57.4136C483.914 57.5183 483.636 57.5823 483.364 57.6695C482.82 57.8323 482.283 57.9952 481.745 58.158C481.201 58.2976 480.651 58.379 480.114 58.4953C479.038 58.7512 477.95 58.8036 476.887 58.9083C472.614 59.1991 468.624 58.3035 465.297 56.9135C461.958 55.5061 459.275 53.5462 457.253 51.534C455.244 49.5101 453.79 47.492 452.892 45.7124C452.378 44.8517 452.059 44.02 451.757 43.3163C451.609 42.9616 451.462 42.6359 451.355 42.3335C451.261 42.0252 451.178 41.7461 451.101 41.4902C450.953 40.9958 450.841 40.6178 450.764 40.3445C450.682 40.0828 450.658 39.949 450.658 39.949Z" fill="#263238"/>
<path d="M513.638 151.413C525.904 139.344 525.904 119.776 513.639 107.707C501.375 95.6384 481.489 95.6385 469.224 107.708C456.959 119.777 456.958 139.344 469.223 151.413C481.488 163.482 501.373 163.482 513.638 151.413Z" fill="white"/>
<path d="M506.284 127.494C506.106 124.569 506.367 121.62 506.042 118.706C505.717 115.793 504.718 112.803 502.497 110.849C500.275 108.895 496.617 108.348 494.318 110.209L493.999 112.733C495.765 123.94 497.526 135.147 499.292 146.36C499.522 147.831 499.77 149.349 500.55 150.623C501.33 151.903 502.784 152.897 504.285 152.699C506.247 152.443 507.399 150.385 507.884 148.495C509.622 141.638 506.703 134.548 506.284 127.494Z" fill="#263238"/>
<path d="M498.052 112.832C497.567 112.14 497.071 111.436 496.397 110.924C495.724 110.412 494.831 110.104 494.004 110.319C493.614 110.418 493.23 110.668 493.123 111.052C493.017 111.436 493.336 111.913 493.732 111.849L493.821 111.913C494.766 112.628 495.723 113.32 496.699 113.995C496.941 114.164 497.195 114.338 497.491 114.402C497.78 114.466 498.123 114.402 498.306 114.169C498.613 113.78 498.33 113.233 498.052 112.832Z" fill="#FF725E"/>
<path d="M499.937 115.584C496.722 112.228 492.597 110.455 487.916 110.705C485.274 110.844 484.222 111.461 482.361 112.095C480.499 112.729 478.856 113.851 477.833 115.514C476.622 117.486 475.641 119.673 475.552 121.976C475.457 124.343 475.368 126.727 475.717 129.065C476.065 131.409 476.887 133.735 478.435 135.55L484.599 136.166C487.974 136.044 491.39 135.916 494.611 134.933C497.832 133.95 500.893 131.99 502.448 129.047C504.599 124.959 503.151 118.94 499.937 115.584Z" fill="#263238"/>
<path d="M485.342 146.814C485.23 144.709 485.112 142.069 485.118 142.075C485.118 142.075 480.113 141.882 478.295 135.712C477.391 132.647 476.89 127.495 476.625 123.261C476.383 119.452 479.303 114.043 484.077 113.695L486.18 113.305L494.529 115.916C495.704 115.893 496.703 116.76 496.827 117.911L499.109 145.436L494.522 154.351L484.703 147.902L485.342 146.814Z" fill="#CC6760"/>
<path d="M487.723 133.584C487.658 133.259 487.445 132.979 487.197 132.793C486.695 132.427 485.997 132.433 485.513 132.817C485.028 133.2 484.786 133.927 484.934 134.579C485.247 134.945 485.702 135.178 486.192 135.183C486.269 135.183 486.346 135.183 486.417 135.178C486.783 135.143 487.15 134.997 487.41 134.707C487.664 134.422 487.806 133.991 487.723 133.584Z" fill="#9D4941"/>
<path d="M479.523 127.977C479.564 128.407 479.966 128.727 480.421 128.692C480.876 128.657 481.213 128.285 481.172 127.86C481.13 127.43 480.728 127.11 480.279 127.145C479.818 127.174 479.482 127.546 479.523 127.977Z" fill="#263238"/>
<path d="M478.199 125.269C478.318 125.362 478.879 124.833 479.76 124.722C480.64 124.6 481.343 124.966 481.426 124.85C481.468 124.798 481.338 124.617 481.03 124.455C480.729 124.286 480.227 124.152 479.677 124.222C479.127 124.292 478.69 124.548 478.448 124.786C478.211 125.025 478.14 125.228 478.199 125.269Z" fill="#263238"/>
<path d="M484.407 131.731C484.407 131.678 483.845 131.655 482.941 131.655C482.711 131.661 482.492 131.643 482.439 131.498C482.368 131.347 482.427 131.091 482.504 130.823C482.646 130.259 482.8 129.672 482.954 129.05C483.568 126.531 483.988 124.467 483.887 124.444C483.781 124.42 483.202 126.444 482.581 128.962C482.434 129.585 482.292 130.172 482.162 130.742C482.108 131.004 481.996 131.306 482.156 131.626C482.238 131.783 482.416 131.882 482.569 131.905C482.717 131.928 482.847 131.917 482.959 131.911C483.851 131.847 484.407 131.777 484.407 131.731Z" fill="#263238"/>
<path d="M485.106 142.071C485.106 142.071 489.444 141.809 493.386 138.762C493.386 138.762 491.66 143.408 485.183 143.612L485.106 142.071Z" fill="#9D4941"/>
<path d="M487.077 131.991C486.935 132.003 487.053 132.945 486.315 133.713C485.582 134.486 484.548 134.509 484.559 134.637C484.553 134.696 484.808 134.794 485.245 134.748C485.67 134.707 486.267 134.498 486.716 134.027C487.166 133.556 487.307 132.98 487.29 132.59C487.278 132.195 487.142 131.974 487.077 131.991Z" fill="#263238"/>
<path d="M478.295 122.198C478.472 122.389 479.128 122.163 479.926 122.134C480.724 122.075 481.403 122.221 481.551 122.011C481.616 121.907 481.504 121.715 481.203 121.534C480.907 121.354 480.417 121.215 479.867 121.249C479.317 121.284 478.85 121.476 478.578 121.686C478.301 121.895 478.218 122.104 478.295 122.198Z" fill="#263238"/>
<path d="M489.583 127.057C489.636 127.482 489.311 127.883 488.862 127.941C488.413 128.005 487.999 127.708 487.946 127.284C487.893 126.859 488.218 126.458 488.667 126.394C489.116 126.336 489.524 126.632 489.583 127.057Z" fill="#263238"/>
<path d="M490.148 124.116C490.053 124.232 489.391 123.831 488.505 123.912C487.618 123.976 487.01 124.482 486.903 124.384C486.85 124.343 486.939 124.139 487.205 123.912C487.465 123.686 487.926 123.447 488.475 123.401C489.025 123.354 489.51 123.517 489.793 123.697C490.083 123.883 490.195 124.064 490.148 124.116Z" fill="#263238"/>
<path d="M489.478 121.345C489.318 121.561 488.621 121.415 487.794 121.473C486.966 121.508 486.286 121.741 486.109 121.543C486.032 121.45 486.121 121.241 486.411 121.026C486.694 120.81 487.179 120.618 487.746 120.583C488.314 120.549 488.816 120.688 489.123 120.863C489.431 121.049 489.543 121.246 489.478 121.345Z" fill="#263238"/>
<path d="M496.476 128.624C496.417 128.153 496.825 126.984 497.286 126.85C498.515 126.502 500.796 126.321 501.216 129.456C501.795 133.742 497.298 133.434 497.274 133.312C497.262 133.213 496.677 130.241 496.476 128.624Z" fill="#CC6760"/>
<path d="M498.233 131.573C498.251 131.555 498.316 131.613 498.452 131.654C498.582 131.695 498.807 131.707 499.019 131.59C499.457 131.363 499.746 130.596 499.664 129.816C499.622 129.427 499.486 129.066 499.309 128.775C499.132 128.479 498.895 128.287 498.659 128.275C498.423 128.252 498.275 128.409 498.24 128.537C498.198 128.665 498.24 128.746 498.216 128.758C498.204 128.77 498.115 128.7 498.121 128.519C498.127 128.432 498.163 128.322 498.257 128.229C498.352 128.13 498.5 128.066 498.665 128.066C499.002 128.043 499.345 128.31 499.545 128.63C499.764 128.944 499.924 129.351 499.971 129.793C500.059 130.66 499.717 131.526 499.114 131.788C498.818 131.904 498.553 131.852 498.405 131.765C498.257 131.677 498.222 131.584 498.233 131.573Z" fill="#9D4941"/>
<path d="M497.459 126.842L496.431 128.052C491.302 123.865 481.108 113.193 481.681 113.827C481.681 113.827 484.873 112.268 488.49 112.617C492.1 112.966 499.003 114.257 499.198 118.404C499.386 122.562 497.459 126.842 497.459 126.842Z" fill="#263238"/>
<path d="M503.751 125.446C503.757 125.446 503.728 125.359 503.669 125.202C503.604 125.045 503.491 124.818 503.32 124.545C502.977 123.998 502.339 123.271 501.346 122.649C500.365 122.003 499.035 121.515 497.54 121.16C496.045 120.794 494.366 120.544 492.694 119.974C491.016 119.427 489.503 118.683 488.197 117.892C486.896 117.095 485.809 116.246 484.958 115.478C484.101 114.711 483.475 114.024 483.043 113.542C482.848 113.315 482.689 113.123 482.559 112.977C482.446 112.85 482.387 112.786 482.381 112.791C482.375 112.797 482.423 112.873 482.523 113.007C482.624 113.14 482.771 113.35 482.972 113.6C483.38 114.1 483.995 114.809 484.846 115.6C485.691 116.391 486.778 117.258 488.084 118.072C489.396 118.88 490.921 119.642 492.617 120.189C494.307 120.765 495.998 121.015 497.481 121.363C498.97 121.701 500.282 122.166 501.251 122.782C502.238 123.381 502.877 124.073 503.237 124.597C503.604 125.12 503.728 125.458 503.751 125.446Z" fill="#455A64"/>
<path d="M502.529 126.213C502.529 126.213 502.546 125.858 502.292 125.282C502.044 124.712 501.471 123.956 500.502 123.369C499.538 122.758 498.203 122.438 496.749 122.212C495.289 121.996 493.693 121.706 492.11 121.112C490.526 120.519 489.09 119.769 487.884 118.937C486.678 118.112 485.686 117.239 484.917 116.448C484.137 115.663 483.605 114.948 483.221 114.465C483.056 114.233 482.914 114.041 482.808 113.89C482.713 113.762 482.654 113.692 482.648 113.698C482.642 113.703 482.683 113.779 482.766 113.913C482.867 114.07 482.991 114.273 483.144 114.518C483.505 115.018 484.025 115.756 484.799 116.559C485.561 117.367 486.548 118.263 487.76 119.106C488.965 119.955 490.419 120.723 492.021 121.322C493.622 121.927 495.248 122.217 496.707 122.415C498.161 122.624 499.467 122.927 500.413 123.503C501.364 124.055 501.944 124.776 502.204 125.317C502.481 125.87 502.499 126.218 502.529 126.213Z" fill="#455A64"/>
<path d="M497.845 134.144C497.839 134.115 498.212 134.039 498.844 133.83C499.476 133.608 500.357 133.155 501.196 132.312C502.047 131.48 502.762 130.224 503.223 128.729C503.684 127.234 503.903 125.501 503.814 123.692C503.767 122.791 503.637 121.919 503.412 121.093C503.182 120.273 502.875 119.511 502.52 118.807C501.794 117.417 500.878 116.307 500.003 115.492C498.249 113.852 496.842 113.242 496.884 113.178C496.89 113.166 496.972 113.207 497.138 113.282C497.297 113.364 497.54 113.474 497.829 113.649C498.42 113.986 499.241 114.527 500.145 115.347C501.049 116.155 502.001 117.272 502.757 118.691C503.123 119.4 503.448 120.186 503.684 121.023C503.915 121.866 504.051 122.762 504.098 123.681C504.186 125.519 503.956 127.281 503.471 128.805C502.986 130.328 502.224 131.608 501.332 132.451C500.451 133.306 499.523 133.742 498.867 133.934C498.542 134.045 498.277 134.068 498.099 134.109C497.94 134.144 497.845 134.155 497.845 134.144Z" fill="#455A64"/>
<path d="M511.506 146.618C509.402 145.438 505.968 145.403 505.968 145.403L499.266 144.949C499.266 144.949 495.968 150.189 490.968 150.172C485.968 150.148 485.188 146.903 485.188 146.903C485.188 146.903 476.831 148.846 472.369 154.202C478.048 158.215 484.567 160.797 492.8 160.442C500.158 160.343 509.461 156.621 515.111 149.875C515.117 149.881 513.811 147.909 511.506 146.618Z" fill="#0000CB"/>
<path d="M522.757 127.379C522.757 127.379 522.727 127.21 522.68 126.885C522.633 126.547 522.568 126.065 522.485 125.425C522.444 125.105 522.396 124.745 522.343 124.349C522.272 123.959 522.16 123.535 522.054 123.075C521.947 122.616 521.829 122.122 521.705 121.592C521.652 121.325 521.569 121.057 521.469 120.784C521.374 120.511 521.28 120.226 521.179 119.935C520.458 117.591 519.128 114.852 517.125 111.991C515.11 109.141 512.291 106.216 508.561 103.825C508.094 103.529 507.622 103.232 507.143 102.93C506.646 102.656 506.126 102.412 505.612 102.145C505.086 101.9 504.584 101.586 504.028 101.383C503.479 101.168 502.917 100.952 502.356 100.731C502.072 100.621 501.794 100.505 501.505 100.406C501.209 100.324 500.914 100.237 500.618 100.156C500.021 99.9869 499.424 99.8183 498.816 99.6496C498.207 99.4984 497.575 99.417 496.942 99.2949C496.31 99.2018 495.677 99.0274 495.021 99.0041C493.721 98.9111 492.397 98.7424 491.044 98.8296C490.37 98.8529 489.685 98.8355 489.005 98.8936C488.325 98.9751 487.64 99.0565 486.948 99.1437C486.605 99.1902 486.257 99.2135 485.908 99.2833C485.565 99.3589 485.222 99.4345 484.88 99.5101C484.194 99.673 483.491 99.8009 482.805 99.9928C481.458 100.458 480.051 100.83 478.733 101.482C478.396 101.627 478.065 101.778 477.728 101.93C477.563 102.005 477.391 102.075 477.226 102.156L476.741 102.43C476.097 102.79 475.447 103.157 474.797 103.529C474.165 103.924 473.562 104.378 472.935 104.803C472.628 105.024 472.303 105.221 472.013 105.471L471.144 106.21C469.939 107.152 468.904 108.304 467.823 109.414C467.338 110.019 466.854 110.63 466.363 111.241L465.997 111.7L465.672 112.189L465.027 113.177L464.377 114.172L463.822 115.224L463.266 116.283L462.988 116.812C462.905 116.992 462.835 117.184 462.758 117.365C462.456 118.109 462.155 118.853 461.853 119.604C461.629 120.377 461.398 121.157 461.168 121.936C460.37 125.088 460.063 128.391 460.252 131.724C460.535 135.05 461.315 138.284 462.556 141.291C462.893 142.029 463.23 142.768 463.567 143.507C463.975 144.204 464.377 144.902 464.778 145.594L465.086 146.112L465.434 146.6L466.132 147.572L466.829 148.537L467.615 149.433L468.395 150.323L468.785 150.765L469.217 151.166C469.79 151.707 470.357 152.242 470.925 152.771C472.16 153.719 473.348 154.713 474.672 155.481L475.641 156.092C475.96 156.295 476.315 156.447 476.646 156.621C477.325 156.958 477.987 157.319 478.667 157.627C479.364 157.9 480.062 158.174 480.753 158.441L481.267 158.645C481.445 158.703 481.622 158.75 481.799 158.802C482.154 158.901 482.508 159.005 482.863 159.104C484.258 159.57 485.706 159.744 487.107 160.017C487.816 160.11 488.525 160.14 489.228 160.203C489.583 160.233 489.932 160.262 490.28 160.291C490.629 160.314 490.978 160.285 491.326 160.285C492.024 160.273 492.715 160.262 493.401 160.244C494.086 160.209 494.76 160.093 495.428 160.023C496.781 159.924 498.064 159.57 499.34 159.296C499.985 159.186 500.582 158.924 501.196 158.744C501.799 158.534 502.42 158.366 502.999 158.133C503.572 157.877 504.145 157.627 504.707 157.383C504.991 157.261 505.268 157.133 505.552 157.011C505.818 156.865 506.084 156.714 506.35 156.569C506.876 156.272 507.396 155.981 507.916 155.69C508.442 155.411 508.891 155.033 509.376 154.719C509.849 154.388 510.327 154.068 510.777 153.73C511.208 153.364 511.634 153.003 512.053 152.649C515.404 149.764 517.78 146.478 519.364 143.378C520.936 140.267 521.864 137.371 522.243 134.951C522.302 134.649 522.355 134.358 522.408 134.073C522.467 133.788 522.514 133.515 522.526 133.241C522.574 132.701 522.615 132.195 522.656 131.724C522.692 131.252 522.745 130.822 522.763 130.421C522.757 130.025 522.751 129.665 522.751 129.339C522.745 128.699 522.739 128.211 522.739 127.868C522.751 127.548 522.757 127.379 522.757 127.379C522.757 127.379 522.769 127.548 522.781 127.879C522.792 128.217 522.804 128.711 522.828 129.351C522.84 129.676 522.845 130.037 522.857 130.438C522.851 130.84 522.798 131.27 522.769 131.747C522.733 132.218 522.692 132.73 522.65 133.271C522.639 133.544 522.597 133.823 522.538 134.108C522.485 134.393 522.432 134.69 522.378 134.992C522.018 137.423 521.102 140.342 519.541 143.477C517.963 146.6 515.587 149.921 512.219 152.835C511.793 153.195 511.368 153.562 510.936 153.928C510.481 154.271 510.002 154.591 509.524 154.928C509.039 155.248 508.584 155.632 508.058 155.911C507.538 156.202 507.012 156.499 506.486 156.801C506.22 156.952 505.954 157.098 505.682 157.249C505.398 157.371 505.115 157.499 504.831 157.627C504.264 157.877 503.69 158.133 503.111 158.389C502.526 158.627 501.905 158.802 501.297 159.011C500.676 159.197 500.073 159.459 499.423 159.575C498.135 159.849 496.84 160.209 495.481 160.314C494.807 160.384 494.128 160.5 493.436 160.541C492.745 160.552 492.047 160.57 491.344 160.581C490.995 160.581 490.641 160.611 490.286 160.587C489.932 160.558 489.583 160.529 489.222 160.506C488.513 160.442 487.798 160.413 487.083 160.32C485.664 160.046 484.205 159.872 482.798 159.407C482.443 159.308 482.083 159.203 481.728 159.104C481.551 159.052 481.368 159.005 481.191 158.947L480.67 158.744C479.973 158.47 479.27 158.197 478.566 157.924C477.875 157.615 477.207 157.249 476.522 156.912C476.185 156.732 475.83 156.58 475.505 156.377L474.53 155.76C473.188 154.987 471.989 153.986 470.742 153.027C470.168 152.486 469.595 151.951 469.016 151.404L468.584 150.997L468.188 150.549L467.397 149.648L466.605 148.747L465.895 147.769L465.186 146.787L464.832 146.292L464.524 145.769C464.117 145.065 463.709 144.367 463.295 143.658C462.958 142.913 462.615 142.169 462.273 141.424C461.02 138.383 460.234 135.12 459.944 131.759C459.749 128.397 460.063 125.053 460.866 121.872C461.097 121.087 461.327 120.302 461.558 119.516C461.865 118.76 462.167 118.01 462.468 117.26C462.545 117.074 462.616 116.882 462.699 116.702L462.976 116.167L463.538 115.096L464.099 114.032L464.755 113.026L465.412 112.026L465.742 111.531L466.115 111.066C466.611 110.45 467.102 109.833 467.592 109.223C468.692 108.1 469.732 106.943 470.949 105.989L471.83 105.245C472.12 104.994 472.451 104.797 472.758 104.576C473.39 104.145 473.999 103.692 474.637 103.29C475.293 102.918 475.949 102.552 476.605 102.185L477.096 101.912C477.261 101.831 477.439 101.761 477.604 101.685C477.947 101.534 478.284 101.389 478.621 101.237C479.951 100.58 481.369 100.208 482.734 99.7428C483.426 99.5508 484.135 99.4229 484.826 99.26C485.175 99.1844 485.518 99.1088 485.867 99.0332C486.215 98.9634 486.564 98.9402 486.913 98.8936C487.61 98.8122 488.302 98.7308 488.987 98.6494C489.673 98.5912 490.364 98.6086 491.044 98.5854C492.409 98.504 493.739 98.6784 495.051 98.7715C495.713 98.7947 496.345 98.9692 496.984 99.0681C497.616 99.1902 498.254 99.2774 498.869 99.4345C499.478 99.6089 500.086 99.7776 500.683 99.9521C500.985 100.039 501.28 100.121 501.576 100.208C501.865 100.313 502.149 100.429 502.433 100.539C503 100.76 503.561 100.981 504.117 101.202C504.678 101.412 505.181 101.72 505.713 101.976C506.233 102.243 506.753 102.494 507.249 102.773C507.728 103.081 508.207 103.383 508.68 103.68C512.426 106.099 515.257 109.059 517.267 111.932C519.264 114.817 520.588 117.58 521.291 119.941C521.392 120.232 521.486 120.517 521.575 120.79C521.675 121.063 521.758 121.331 521.805 121.604C521.924 122.133 522.036 122.633 522.142 123.099C522.243 123.564 522.349 123.989 522.42 124.378C522.467 124.774 522.509 125.134 522.544 125.454C522.615 126.094 522.668 126.577 522.71 126.92C522.751 127.21 522.757 127.379 522.757 127.379Z" fill="#263238"/>
<path d="M456.316 98.0579C456.776 85.16 446.524 74.337 433.417 73.8841C420.31 73.4311 409.311 83.5198 408.85 96.4177C408.39 109.316 418.642 120.139 431.749 120.592C444.857 121.044 455.855 110.956 456.316 98.0579Z" fill="white"/>
<path d="M427.602 109.223C427.603 107.769 427.604 106.553 427.598 106.402C427.598 106.402 422.599 105.937 422.248 101.063C422.078 98.7079 422.123 93.8282 422.22 89.4139C422.323 84.6738 426.109 80.8 430.914 80.5144L431.392 80.4853C436.563 80.4789 439.452 84.7999 439.313 89.8889L439.118 109L430.75 115.62L430.142 115.568L427.602 109.223Z" fill="#FFBF9D"/>
<path d="M427.553 106.405C427.553 106.405 430.691 106.399 433.894 104.148C433.894 104.148 432.535 107.807 427.564 107.655L427.553 106.405Z" fill="#FF9A6C"/>
<path d="M430.581 91.4981C430.676 91.597 431.255 91.155 432.082 91.1433C432.91 91.1201 433.524 91.5388 433.613 91.4341C433.654 91.3876 433.554 91.2073 433.288 91.0154C433.022 90.8235 432.579 90.6432 432.059 90.6548C431.544 90.6665 431.113 90.8642 430.865 91.0677C430.616 91.2713 430.534 91.4574 430.581 91.4981Z" fill="#263238"/>
<path d="M431.22 93.7609C431.226 94.1098 431.533 94.389 431.905 94.389C432.278 94.389 432.567 94.104 432.561 93.755C432.555 93.4061 432.248 93.1269 431.876 93.127C431.503 93.127 431.214 93.4119 431.22 93.7609Z" fill="#263238"/>
<path d="M428.489 97.1447C428.489 97.1039 428.011 97.0516 427.236 96.9993C427.041 96.9935 426.852 96.9644 426.811 96.8364C426.758 96.7027 426.823 96.4875 426.905 96.2607C427.059 95.7838 427.225 95.2894 427.39 94.7718C428.064 92.6491 428.537 90.9102 428.448 90.8811C428.359 90.8578 427.745 92.556 427.071 94.6788C426.911 95.2022 426.758 95.7024 426.61 96.1792C426.551 96.4002 426.439 96.6561 426.557 96.9353C426.616 97.0749 426.769 97.1679 426.894 97.197C427.024 97.2261 427.13 97.2203 427.224 97.2203C428.01 97.2145 428.489 97.1912 428.489 97.1447Z" fill="#263238"/>
<path d="M431.04 88.9131C431.117 89.0933 431.784 88.9654 432.576 89.0177C433.374 89.0526 434.024 89.2504 434.119 89.0759C434.16 88.9945 434.042 88.8258 433.77 88.663C433.504 88.5001 433.085 88.3489 432.612 88.3257C432.133 88.3024 431.708 88.4013 431.43 88.5408C431.14 88.6746 431.004 88.8258 431.04 88.9131Z" fill="#263238"/>
<path d="M423.248 89.3655C423.331 89.5168 423.981 89.3597 424.767 89.3423C425.553 89.3132 426.203 89.4353 426.286 89.2841C426.321 89.2085 426.197 89.0747 425.925 88.9584C425.653 88.8363 425.24 88.7432 424.767 88.7549C424.294 88.7665 423.88 88.8828 423.608 89.0224C423.336 89.1504 423.206 89.2958 423.248 89.3655Z" fill="#263238"/>
<path d="M439.13 93.5349C439.213 93.4942 442.475 92.3426 442.569 95.6809C442.664 99.0249 439.236 98.4259 439.23 98.3329C439.218 98.2398 439.13 93.5349 439.13 93.5349Z" fill="#FFBF9D"/>
<path d="M440.195 97.0408C440.207 97.0292 440.255 97.0815 440.355 97.1222C440.456 97.163 440.621 97.1862 440.798 97.1164C441.153 96.9768 441.437 96.4069 441.437 95.8079C441.437 95.5055 441.366 95.2147 441.247 94.9762C441.135 94.732 440.97 94.5691 440.792 94.54C440.609 94.5051 440.485 94.6157 440.45 94.7087C440.408 94.8018 440.432 94.8715 440.414 94.8774C440.402 94.8832 440.337 94.825 440.361 94.6854C440.373 94.6215 440.408 94.54 440.491 94.4703C440.568 94.4005 440.692 94.3656 440.816 94.3772C441.076 94.3888 441.318 94.6156 441.448 94.8774C441.59 95.1391 441.679 95.4589 441.679 95.8021C441.679 96.4767 441.342 97.1164 440.857 97.2676C440.621 97.3374 440.42 97.2676 440.314 97.192C440.201 97.1222 440.184 97.0466 440.195 97.0408Z" fill="#FF9A6C"/>
<path d="M429.517 100.008C429.481 99.9209 430.149 99.7348 430.622 99.13C430.859 98.8334 431 98.5019 431.101 98.2634C431.201 98.025 431.278 97.8738 431.314 97.8854C431.349 97.897 431.337 98.0599 431.278 98.3216C431.219 98.5833 431.095 98.9555 430.829 99.2928C430.563 99.6359 430.214 99.8395 429.954 99.9325C429.7 100.031 429.523 100.037 429.517 100.008Z" fill="#263238"/>
<path d="M443.686 88.1815C442.995 86.995 442.847 85.5875 442.481 84.2673C442.115 82.947 441.388 81.5744 440.082 81.1034L440.053 81.1151C438.883 80.6324 437.435 80.6092 436.46 81.4003C436.241 79.6613 434.717 78.2655 432.997 77.8004C431.284 77.3352 428.518 77.5622 426.857 78.1963C425.575 78.685 424.328 79.7088 422.809 81.2095C422.17 81.8435 421.579 82.524 421.047 83.2511L419.492 87.7821L420.745 90.1841C420.822 90.3469 420.898 90.5098 420.993 90.6726L420.993 90.661L422.085 95.7035C422.174 94.3309 422.14 89.5616 422.228 88.1948C424.38 88.1306 426.336 87.2988 427.796 85.7457C428.57 84.9256 429.179 83.8961 430.201 83.4132C431.519 82.7908 433.079 83.2734 434.456 83.7677L434.397 83.7154C435.112 84.0526 435.762 84.5237 436.294 85.0995C435.945 87.7924 436.198 90.5609 437.025 93.1549C437.149 93.5445 437.492 94.353 437.882 94.5042C438.638 94.8065 438.857 94.0446 439.318 93.6432C439.661 93.3466 440.163 93.3175 440.707 93.3233C441.038 92.4915 441.387 91.0956 441.682 89.8683C442.143 90.0137 442.628 90.0544 443.107 89.9787C442.965 89.6298 442.823 89.2866 442.681 88.9435C442.87 89.0656 443.065 89.1877 443.29 89.2226C443.514 89.2575 443.769 89.1819 443.869 88.9841C444.005 88.7224 443.834 88.4257 443.686 88.1815Z" fill="#263238"/>
<path d="M434.897 81.9355C434.885 81.9472 435.104 82.0693 435.387 82.3892C435.671 82.709 435.984 83.2674 436.126 84.0176C436.197 84.3898 436.244 84.8085 436.238 85.2563C436.233 85.7042 436.191 86.1869 436.15 86.6928C436.108 87.1988 436.067 87.7339 436.091 88.2922C436.102 88.5713 436.132 88.8505 436.191 89.1355C436.25 89.4146 436.321 89.717 436.528 89.9555C436.693 90.1532 436.977 90.2404 437.225 90.1939C437.474 90.1532 437.692 90.0253 437.858 89.8508C438.183 89.4902 438.265 89.0249 438.348 88.6178L438.242 88.6295C438.407 89.0017 438.579 89.3623 438.833 89.6589C439.081 89.9555 439.43 90.1532 439.79 90.1881C439.968 90.2055 440.151 90.1823 440.304 90.1067C440.464 90.0369 440.576 89.9089 440.653 89.7752C440.73 89.6414 440.771 89.4902 440.765 89.3448C440.76 89.1994 440.706 89.0598 440.612 88.9668L440.559 89.0133C440.937 89.4437 441.333 89.6821 441.611 89.8101C441.752 89.874 441.865 89.9147 441.936 89.938C442.012 89.9613 442.054 89.9729 442.054 89.9671C442.054 89.9613 442.018 89.9496 441.942 89.9206C441.871 89.8915 441.758 89.845 441.622 89.7752C441.356 89.6356 440.966 89.3971 440.606 88.9668L440.553 89.0133C440.718 89.1878 440.724 89.496 440.576 89.7403C440.505 89.8624 440.399 89.9729 440.257 90.0311C440.121 90.095 439.956 90.1183 439.796 90.1009C439.471 90.066 439.14 89.8799 438.91 89.6007C438.667 89.3215 438.508 88.9668 438.342 88.5946L438.271 88.4376L438.236 88.6062C438.153 89.0133 438.059 89.4553 437.769 89.781C437.621 89.938 437.42 90.0543 437.202 90.0892C436.983 90.1299 436.758 90.0543 436.611 89.8857C436.427 89.6763 436.357 89.3913 436.297 89.118C436.238 88.8447 436.209 88.5655 436.197 88.2922C436.167 87.7455 436.209 87.2162 436.25 86.7103C436.292 86.2043 436.327 85.7216 436.327 85.268C436.327 84.8143 436.28 84.3898 436.203 84.0118C436.049 83.2499 435.718 82.6858 435.417 82.3717C435.122 82.0402 434.897 81.9355 434.897 81.9355Z" fill="#455A64"/>
<path d="M419.533 86.492C419.533 86.492 419.545 86.5037 419.574 86.5269C419.61 86.5502 419.645 86.5793 419.699 86.62C419.752 86.6607 419.823 86.7072 419.905 86.7537C419.988 86.8003 420.089 86.8642 420.207 86.9108C420.662 87.1318 421.401 87.3527 422.323 87.312C423.239 87.2713 424.338 86.9689 425.325 86.2652C426.324 85.5789 427.204 84.5612 427.931 83.3864C428.298 82.799 428.599 82.2 428.93 81.6475C429.261 81.095 429.622 80.5832 430.053 80.1761C430.485 79.769 430.981 79.4724 431.489 79.3444C431.743 79.2746 431.998 79.2572 432.24 79.2688C432.482 79.2862 432.713 79.3386 432.926 79.4084C433.351 79.5538 433.694 79.7922 433.948 80.0307C434.208 80.2749 434.379 80.5308 434.498 80.7518C434.716 81.1996 434.728 81.4904 434.746 81.4846C434.746 81.4846 434.746 81.4671 434.74 81.4323C434.734 81.3915 434.728 81.345 434.716 81.281C434.693 81.1531 434.639 80.9612 434.533 80.7285C434.421 80.5017 434.249 80.2342 433.989 79.9841C433.729 79.7341 433.387 79.484 432.949 79.327C432.731 79.2514 432.494 79.1932 432.24 79.1758C431.986 79.1641 431.72 79.1758 431.454 79.2455C430.922 79.3793 430.408 79.6817 429.97 80.0946C429.521 80.5018 429.155 81.0252 428.818 81.5835C428.481 82.1418 428.18 82.7408 427.819 83.3224C427.098 84.4856 426.229 85.4917 425.254 86.1721C424.285 86.87 423.209 87.1783 422.311 87.2248C421.401 87.2771 420.68 87.0678 420.219 86.8642C419.764 86.6607 419.545 86.4746 419.533 86.492Z" fill="#455A64"/>
<path d="M423.052 91.7266C423.146 91.8255 423.726 91.3835 424.553 91.3719C425.38 91.3486 425.995 91.7673 426.084 91.6626C426.125 91.6161 426.025 91.4358 425.759 91.2439C425.493 91.052 425.049 90.8717 424.529 90.8833C424.015 90.895 423.584 91.0927 423.335 91.2963C423.087 91.494 423.004 91.6801 423.052 91.7266Z" fill="#263238"/>
<path d="M424.319 93.8527C424.325 94.2016 424.632 94.4808 425.004 94.4808C425.377 94.4808 425.666 94.1958 425.66 93.8468C425.654 93.4979 425.347 93.2187 424.975 93.2187C424.602 93.2187 424.307 93.5037 424.319 93.8527Z" fill="#263238"/>
<path d="M421.473 82.7012C421.054 83.2478 420.404 83.748 419.712 83.6724C419.505 83.6491 418.973 83.4572 418.973 83.4572C418.731 83.6026 418.79 84.4168 418.956 84.6436C419.121 84.8704 419.476 85.1729 419.476 85.1729C418.66 85.6032 417.921 85.388 417.053 85.0798C417.206 86.5338 418.211 87.8714 419.576 88.4355C420.014 88.6158 420.545 88.7146 420.941 88.4646C421.29 88.2436 421.438 87.8132 421.544 87.4177C421.934 85.958 422.141 84.4517 422.153 82.9396L421.473 82.7012Z" fill="#263238"/>
<path d="M448.861 111.048C447.288 109.862 444.499 109.455 444.499 109.455L439.103 108.355C439.103 108.355 435.835 112.258 431.774 111.694C427.714 111.13 427.448 108.408 427.448 108.408C427.448 108.408 419.771 109.658 415.539 113.526C419.7 117.405 424.304 119.952 431.035 120.569C437.028 121.29 445.108 118.347 450.462 112.624C450.456 112.618 450.58 112.345 448.861 111.048Z" fill="#455A64"/>
<path d="M456.269 98.7575C456.269 98.7575 456.258 98.6295 456.258 98.3794C456.258 98.1177 456.258 97.7455 456.258 97.2686C456.258 97.0244 456.258 96.751 456.264 96.4486C456.252 96.1462 456.205 95.8205 456.175 95.4657C456.11 94.7562 456.051 93.9362 455.838 93.0289C455.537 91.2028 454.822 89.0219 453.622 86.6781C452.41 84.346 450.602 81.8743 448.055 79.7167C445.519 77.5765 442.269 75.6805 438.427 74.7559C437.464 74.5581 436.495 74.2964 435.472 74.2266C434.964 74.1743 434.456 74.0929 433.942 74.0696C433.427 74.0638 432.901 74.058 432.381 74.0522C432.121 74.0522 431.855 74.0347 431.589 74.0522L430.797 74.122C430.266 74.1743 429.734 74.1976 429.196 74.2732C428.138 74.4826 427.05 74.6221 425.998 74.9769C424.923 75.2444 423.894 75.6923 422.842 76.1052C422.328 76.3378 421.832 76.617 421.324 76.8729C420.803 77.1171 420.325 77.4312 419.84 77.7452C418.841 78.3326 417.949 79.0829 417.027 79.804C416.182 80.6124 415.289 81.4034 414.545 82.3397C413.02 84.1601 411.654 86.2072 410.762 88.4986C409.84 90.7726 409.267 93.2152 409.066 95.7218C408.935 98.2342 409.184 100.729 409.792 103.102C410.377 105.487 411.459 107.691 412.73 109.697C413.344 110.721 414.124 111.616 414.857 112.529C415.679 113.361 416.465 114.228 417.375 114.931C417.812 115.309 418.249 115.676 418.728 115.984C419.201 116.304 419.656 116.641 420.135 116.938C421.122 117.484 422.079 118.06 423.113 118.461C424.106 118.95 425.17 119.223 426.193 119.566C426.713 119.706 427.239 119.805 427.759 119.921L428.533 120.09C428.793 120.142 429.059 120.154 429.313 120.189C429.833 120.247 430.353 120.311 430.867 120.369C431.382 120.41 431.896 120.392 432.404 120.41C433.427 120.468 434.419 120.334 435.406 120.264C439.337 119.834 442.812 118.374 445.607 116.571C448.415 114.751 450.531 112.535 452.044 110.377C453.545 108.208 454.544 106.138 455.081 104.364C455.412 103.497 455.578 102.689 455.738 101.991C455.814 101.642 455.903 101.322 455.956 101.026C455.992 100.729 456.027 100.456 456.063 100.211C456.128 99.7403 456.175 99.3739 456.21 99.1122C456.24 98.8854 456.269 98.7575 456.269 98.7575C456.269 98.7575 456.269 98.8854 456.246 99.1355C456.216 99.3972 456.181 99.7694 456.134 100.246C456.11 100.491 456.08 100.764 456.045 101.061C455.998 101.357 455.915 101.683 455.844 102.032C455.696 102.735 455.542 103.55 455.217 104.428C454.697 106.219 453.71 108.313 452.215 110.511C450.708 112.698 448.58 114.954 445.755 116.804C442.936 118.636 439.425 120.13 435.448 120.578C434.455 120.654 433.444 120.794 432.41 120.735C431.896 120.724 431.376 120.741 430.85 120.7C430.33 120.642 429.804 120.584 429.278 120.526C429.012 120.491 428.746 120.474 428.486 120.427L427.7 120.258C427.174 120.136 426.636 120.043 426.11 119.904C425.076 119.555 423.994 119.276 422.983 118.787C421.931 118.38 420.962 117.798 419.957 117.246C419.473 116.944 419.006 116.6 418.527 116.281C418.037 115.972 417.593 115.594 417.15 115.21C416.222 114.495 415.424 113.623 414.591 112.774C413.847 111.849 413.055 110.936 412.428 109.901C411.134 107.871 410.035 105.632 409.438 103.207C408.811 100.799 408.563 98.2633 408.693 95.7102C408.894 93.1629 409.479 90.6854 410.419 88.3765C411.329 86.0502 412.712 83.974 414.267 82.1245C415.029 81.1766 415.928 80.374 416.79 79.554C417.73 78.8212 418.634 78.0593 419.651 77.4661C420.141 77.1462 420.632 76.8322 421.158 76.5821C421.678 76.3204 422.18 76.0412 422.706 75.8086C423.776 75.3898 424.816 74.9362 425.91 74.6687C426.974 74.3139 428.085 74.1743 429.154 73.9591C429.698 73.8835 430.242 73.8603 430.78 73.8079L431.584 73.7381C431.849 73.7207 432.115 73.7381 432.381 73.7381C432.913 73.7439 433.439 73.7556 433.965 73.7614C434.485 73.7905 435.005 73.8719 435.514 73.9242C436.548 73.9998 437.529 74.2673 438.504 74.4709C442.393 75.4247 445.673 77.3497 448.226 79.5306C450.785 81.7289 452.6 84.2355 453.805 86.5967C454.999 88.9637 455.702 91.1679 455.98 93.0115C456.187 93.9246 456.228 94.7504 456.281 95.4657C456.305 95.8205 456.346 96.152 456.352 96.4544C456.346 96.7568 456.34 97.0302 456.329 97.2744C456.311 97.7513 456.305 98.1235 456.293 98.3853C456.287 98.6295 456.269 98.7575 456.269 98.7575Z" fill="#263238"/>
<path d="M237.297 179.492C260.854 179.491 279.951 160.7 279.951 137.519C279.951 114.338 260.855 95.5465 237.298 95.5467C213.741 95.5468 194.644 114.339 194.644 137.519C194.644 160.7 213.74 179.492 237.297 179.492Z" fill="#133F7D"/>
<path opacity="0.3" d="M237.297 179.492C260.854 179.491 279.951 160.7 279.951 137.519C279.951 114.338 260.855 95.5465 237.298 95.5467C213.741 95.5468 194.644 114.339 194.644 137.519C194.644 160.7 213.74 179.492 237.297 179.492Z" fill="black"/>
<path d="M236.146 176.81C259.702 176.81 278.799 158.018 278.8 134.837C278.8 111.657 259.704 92.8649 236.147 92.865C212.59 92.8651 193.493 111.657 193.493 134.838C193.492 158.018 212.589 176.81 236.146 176.81Z" fill="#133F7D"/>
<path d="M236.145 167.487C254.469 167.487 269.324 152.869 269.324 134.837C269.325 116.805 254.47 102.187 236.145 102.187C217.821 102.187 202.966 116.805 202.965 134.837C202.965 152.869 217.82 167.487 236.145 167.487Z" fill="white"/>
<path d="M252.654 151.081C261.771 142.11 261.771 127.565 252.654 118.594C243.538 109.623 228.756 109.623 219.64 118.594C210.523 127.565 210.522 142.11 219.639 151.081C228.756 160.053 243.537 160.053 252.654 151.081Z" fill="#133F7D"/>
<path d="M244.856 143.408C249.666 138.675 249.666 131.001 244.856 126.268C240.046 121.535 232.248 121.535 227.438 126.268C222.628 131.001 222.628 138.675 227.438 143.408C232.248 148.141 240.046 148.141 244.856 143.408Z" fill="white"/>
<path d="M269.143 100.838L267.984 91.8878L277.251 82.1289L277.913 91.7947L269.143 100.838Z" fill="#455A64"/>
<path d="M289.025 93.713L279.628 92.9628L270.213 101.878L279.634 102.867L289.025 93.713Z" fill="#455A64"/>
<path opacity="0.3" d="M236.147 135.542L271.165 110.866C270.06 109.237 268.287 107.097 266.721 105.457L236.726 133.995L236.147 135.542Z" fill="black"/>
<path d="M279.302 89.9275C277.837 91.3873 276.371 92.847 274.905 94.3068C271.388 97.8137 267.872 101.321 264.355 104.828C260.118 109.05 255.88 113.278 251.642 117.5C247.96 121.17 244.278 124.84 240.602 128.509C238.817 130.289 236.944 132.022 235.224 133.872C235.2 133.901 235.171 133.924 235.147 133.947C234.107 134.982 235.732 136.582 236.766 135.541C238.232 134.081 239.698 132.621 241.164 131.161C244.68 127.655 248.197 124.148 251.713 120.641C255.951 116.418 260.189 112.19 264.426 107.968C268.108 104.298 271.79 100.629 275.466 96.9588C277.251 95.1792 279.125 93.4461 280.845 91.5966C280.868 91.5676 280.898 91.5443 280.922 91.521C281.968 90.4858 280.342 88.8923 279.302 89.9275Z" fill="#263238"/>
<path d="M236.096 213.556L75.4824 185.521L75.4824 393.444L145.568 385.267L156.665 411.55L184.116 378.259L236.096 371.834L236.096 213.556Z" fill="#133F7D"/>
<path d="M70.2256 211.804L0.723633 198.955L0.723633 379.427L70.2256 368.914L70.2256 211.804Z" fill="#12B6BC"/>
<path d="M149.062 262.535C149.062 260.071 151.06 258.072 153.525 258.072L183.132 258.072C185.597 258.072 187.595 260.071 187.595 262.535L187.595 273.32C187.595 275.785 185.597 277.783 183.132 277.783L153.525 277.783C151.06 277.783 149.062 275.785 149.062 273.32L149.062 262.535Z" stroke="white" stroke-width="2"/>
<path d="M151.999 278.768C152.392 277.857 151.999 277.761 151.548 277.323L160.236 277.792C159.549 277.82 159.271 277.855 158.754 278.168L150.441 283.421C149.632 283.71 149.377 282.979 149.653 282.558L151.999 278.768Z" stroke="white" stroke-width="2"/>
<path d="M145.09 263.99L118.177 263.99C117.624 263.99 117.177 264.438 117.177 264.99L117.177 314.33C117.177 314.882 117.624 315.33 118.177 315.33L156.055 315.33M191.694 263.99L196.177 263.99C196.729 263.99 197.177 264.438 197.177 264.99L197.177 316.32C197.177 316.873 196.729 317.32 196.177 317.32L194.901 317.32" stroke="white" stroke-width="3"/>
<circle cx="176.388" cy="293.189" r="10.8144" stroke="white" stroke-width="2"/>
<circle cx="158.078" cy="267.953" r="1.96907" fill="white"/>
<circle cx="168.328" cy="267.953" r="1.96907" fill="white"/>
<circle cx="178.577" cy="267.953" r="1.96907" fill="white"/>
<circle cx="136.007" cy="282.779" r="6.87628" stroke="white" stroke-width="2"/>
<path d="M161.373 322.947C161.373 314.649 168.1 307.922 176.398 307.922C184.696 307.922 191.423 314.649 191.423 322.947L191.423 326.994C191.423 328.549 190.162 329.81 188.607 329.81L164.189 329.81C162.634 329.81 161.373 328.549 161.373 326.994L161.373 322.947Z" stroke="white" stroke-width="2"/>
<path d="M125.284 303.844C125.284 297.922 130.085 293.121 136.007 293.121C141.93 293.121 146.731 297.922 146.731 303.844L146.731 306.186C146.731 307.388 145.756 308.362 144.555 308.362L127.46 308.362C126.258 308.362 125.284 307.388 125.284 306.186L125.284 303.844Z" stroke="white" stroke-width="2"/>
<path d="M138.76 322.799C139.121 322.152 140.003 322.104 140.744 322.104L143.422 322.104C144.058 322.104 144.723 322.034 145.224 321.643C145.63 321.326 146.013 320.845 146.549 319.962C146.587 319.907 146.731 319.626 146.974 319.353C147.347 318.934 147.944 318.865 148.505 318.865L151.974 318.865C153.829 318.865 155.332 320.369 155.332 322.223C155.332 324.078 153.829 325.582 151.974 325.582L140.283 325.582C139.33 325.582 138.558 324.809 138.558 323.856C138.558 323.539 138.571 323.215 138.698 322.924C138.717 322.88 138.738 322.839 138.76 322.799Z" fill="white"/>
<defs>
<filter id="filter0_d_2127_76539" x="323.712" y="92.2988" width="151.146" height="147.867" filterUnits="userSpaceOnUse" color-interpolation-filters="sRGB">
<feFlood flood-opacity="0" result="BackgroundImageFix"/>
<feColorMatrix in="SourceAlpha" type="matrix" values="0 0 0 0 0 0 0 0 0 0 0 0 0 0 0 0 0 0 127 0" result="hardAlpha"/>
<feOffset dy="-4"/>
<feGaussianBlur stdDeviation="5"/>
<feComposite in2="hardAlpha" operator="out"/>
<feColorMatrix type="matrix" values="0 0 0 0 0 0 0 0 0 0 0 0 0 0 0 0 0 0 0.25 0"/>
<feBlend mode="normal" in2="BackgroundImageFix" result="effect1_dropShadow_2127_76539"/>
<feBlend mode="normal" in="SourceGraphic" in2="effect1_dropShadow_2127_76539" result="shape"/>
</filter>
</defs>
</svg>
