<svg width="636" height="342" viewBox="0 0 636 342" fill="none" xmlns="http://www.w3.org/2000/svg">
<g clip-path="url(#clip0_5009_4046)">
<g filter="url(#filter0_d_5009_4046)">
<path d="M69.0408 134.349L47.6328 97.2678L69.0408 60.1858L111.858 60.1858L133.269 97.2678L111.858 134.349L69.0408 134.349Z" fill="#F4FAFC"/>
</g>
<g filter="url(#filter1_d_5009_4046)">
<path d="M519.901 126.339L498.492 89.257L519.901 52.176L562.719 52.176L584.129 89.257L562.719 126.339L519.901 126.339Z" fill="#F4FAFC"/>
</g>
<g filter="url(#filter2_d_5009_4046)">
<path d="M589.123 79.363L576.789 57.999L589.123 36.636L613.791 36.636L626.126 57.999L613.791 79.363L589.123 79.363Z" fill="#F4FAFC"/>
</g>
<g filter="url(#filter3_d_5009_4046)">
<path d="M90.4512 325.325L78.1172 303.961L90.4512 282.598L115.119 282.598L127.454 303.961L115.119 325.325L90.4512 325.325Z" fill="#F4FAFC"/>
</g>
<path d="M158.461 201.742L120.781 136.475L158.461 71.2087L233.823 71.2087L271.506 136.475L233.823 201.742L158.461 201.742Z" fill="#01BBDC"/>
<path d="M38.6654 273.505L0.984375 208.239L38.6654 142.973L114.027 142.973L151.71 208.239L114.027 273.505L38.6654 273.505Z" fill="#0274B7"/>
<path d="M280.337 270.706L242.656 205.441L280.337 140.174L355.698 140.174L393.382 205.441L355.698 270.706L280.337 270.706Z" fill="#12B6BC"/>
<path d="M521.97 265.935L484.289 200.668L521.97 135.402L597.332 135.402L635.015 200.668L597.332 265.935L521.97 265.935Z" fill="#0075B6"/>
<path d="M400.242 198.452L362.562 133.185L400.242 67.9187L475.604 67.9187L513.287 133.185L475.604 198.452L400.242 198.452Z" fill="#133F7E"/>
<g filter="url(#filter4_d_5009_4046)">
<path d="M278.259 130.885L240.578 65.6188L278.259 0.351807L353.62 0.351807L391.304 65.6188L353.62 130.885L278.259 130.885Z" fill="#F4FAFC"/>
</g>
<g filter="url(#filter5_d_5009_4046)">
<path d="M402.58 338.327L364.898 273.06L402.58 207.793L477.941 207.793L515.624 273.06L477.941 338.327L402.58 338.327Z" fill="#F4FAFC"/>
</g>
<g filter="url(#filter6_d_5009_4046)">
<path d="M159.463 341.285L121.781 276.018L159.463 210.752L234.824 210.752L272.507 276.018L234.824 341.285L159.463 341.285Z" fill="#F4FAFC"/>
</g>
<path d="M39.4409 205.298L39.4409 191.174L36.2009 193.154L36.2009 189.962L39.4409 188.018L42.3929 188.018L42.3929 205.298L39.4409 205.298ZM52.5804 205.658C51.3564 205.658 50.2764 205.398 49.3404 204.878C48.4044 204.35 47.6724 203.618 47.1444 202.682C46.6244 201.746 46.3644 200.666 46.3644 199.442L46.3644 193.874C46.3644 192.65 46.6244 191.57 47.1444 190.634C47.6724 189.698 48.4044 188.97 49.3404 188.45C50.2764 187.922 51.3564 187.658 52.5804 187.658C53.8044 187.658 54.8804 187.922 55.8084 188.45C56.7444 188.97 57.4764 189.698 58.0044 190.634C58.5324 191.57 58.7964 192.65 58.7964 193.874L58.7964 199.442C58.7964 200.666 58.5324 201.746 58.0044 202.682C57.4764 203.618 56.7444 204.35 55.8084 204.878C54.8804 205.398 53.8044 205.658 52.5804 205.658ZM52.5804 202.91C53.1884 202.91 53.7404 202.766 54.2364 202.478C54.7324 202.182 55.1244 201.79 55.4124 201.302C55.7004 200.806 55.8444 200.254 55.8444 199.646L55.8444 193.658C55.8444 193.042 55.7004 192.49 55.4124 192.002C55.1244 191.506 54.7324 191.114 54.2364 190.826C53.7404 190.53 53.1884 190.382 52.5804 190.382C51.9724 190.382 51.4204 190.53 50.9244 190.826C50.4284 191.114 50.0364 191.506 49.7484 192.002C49.4604 192.49 49.3164 193.042 49.3164 193.658L49.3164 199.646C49.3164 200.254 49.4604 200.806 49.7484 201.302C50.0364 201.79 50.4284 202.182 50.9244 202.478C51.4204 202.766 51.9724 202.91 52.5804 202.91ZM65.7659 205.298L65.7659 188.018L68.3699 188.018L74.3459 200.258L80.3219 188.018L82.9259 188.018L82.9259 205.298L80.2259 205.298L80.2259 194.222L74.9219 205.298L73.7699 205.298L68.4779 194.222L68.4779 205.298L65.7659 205.298ZM94.6612 205.298L94.6612 199.058C94.6612 198.65 94.6332 198.198 94.5772 197.702C94.5212 197.206 94.3892 196.73 94.1812 196.274C93.9812 195.81 93.6772 195.43 93.2692 195.134C92.8692 194.838 92.3252 194.69 91.6372 194.69C91.2692 194.69 90.9052 194.75 90.5452 194.87C90.1852 194.99 89.8572 195.198 89.5612 195.494C89.2732 195.782 89.0412 196.182 88.8652 196.694C88.6892 197.198 88.6012 197.846 88.6012 198.638L86.8852 197.906C86.8852 196.802 87.0972 195.802 87.5212 194.906C87.9532 194.01 88.5852 193.298 89.4172 192.77C90.2492 192.234 91.2732 191.966 92.4892 191.966C93.4492 191.966 94.2412 192.126 94.8652 192.446C95.4892 192.766 95.9852 193.174 96.3532 193.67C96.7212 194.166 96.9932 194.694 97.1692 195.254C97.3452 195.814 97.4572 196.346 97.5052 196.85C97.5612 197.346 97.5892 197.75 97.5892 198.062L97.5892 205.298L94.6612 205.298ZM85.6732 205.298L85.6732 192.338L88.2532 192.338L88.2532 196.358L88.6012 196.358L88.6012 205.298L85.6732 205.298ZM108.381 202.082L108.381 197.786L104.085 197.786L104.085 195.518L108.381 195.518L108.381 191.234L110.649 191.234L110.649 195.518L114.921 195.518L114.921 197.786L110.649 197.786L110.649 202.082L108.381 202.082Z" fill="white"/>
<path d="M24.655 228.181L24.655 216.661L25.831 216.661L25.831 228.181L24.655 228.181ZM34.4694 228.181L34.4694 223.773C34.4694 223.293 34.424 222.853 34.3334 222.453C34.2427 222.048 34.096 221.696 33.8934 221.397C33.696 221.093 33.4374 220.858 33.1174 220.693C32.8027 220.528 32.4187 220.445 31.9654 220.445C31.5494 220.445 31.1814 220.517 30.8614 220.661C30.5467 220.805 30.28 221.013 30.0614 221.285C29.848 221.552 29.6854 221.877 29.5734 222.261C29.4614 222.645 29.4054 223.082 29.4054 223.573L28.5734 223.389C28.5734 222.504 28.728 221.76 29.0374 221.157C29.3467 220.554 29.7734 220.098 30.3174 219.789C30.8614 219.48 31.4854 219.325 32.1894 219.325C32.7067 219.325 33.1574 219.405 33.5414 219.565C33.9307 219.725 34.2587 219.941 34.5254 220.213C34.7974 220.485 35.016 220.797 35.1814 221.149C35.3467 221.496 35.4667 221.866 35.5414 222.261C35.616 222.65 35.6534 223.04 35.6534 223.429L35.6534 228.181L34.4694 228.181ZM28.2214 228.181L28.2214 219.541L29.2854 219.541L29.2854 221.669L29.4054 221.669L29.4054 228.181L28.2214 228.181ZM42.4334 228.181C41.948 228.282 41.468 228.322 40.9934 228.301C40.524 228.28 40.1027 228.178 39.7294 227.997C39.3614 227.816 39.0814 227.533 38.8894 227.149C38.7347 226.829 38.6494 226.506 38.6334 226.181C38.6227 225.85 38.6174 225.474 38.6174 225.053L38.6174 217.141L39.7854 217.141L39.7854 225.005C39.7854 225.368 39.788 225.672 39.7934 225.917C39.804 226.157 39.86 226.37 39.9614 226.557C40.1534 226.914 40.4574 227.128 40.8734 227.197C41.2947 227.266 41.8147 227.25 42.4334 227.149L42.4334 228.181ZM36.7694 220.549L36.7694 219.541L42.4334 219.541L42.4334 220.549L36.7694 220.549ZM47.4791 228.421C46.6365 228.421 45.9058 228.234 45.2871 227.861C44.6738 227.488 44.1965 226.962 43.8551 226.285C43.5138 225.608 43.3431 224.813 43.3431 223.901C43.3431 222.957 43.5111 222.141 43.8471 221.453C44.1831 220.765 44.6551 220.234 45.2631 219.861C45.8765 219.488 46.5991 219.301 47.4311 219.301C48.2845 219.301 49.0125 219.498 49.6151 219.893C50.2178 220.282 50.6738 220.842 50.9831 221.573C51.2925 222.304 51.4338 223.176 51.4071 224.189L50.2071 224.189L50.2071 223.773C50.1858 222.653 49.9431 221.808 49.4791 221.237C49.0205 220.666 48.3485 220.381 47.4631 220.381C46.5351 220.381 45.8231 220.682 45.3271 221.285C44.8365 221.888 44.5911 222.746 44.5911 223.861C44.5911 224.949 44.8365 225.794 45.3271 226.397C45.8231 226.994 46.5245 227.293 47.4311 227.293C48.0498 227.293 48.5885 227.152 49.0471 226.869C49.5111 226.581 49.8765 226.168 50.1431 225.629L51.2391 226.053C50.8978 226.805 50.3938 227.389 49.7271 227.805C49.0658 228.216 48.3165 228.421 47.4791 228.421ZM44.1751 224.189L44.1751 223.205L50.7751 223.205L50.7751 224.189L44.1751 224.189ZM53.1825 228.181L53.1825 219.541L54.2385 219.541L54.2385 221.621L54.0305 221.349C54.1265 221.093 54.2518 220.858 54.4065 220.645C54.5612 220.426 54.7292 220.248 54.9105 220.109C55.1345 219.912 55.3958 219.762 55.6945 219.661C55.9932 219.554 56.2945 219.493 56.5985 219.477C56.9025 219.456 57.1798 219.477 57.4305 219.541L57.4305 220.645C57.1158 220.565 56.7718 220.546 56.3985 220.589C56.0252 220.632 55.6812 220.781 55.3665 221.037C55.0785 221.261 54.8625 221.53 54.7185 221.845C54.5745 222.154 54.4785 222.485 54.4305 222.837C54.3825 223.184 54.3585 223.528 54.3585 223.869L54.3585 228.181L53.1825 228.181ZM61.2841 228.181L58.1481 219.541L59.3401 219.541L61.8921 226.645L64.4281 219.541L65.6361 219.541L62.5001 228.181L61.2841 228.181ZM67.2331 217.901L67.2331 216.581L68.4091 216.581L68.4091 217.901L67.2331 217.901ZM67.2331 228.181L67.2331 219.541L68.4091 219.541L68.4091 228.181L67.2331 228.181ZM74.4635 228.421C73.6208 228.421 72.8902 228.234 72.2715 227.861C71.6582 227.488 71.1808 226.962 70.8395 226.285C70.4982 225.608 70.3275 224.813 70.3275 223.901C70.3275 222.957 70.4955 222.141 70.8315 221.453C71.1675 220.765 71.6395 220.234 72.2475 219.861C72.8608 219.488 73.5835 219.301 74.4155 219.301C75.2688 219.301 75.9968 219.498 76.5995 219.893C77.2022 220.282 77.6582 220.842 77.9675 221.573C78.2768 222.304 78.4182 223.176 78.3915 224.189L77.1915 224.189L77.1915 223.773C77.1702 222.653 76.9275 221.808 76.4635 221.237C76.0048 220.666 75.3328 220.381 74.4475 220.381C73.5195 220.381 72.8075 220.682 72.3115 221.285C71.8208 221.888 71.5755 222.746 71.5755 223.861C71.5755 224.949 71.8208 225.794 72.3115 226.397C72.8075 226.994 73.5088 227.293 74.4155 227.293C75.0342 227.293 75.5728 227.152 76.0315 226.869C76.4955 226.581 76.8608 226.168 77.1275 225.629L78.2235 226.053C77.8822 226.805 77.3782 227.389 76.7115 227.805C76.0502 228.216 75.3008 228.421 74.4635 228.421ZM71.1595 224.189L71.1595 223.205L77.7595 223.205L77.7595 224.189L71.1595 224.189ZM81.6944 228.181L79.0544 219.533L80.2304 219.541L82.2784 226.253L84.3344 219.541L85.4064 219.541L87.4624 226.253L89.5264 219.541L90.6944 219.541L88.0544 228.181L87.0304 228.181L84.8704 221.301L82.7184 228.181L81.6944 228.181ZM95.3388 228.181L95.3388 216.661L96.4188 216.661L100.947 226.349L105.451 216.661L106.547 216.661L106.547 228.173L105.427 228.173L105.427 219.285L101.323 228.181L100.563 228.181L96.4668 219.285L96.4668 228.181L95.3388 228.181ZM108.952 217.901L108.952 216.581L110.128 216.581L110.128 217.901L108.952 217.901ZM108.952 228.181L108.952 219.541L110.128 219.541L110.128 228.181L108.952 228.181ZM118.766 228.181L118.766 223.773C118.766 223.293 118.721 222.853 118.63 222.453C118.54 222.048 118.393 221.696 118.19 221.397C117.993 221.093 117.734 220.858 117.414 220.693C117.1 220.528 116.716 220.445 116.262 220.445C115.846 220.445 115.478 220.517 115.158 220.661C114.844 220.805 114.577 221.013 114.358 221.285C114.145 221.552 113.982 221.877 113.87 222.261C113.758 222.645 113.702 223.082 113.702 223.573L112.87 223.389C112.87 222.504 113.025 221.76 113.334 221.157C113.644 220.554 114.07 220.098 114.614 219.789C115.158 219.48 115.782 219.325 116.486 219.325C117.004 219.325 117.454 219.405 117.838 219.565C118.228 219.725 118.556 219.941 118.822 220.213C119.094 220.485 119.313 220.797 119.478 221.149C119.644 221.496 119.764 221.866 119.838 222.261C119.913 222.65 119.95 223.04 119.95 223.429L119.95 228.181L118.766 228.181ZM112.518 228.181L112.518 219.541L113.582 219.541L113.582 221.669L113.702 221.669L113.702 228.181L112.518 228.181ZM125.25 228.413C124.237 228.413 123.402 228.194 122.746 227.757C122.096 227.32 121.696 226.712 121.546 225.933L122.746 225.733C122.874 226.224 123.165 226.616 123.618 226.909C124.077 227.197 124.642 227.341 125.314 227.341C125.97 227.341 126.488 227.205 126.866 226.933C127.245 226.656 127.434 226.28 127.434 225.805C127.434 225.538 127.373 225.322 127.25 225.157C127.133 224.986 126.89 224.829 126.522 224.685C126.154 224.541 125.605 224.37 124.874 224.173C124.09 223.96 123.477 223.746 123.034 223.533C122.592 223.32 122.277 223.074 122.09 222.797C121.904 222.514 121.81 222.17 121.81 221.765C121.81 221.274 121.949 220.845 122.226 220.477C122.504 220.104 122.888 219.816 123.378 219.613C123.869 219.405 124.44 219.301 125.09 219.301C125.741 219.301 126.322 219.408 126.834 219.621C127.352 219.829 127.768 220.122 128.082 220.501C128.397 220.88 128.584 221.32 128.642 221.821L127.442 222.037C127.362 221.53 127.109 221.13 126.682 220.837C126.261 220.538 125.725 220.384 125.074 220.373C124.461 220.357 123.962 220.474 123.578 220.725C123.194 220.97 123.002 221.298 123.002 221.709C123.002 221.938 123.072 222.136 123.21 222.301C123.349 222.461 123.6 222.613 123.962 222.757C124.33 222.901 124.853 223.058 125.53 223.229C126.325 223.432 126.949 223.645 127.402 223.869C127.856 224.093 128.178 224.357 128.37 224.661C128.562 224.965 128.658 225.341 128.658 225.789C128.658 226.605 128.354 227.248 127.746 227.717C127.144 228.181 126.312 228.413 125.25 228.413Z" fill="white"/>
<path d="M169.314 131.712L169.314 129.192L176.706 122.604C177.282 122.092 177.682 121.608 177.906 121.152C178.13 120.696 178.242 120.256 178.242 119.832C178.242 119.256 178.118 118.744 177.87 118.296C177.622 117.84 177.278 117.48 176.838 117.216C176.406 116.952 175.906 116.82 175.338 116.82C174.738 116.82 174.206 116.96 173.742 117.24C173.286 117.512 172.93 117.876 172.674 118.332C172.418 118.788 172.298 119.28 172.314 119.808L169.338 119.808C169.338 118.656 169.594 117.652 170.106 116.796C170.626 115.94 171.338 115.276 172.242 114.804C173.154 114.332 174.206 114.096 175.398 114.096C176.502 114.096 177.494 114.344 178.374 114.84C179.254 115.328 179.946 116.008 180.45 116.88C180.954 117.744 181.206 118.74 181.206 119.868C181.206 120.692 181.094 121.384 180.87 121.944C180.646 122.504 180.31 123.02 179.862 123.492C179.422 123.964 178.874 124.488 178.218 125.064L172.974 129.708L172.71 128.988L181.206 128.988L181.206 131.712L169.314 131.712ZM188.615 132.096C187.735 132.096 186.915 131.916 186.155 131.556C185.395 131.188 184.739 130.684 184.187 130.044C183.643 129.404 183.251 128.66 183.011 127.812L185.795 127.068C185.907 127.532 186.111 127.932 186.407 128.268C186.711 128.604 187.063 128.864 187.463 129.048C187.871 129.232 188.291 129.324 188.723 129.324C189.283 129.324 189.795 129.188 190.259 128.916C190.723 128.644 191.091 128.28 191.363 127.824C191.635 127.36 191.771 126.848 191.771 126.288C191.771 125.728 191.631 125.22 191.351 124.764C191.079 124.3 190.711 123.936 190.247 123.672C189.783 123.4 189.275 123.264 188.723 123.264C188.059 123.264 187.507 123.384 187.067 123.624C186.635 123.864 186.303 124.12 186.071 124.392L183.599 123.6L184.127 114.456L193.511 114.456L193.511 117.168L185.675 117.168L186.755 116.148L186.371 122.508L185.843 121.86C186.291 121.452 186.811 121.148 187.403 120.948C187.995 120.748 188.567 120.648 189.119 120.648C190.199 120.648 191.155 120.896 191.987 121.392C192.827 121.88 193.483 122.548 193.955 123.396C194.435 124.244 194.675 125.208 194.675 126.288C194.675 127.368 194.395 128.348 193.835 129.228C193.275 130.1 192.535 130.796 191.615 131.316C190.703 131.836 189.703 132.096 188.615 132.096ZM203.169 132.096C201.945 132.096 200.865 131.836 199.929 131.316C198.993 130.788 198.261 130.056 197.733 129.12C197.213 128.184 196.953 127.104 196.953 125.88L196.953 120.312C196.953 119.088 197.213 118.008 197.733 117.072C198.261 116.136 198.993 115.408 199.929 114.888C200.865 114.36 201.945 114.096 203.169 114.096C204.393 114.096 205.469 114.36 206.397 114.888C207.333 115.408 208.065 116.136 208.593 117.072C209.121 118.008 209.385 119.088 209.385 120.312L209.385 125.88C209.385 127.104 209.121 128.184 208.593 129.12C208.065 130.056 207.333 130.788 206.397 131.316C205.469 131.836 204.393 132.096 203.169 132.096ZM203.169 129.348C203.777 129.348 204.329 129.204 204.825 128.916C205.321 128.62 205.713 128.228 206.001 127.74C206.289 127.244 206.433 126.692 206.433 126.084L206.433 120.096C206.433 119.48 206.289 118.928 206.001 118.44C205.713 117.944 205.321 117.552 204.825 117.264C204.329 116.968 203.777 116.82 203.169 116.82C202.561 116.82 202.009 116.968 201.513 117.264C201.017 117.552 200.625 117.944 200.337 118.44C200.049 118.928 199.905 119.48 199.905 120.096L199.905 126.084C199.905 126.692 200.049 127.244 200.337 127.74C200.625 128.228 201.017 128.62 201.513 128.916C202.009 129.204 202.561 129.348 203.169 129.348ZM216.206 128.52L216.206 124.224L211.91 124.224L211.91 121.956L216.206 121.956L216.206 117.672L218.474 117.672L218.474 121.956L222.746 121.956L222.746 124.224L218.474 124.224L218.474 128.52L216.206 128.52Z" fill="white"/>
<path d="M147.593 157.475L147.593 145.784L143.066 145.784L143.066 144.515L153.443 144.515L153.443 145.784L148.916 145.784L148.916 157.475L147.593 157.475ZM157.108 157.745C156.16 157.745 155.338 157.535 154.642 157.115C153.952 156.695 153.415 156.104 153.031 155.342C152.647 154.58 152.455 153.686 152.455 152.66C152.455 151.598 152.644 150.68 153.022 149.906C153.4 149.132 153.931 148.535 154.615 148.115C155.305 147.695 156.118 147.485 157.054 147.485C158.014 147.485 158.833 147.707 159.511 148.151C160.189 148.589 160.702 149.219 161.05 150.041C161.398 150.863 161.557 151.844 161.527 152.984L160.177 152.984L160.177 152.516C160.153 151.256 159.88 150.305 159.358 149.663C158.842 149.021 158.086 148.7 157.09 148.7C156.046 148.7 155.245 149.039 154.687 149.717C154.135 150.395 153.859 151.361 153.859 152.615C153.859 153.839 154.135 154.79 154.687 155.468C155.245 156.14 156.034 156.476 157.054 156.476C157.75 156.476 158.356 156.317 158.872 155.999C159.394 155.675 159.805 155.21 160.105 154.604L161.338 155.081C160.954 155.927 160.387 156.584 159.637 157.052C158.893 157.514 158.05 157.745 157.108 157.745ZM153.391 152.984L153.391 151.877L160.816 151.877L160.816 152.984L153.391 152.984ZM167.107 157.745C166.129 157.745 165.301 157.526 164.623 157.088C163.945 156.65 163.429 156.047 163.075 155.279C162.727 154.505 162.547 153.617 162.535 152.615C162.547 151.595 162.733 150.701 163.093 149.933C163.453 149.159 163.972 148.559 164.65 148.133C165.328 147.701 166.15 147.485 167.116 147.485C168.1 147.485 168.955 147.725 169.681 148.205C170.413 148.685 170.914 149.342 171.184 150.176L169.888 150.59C169.66 150.008 169.297 149.558 168.799 149.24C168.307 148.916 167.743 148.754 167.107 148.754C166.393 148.754 165.802 148.919 165.334 149.249C164.866 149.573 164.518 150.026 164.29 150.608C164.062 151.19 163.945 151.859 163.939 152.615C163.951 153.779 164.221 154.715 164.749 155.423C165.277 156.125 166.063 156.476 167.107 156.476C167.767 156.476 168.328 156.326 168.79 156.026C169.258 155.72 169.612 155.276 169.852 154.694L171.184 155.09C170.824 155.954 170.296 156.614 169.6 157.07C168.904 157.52 168.073 157.745 167.107 157.745ZM179.611 157.475L179.611 152.516C179.611 151.976 179.56 151.481 179.458 151.031C179.356 150.575 179.191 150.179 178.963 149.843C178.741 149.501 178.45 149.237 178.09 149.051C177.736 148.865 177.304 148.772 176.794 148.772C176.326 148.772 175.912 148.853 175.552 149.015C175.198 149.177 174.898 149.411 174.652 149.717C174.412 150.017 174.229 150.383 174.103 150.815C173.977 151.247 173.914 151.739 173.914 152.291L172.978 152.084C172.978 151.088 173.152 150.251 173.5 149.573C173.848 148.895 174.328 148.382 174.94 148.034C175.552 147.686 176.254 147.512 177.046 147.512C177.628 147.512 178.135 147.602 178.567 147.782C179.005 147.962 179.374 148.205 179.674 148.511C179.98 148.817 180.226 149.168 180.412 149.564C180.598 149.954 180.733 150.371 180.817 150.815C180.901 151.253 180.943 151.691 180.943 152.129L180.943 157.475L179.611 157.475ZM172.582 157.475L172.582 144.515L173.779 144.515L173.779 151.832L173.914 151.832L173.914 157.475L172.582 157.475ZM189.849 157.475L189.849 152.516C189.849 151.976 189.798 151.481 189.696 151.031C189.594 150.575 189.429 150.179 189.201 149.843C188.979 149.501 188.688 149.237 188.328 149.051C187.974 148.865 187.542 148.772 187.032 148.772C186.564 148.772 186.15 148.853 185.79 149.015C185.436 149.177 185.136 149.411 184.89 149.717C184.65 150.017 184.467 150.383 184.341 150.815C184.215 151.247 184.152 151.739 184.152 152.291L183.216 152.084C183.216 151.088 183.39 150.251 183.738 149.573C184.086 148.895 184.566 148.382 185.178 148.034C185.79 147.686 186.492 147.512 187.284 147.512C187.866 147.512 188.373 147.602 188.805 147.782C189.243 147.962 189.612 148.205 189.912 148.511C190.218 148.817 190.464 149.168 190.65 149.564C190.836 149.954 190.971 150.371 191.055 150.815C191.139 151.253 191.181 151.691 191.181 152.129L191.181 157.475L189.849 157.475ZM182.82 157.475L182.82 147.755L184.017 147.755L184.017 150.149L184.152 150.149L184.152 157.475L182.82 157.475ZM197.073 157.745C196.107 157.745 195.282 157.526 194.598 157.088C193.914 156.65 193.389 156.044 193.023 155.27C192.657 154.496 192.474 153.608 192.474 152.606C192.474 151.586 192.66 150.692 193.032 149.924C193.404 149.156 193.932 148.559 194.616 148.133C195.306 147.701 196.125 147.485 197.073 147.485C198.045 147.485 198.873 147.704 199.557 148.142C200.247 148.574 200.772 149.177 201.132 149.951C201.498 150.719 201.681 151.604 201.681 152.606C201.681 153.626 201.498 154.523 201.132 155.297C200.766 156.065 200.238 156.665 199.548 157.097C198.858 157.529 198.033 157.745 197.073 157.745ZM197.073 156.476C198.153 156.476 198.957 156.119 199.485 155.405C200.013 154.685 200.277 153.752 200.277 152.606C200.277 151.43 200.01 150.494 199.476 149.798C198.948 149.102 198.147 148.754 197.073 148.754C196.347 148.754 195.747 148.919 195.273 149.249C194.805 149.573 194.454 150.026 194.22 150.608C193.992 151.184 193.878 151.85 193.878 152.606C193.878 153.776 194.148 154.715 194.688 155.423C195.228 156.125 196.023 156.476 197.073 156.476ZM203.396 157.475L203.396 144.245L204.719 144.245L204.719 157.475L203.396 157.475ZM211.026 157.745C210.06 157.745 209.235 157.526 208.551 157.088C207.867 156.65 207.342 156.044 206.976 155.27C206.61 154.496 206.427 153.608 206.427 152.606C206.427 151.586 206.613 150.692 206.985 149.924C207.357 149.156 207.885 148.559 208.569 148.133C209.259 147.701 210.078 147.485 211.026 147.485C211.998 147.485 212.826 147.704 213.51 148.142C214.2 148.574 214.725 149.177 215.085 149.951C215.451 150.719 215.634 151.604 215.634 152.606C215.634 153.626 215.451 154.523 215.085 155.297C214.719 156.065 214.191 156.665 213.501 157.097C212.811 157.529 211.986 157.745 211.026 157.745ZM211.026 156.476C212.106 156.476 212.91 156.119 213.438 155.405C213.966 154.685 214.23 153.752 214.23 152.606C214.23 151.43 213.963 150.494 213.429 149.798C212.901 149.102 212.1 148.754 211.026 148.754C210.3 148.754 209.7 148.919 209.226 149.249C208.758 149.573 208.407 150.026 208.173 150.608C207.945 151.184 207.831 151.85 207.831 152.606C207.831 153.776 208.101 154.715 208.641 155.423C209.181 156.125 209.976 156.476 211.026 156.476ZM221.031 162.065C220.533 162.065 220.041 161.99 219.555 161.84C219.075 161.696 218.631 161.465 218.223 161.147C217.815 160.835 217.473 160.427 217.197 159.923L218.394 159.257C218.664 159.797 219.042 160.184 219.528 160.418C220.02 160.658 220.521 160.778 221.031 160.778C221.733 160.778 222.3 160.646 222.732 160.382C223.17 160.124 223.488 159.74 223.686 159.23C223.884 158.72 223.98 158.084 223.974 157.322L223.974 154.73L224.127 154.73L224.127 147.755L225.306 147.755L225.306 157.34C225.306 157.616 225.297 157.88 225.279 158.132C225.267 158.39 225.24 158.642 225.198 158.888C225.084 159.614 224.847 160.211 224.487 160.679C224.133 161.147 223.665 161.495 223.083 161.723C222.507 161.951 221.823 162.065 221.031 162.065ZM220.941 157.745C220.035 157.745 219.261 157.52 218.619 157.07C217.977 156.614 217.485 155.999 217.143 155.225C216.801 154.451 216.63 153.578 216.63 152.606C216.63 151.64 216.798 150.77 217.134 149.996C217.476 149.222 217.965 148.61 218.601 148.16C219.237 147.71 219.999 147.485 220.887 147.485C221.799 147.485 222.567 147.707 223.191 148.151C223.815 148.595 224.286 149.204 224.604 149.978C224.928 150.746 225.09 151.622 225.09 152.606C225.09 153.572 224.931 154.445 224.613 155.225C224.295 155.999 223.827 156.614 223.209 157.07C222.591 157.52 221.835 157.745 220.941 157.745ZM221.076 156.512C221.766 156.512 222.336 156.344 222.786 156.008C223.236 155.672 223.572 155.21 223.794 154.622C224.016 154.028 224.127 153.356 224.127 152.606C224.127 151.844 224.016 151.172 223.794 150.59C223.572 150.002 223.236 149.543 222.786 149.213C222.342 148.883 221.781 148.718 221.103 148.718C220.407 148.718 219.831 148.889 219.375 149.231C218.919 149.573 218.58 150.038 218.358 150.626C218.142 151.214 218.034 151.874 218.034 152.606C218.034 153.344 218.145 154.01 218.367 154.604C218.595 155.192 218.934 155.657 219.384 155.999C219.834 156.341 220.398 156.512 221.076 156.512ZM227.552 145.91L227.552 144.425L228.875 144.425L228.875 145.91L227.552 145.91ZM227.552 157.475L227.552 147.755L228.875 147.755L228.875 157.475L227.552 157.475ZM235.236 157.745C234.288 157.745 233.466 157.535 232.77 157.115C232.08 156.695 231.543 156.104 231.159 155.342C230.775 154.58 230.583 153.686 230.583 152.66C230.583 151.598 230.772 150.68 231.15 149.906C231.528 149.132 232.059 148.535 232.743 148.115C233.433 147.695 234.246 147.485 235.182 147.485C236.142 147.485 236.961 147.707 237.639 148.151C238.317 148.589 238.83 149.219 239.178 150.041C239.526 150.863 239.685 151.844 239.655 152.984L238.305 152.984L238.305 152.516C238.281 151.256 238.008 150.305 237.486 149.663C236.97 149.021 236.214 148.7 235.218 148.7C234.174 148.7 233.373 149.039 232.815 149.717C232.263 150.395 231.987 151.361 231.987 152.615C231.987 153.839 232.263 154.79 232.815 155.468C233.373 156.14 234.162 156.476 235.182 156.476C235.878 156.476 236.484 156.317 237 155.999C237.522 155.675 237.933 155.21 238.233 154.604L239.466 155.081C239.082 155.927 238.515 156.584 237.765 157.052C237.021 157.514 236.178 157.745 235.236 157.745ZM231.519 152.984L231.519 151.877L238.944 151.877L238.944 152.984L231.519 152.984ZM244.829 157.736C243.689 157.736 242.75 157.49 242.012 156.998C241.28 156.506 240.83 155.822 240.662 154.946L242.012 154.721C242.156 155.273 242.483 155.714 242.993 156.044C243.509 156.368 244.145 156.53 244.901 156.53C245.639 156.53 246.221 156.377 246.647 156.071C247.073 155.759 247.286 155.336 247.286 154.802C247.286 154.502 247.217 154.259 247.079 154.073C246.947 153.881 246.674 153.704 246.26 153.542C245.846 153.38 245.228 153.188 244.406 152.966C243.524 152.726 242.834 152.486 242.336 152.246C241.838 152.006 241.484 151.73 241.274 151.418C241.064 151.1 240.959 150.713 240.959 150.257C240.959 149.705 241.115 149.222 241.427 148.808C241.739 148.388 242.171 148.064 242.723 147.836C243.275 147.602 243.917 147.485 244.649 147.485C245.381 147.485 246.035 147.605 246.611 147.845C247.193 148.079 247.661 148.409 248.015 148.835C248.369 149.261 248.579 149.756 248.645 150.32L247.295 150.563C247.205 149.993 246.92 149.543 246.44 149.213C245.966 148.877 245.363 148.703 244.631 148.691C243.941 148.673 243.38 148.805 242.948 149.087C242.516 149.363 242.3 149.732 242.3 150.194C242.3 150.452 242.378 150.674 242.534 150.86C242.69 151.04 242.972 151.211 243.38 151.373C243.794 151.535 244.382 151.712 245.144 151.904C246.038 152.132 246.74 152.372 247.25 152.624C247.76 152.876 248.123 153.173 248.339 153.515C248.555 153.857 248.663 154.28 248.663 154.784C248.663 155.702 248.321 156.425 247.637 156.953C246.959 157.475 246.023 157.736 244.829 157.736Z" fill="white"/>
<path d="M296.041 201.06C295.161 201.06 294.341 200.88 293.581 200.52C292.821 200.152 292.165 199.648 291.613 199.008C291.069 198.368 290.677 197.624 290.437 196.776L293.221 196.032C293.333 196.496 293.537 196.896 293.833 197.232C294.137 197.568 294.489 197.828 294.889 198.012C295.297 198.196 295.717 198.288 296.149 198.288C296.709 198.288 297.221 198.152 297.685 197.88C298.149 197.608 298.517 197.244 298.789 196.788C299.061 196.324 299.197 195.812 299.197 195.252C299.197 194.692 299.057 194.184 298.777 193.728C298.505 193.264 298.137 192.9 297.673 192.636C297.209 192.364 296.701 192.228 296.149 192.228C295.485 192.228 294.933 192.348 294.493 192.588C294.061 192.828 293.729 193.084 293.497 193.356L291.025 192.564L291.553 183.42L300.937 183.42L300.937 186.132L293.101 186.132L294.181 185.112L293.797 191.472L293.269 190.824C293.717 190.416 294.237 190.112 294.829 189.912C295.421 189.712 295.993 189.612 296.545 189.612C297.625 189.612 298.581 189.86 299.413 190.356C300.253 190.844 300.909 191.512 301.381 192.36C301.861 193.208 302.101 194.172 302.101 195.252C302.101 196.332 301.821 197.312 301.261 198.192C300.701 199.064 299.961 199.76 299.041 200.28C298.129 200.8 297.129 201.06 296.041 201.06ZM310.596 201.06C309.372 201.06 308.292 200.8 307.356 200.28C306.42 199.752 305.688 199.02 305.16 198.084C304.64 197.148 304.38 196.068 304.38 194.844L304.38 189.276C304.38 188.052 304.64 186.972 305.16 186.036C305.688 185.1 306.42 184.372 307.356 183.852C308.292 183.324 309.372 183.06 310.596 183.06C311.82 183.06 312.896 183.324 313.824 183.852C314.76 184.372 315.492 185.1 316.02 186.036C316.548 186.972 316.812 188.052 316.812 189.276L316.812 194.844C316.812 196.068 316.548 197.148 316.02 198.084C315.492 199.02 314.76 199.752 313.824 200.28C312.896 200.8 311.82 201.06 310.596 201.06ZM310.596 198.312C311.204 198.312 311.756 198.168 312.252 197.88C312.748 197.584 313.14 197.192 313.428 196.704C313.716 196.208 313.86 195.656 313.86 195.048L313.86 189.06C313.86 188.444 313.716 187.892 313.428 187.404C313.14 186.908 312.748 186.516 312.252 186.228C311.756 185.932 311.204 185.784 310.596 185.784C309.988 185.784 309.436 185.932 308.94 186.228C308.444 186.516 308.052 186.908 307.764 187.404C307.476 187.892 307.332 188.444 307.332 189.06L307.332 195.048C307.332 195.656 307.476 196.208 307.764 196.704C308.052 197.192 308.444 197.584 308.94 197.88C309.436 198.168 309.988 198.312 310.596 198.312ZM325.793 201.06C324.569 201.06 323.489 200.8 322.553 200.28C321.617 199.752 320.885 199.02 320.357 198.084C319.837 197.148 319.577 196.068 319.577 194.844L319.577 189.276C319.577 188.052 319.837 186.972 320.357 186.036C320.885 185.1 321.617 184.372 322.553 183.852C323.489 183.324 324.569 183.06 325.793 183.06C327.017 183.06 328.093 183.324 329.021 183.852C329.957 184.372 330.689 185.1 331.217 186.036C331.745 186.972 332.009 188.052 332.009 189.276L332.009 194.844C332.009 196.068 331.745 197.148 331.217 198.084C330.689 199.02 329.957 199.752 329.021 200.28C328.093 200.8 327.017 201.06 325.793 201.06ZM325.793 198.312C326.401 198.312 326.953 198.168 327.449 197.88C327.945 197.584 328.337 197.192 328.625 196.704C328.913 196.208 329.057 195.656 329.057 195.048L329.057 189.06C329.057 188.444 328.913 187.892 328.625 187.404C328.337 186.908 327.945 186.516 327.449 186.228C326.953 185.932 326.401 185.784 325.793 185.784C325.185 185.784 324.633 185.932 324.137 186.228C323.641 186.516 323.249 186.908 322.961 187.404C322.673 187.892 322.529 188.444 322.529 189.06L322.529 195.048C322.529 195.656 322.673 196.208 322.961 196.704C323.249 197.192 323.641 197.584 324.137 197.88C324.633 198.168 325.185 198.312 325.793 198.312ZM338.83 197.484L338.83 193.188L334.534 193.188L334.534 190.92L338.83 190.92L338.83 186.636L341.098 186.636L341.098 190.92L345.37 190.92L345.37 193.188L341.098 193.188L341.098 197.484L338.83 197.484Z" fill="white"/>
<path d="M296.424 226.71C295.134 226.71 294.045 226.425 293.157 225.855C292.269 225.279 291.597 224.484 291.141 223.47C290.685 222.456 290.457 221.286 290.457 219.96C290.457 218.634 290.685 217.464 291.141 216.45C291.597 215.436 292.269 214.644 293.157 214.074C294.045 213.498 295.134 213.21 296.424 213.21C297.93 213.21 299.16 213.597 300.114 214.371C301.068 215.139 301.722 216.171 302.076 217.467L300.726 217.818C300.45 216.792 299.955 215.979 299.241 215.379C298.527 214.779 297.588 214.479 296.424 214.479C295.41 214.479 294.567 214.71 293.895 215.172C293.223 215.634 292.716 216.279 292.374 217.107C292.038 217.929 291.864 218.88 291.852 219.96C291.846 221.04 292.011 221.991 292.347 222.813C292.689 223.635 293.199 224.28 293.877 224.748C294.561 225.21 295.41 225.441 296.424 225.441C297.588 225.441 298.527 225.141 299.241 224.541C299.955 223.935 300.45 223.122 300.726 222.102L302.076 222.453C301.722 223.749 301.068 224.784 300.114 225.558C299.16 226.326 297.93 226.71 296.424 226.71ZM303.791 226.44L303.791 213.21L305.114 213.21L305.114 226.44L303.791 226.44ZM307.543 214.875L307.543 213.39L308.866 213.39L308.866 214.875L307.543 214.875ZM307.543 226.44L307.543 216.72L308.866 216.72L308.866 226.44L307.543 226.44ZM315.227 226.71C314.279 226.71 313.457 226.5 312.761 226.08C312.071 225.66 311.534 225.069 311.15 224.307C310.766 223.545 310.574 222.651 310.574 221.625C310.574 220.563 310.763 219.645 311.141 218.871C311.519 218.097 312.05 217.5 312.734 217.08C313.424 216.66 314.237 216.45 315.173 216.45C316.133 216.45 316.952 216.672 317.63 217.116C318.308 217.554 318.821 218.184 319.169 219.006C319.517 219.828 319.676 220.809 319.646 221.949L318.296 221.949L318.296 221.481C318.272 220.221 317.999 219.27 317.477 218.628C316.961 217.986 316.205 217.665 315.209 217.665C314.165 217.665 313.364 218.004 312.806 218.682C312.254 219.36 311.978 220.326 311.978 221.58C311.978 222.804 312.254 223.755 312.806 224.433C313.364 225.105 314.153 225.441 315.173 225.441C315.869 225.441 316.475 225.282 316.991 224.964C317.513 224.64 317.924 224.175 318.224 223.569L319.457 224.046C319.073 224.892 318.506 225.549 317.756 226.017C317.012 226.479 316.169 226.71 315.227 226.71ZM311.51 221.949L311.51 220.842L318.935 220.842L318.935 221.949L311.51 221.949ZM327.949 226.44L327.949 221.481C327.949 220.941 327.898 220.446 327.796 219.996C327.694 219.54 327.529 219.144 327.301 218.808C327.079 218.466 326.788 218.202 326.428 218.016C326.074 217.83 325.642 217.737 325.132 217.737C324.664 217.737 324.25 217.818 323.89 217.98C323.536 218.142 323.236 218.376 322.99 218.682C322.75 218.982 322.567 219.348 322.441 219.78C322.315 220.212 322.252 220.704 322.252 221.256L321.316 221.049C321.316 220.053 321.49 219.216 321.838 218.538C322.186 217.86 322.666 217.347 323.278 216.999C323.89 216.651 324.592 216.477 325.384 216.477C325.966 216.477 326.473 216.567 326.905 216.747C327.343 216.927 327.712 217.17 328.012 217.476C328.318 217.782 328.564 218.133 328.75 218.529C328.936 218.919 329.071 219.336 329.155 219.78C329.239 220.218 329.281 220.656 329.281 221.094L329.281 226.44L327.949 226.44ZM320.92 226.44L320.92 216.72L322.117 216.72L322.117 219.114L322.252 219.114L322.252 226.44L320.92 226.44ZM336.459 226.44C335.913 226.554 335.373 226.599 334.839 226.575C334.311 226.551 333.837 226.437 333.417 226.233C333.003 226.029 332.688 225.711 332.472 225.279C332.298 224.919 332.202 224.556 332.184 224.19C332.172 223.818 332.166 223.395 332.166 222.921L332.166 214.02L333.48 214.02L333.48 222.867C333.48 223.275 333.483 223.617 333.489 223.893C333.501 224.163 333.564 224.403 333.678 224.613C333.894 225.015 334.236 225.255 334.704 225.333C335.178 225.411 335.763 225.393 336.459 225.279L336.459 226.44ZM330.087 217.854L330.087 216.72L336.459 216.72L336.459 217.854L330.087 217.854ZM341.551 226.701C340.411 226.701 339.472 226.455 338.734 225.963C338.002 225.471 337.552 224.787 337.384 223.911L338.734 223.686C338.878 224.238 339.205 224.679 339.715 225.009C340.231 225.333 340.867 225.495 341.623 225.495C342.361 225.495 342.943 225.342 343.369 225.036C343.795 224.724 344.008 224.301 344.008 223.767C344.008 223.467 343.939 223.224 343.801 223.038C343.669 222.846 343.396 222.669 342.982 222.507C342.568 222.345 341.95 222.153 341.128 221.931C340.246 221.691 339.556 221.451 339.058 221.211C338.56 220.971 338.206 220.695 337.996 220.383C337.786 220.065 337.681 219.678 337.681 219.222C337.681 218.67 337.837 218.187 338.149 217.773C338.461 217.353 338.893 217.029 339.445 216.801C339.997 216.567 340.639 216.45 341.371 216.45C342.103 216.45 342.757 216.57 343.333 216.81C343.915 217.044 344.383 217.374 344.737 217.8C345.091 218.226 345.301 218.721 345.367 219.285L344.017 219.528C343.927 218.958 343.642 218.508 343.162 218.178C342.688 217.842 342.085 217.668 341.353 217.656C340.663 217.638 340.102 217.77 339.67 218.052C339.238 218.328 339.022 218.697 339.022 219.159C339.022 219.417 339.1 219.639 339.256 219.825C339.412 220.005 339.694 220.176 340.102 220.338C340.516 220.5 341.104 220.677 341.866 220.869C342.76 221.097 343.462 221.337 343.972 221.589C344.482 221.841 344.845 222.138 345.061 222.48C345.277 222.822 345.385 223.245 345.385 223.749C345.385 224.667 345.043 225.39 344.359 225.918C343.681 226.44 342.745 226.701 341.551 226.701Z" fill="white"/>
<path d="M408.682 122.978C407.818 122.978 407.002 122.81 406.234 122.474C405.466 122.138 404.798 121.662 404.23 121.046C403.67 120.43 403.266 119.702 403.018 118.862L405.814 118.106C406.014 118.794 406.378 119.326 406.906 119.702C407.442 120.07 408.03 120.25 408.67 120.242C409.238 120.242 409.746 120.11 410.194 119.846C410.642 119.582 410.994 119.226 411.25 118.778C411.506 118.322 411.634 117.814 411.634 117.254C411.634 116.398 411.358 115.682 410.806 115.106C410.254 114.53 409.542 114.242 408.67 114.242C408.406 114.242 408.146 114.278 407.89 114.35C407.642 114.422 407.402 114.522 407.17 114.65L405.85 112.37L411.658 107.402L411.91 108.098L403.69 108.098L403.69 105.374L414.286 105.374L414.286 108.11L409.618 112.598L409.594 111.746C410.642 111.818 411.534 112.11 412.27 112.622C413.014 113.134 413.582 113.794 413.974 114.602C414.374 115.41 414.574 116.294 414.574 117.254C414.574 118.342 414.306 119.318 413.77 120.182C413.242 121.046 412.53 121.73 411.634 122.234C410.746 122.73 409.762 122.978 408.682 122.978ZM423.3 123.014C422.076 123.014 420.996 122.754 420.06 122.234C419.124 121.706 418.392 120.974 417.864 120.038C417.344 119.102 417.084 118.022 417.084 116.798L417.084 111.23C417.084 110.006 417.344 108.926 417.864 107.99C418.392 107.054 419.124 106.326 420.06 105.806C420.996 105.278 422.076 105.014 423.3 105.014C424.524 105.014 425.6 105.278 426.528 105.806C427.464 106.326 428.196 107.054 428.724 107.99C429.252 108.926 429.516 110.006 429.516 111.23L429.516 116.798C429.516 118.022 429.252 119.102 428.724 120.038C428.196 120.974 427.464 121.706 426.528 122.234C425.6 122.754 424.524 123.014 423.3 123.014ZM423.3 120.266C423.908 120.266 424.46 120.122 424.956 119.834C425.452 119.538 425.844 119.146 426.132 118.658C426.42 118.162 426.564 117.61 426.564 117.002L426.564 111.014C426.564 110.398 426.42 109.846 426.132 109.358C425.844 108.862 425.452 108.47 424.956 108.182C424.46 107.886 423.908 107.738 423.3 107.738C422.692 107.738 422.14 107.886 421.644 108.182C421.148 108.47 420.756 108.862 420.468 109.358C420.18 109.846 420.036 110.398 420.036 111.014L420.036 117.002C420.036 117.61 420.18 118.162 420.468 118.658C420.756 119.146 421.148 119.538 421.644 119.834C422.14 120.122 422.692 120.266 423.3 120.266ZM438.496 123.014C437.272 123.014 436.192 122.754 435.256 122.234C434.32 121.706 433.588 120.974 433.06 120.038C432.54 119.102 432.28 118.022 432.28 116.798L432.28 111.23C432.28 110.006 432.54 108.926 433.06 107.99C433.588 107.054 434.32 106.326 435.256 105.806C436.192 105.278 437.272 105.014 438.496 105.014C439.72 105.014 440.796 105.278 441.724 105.806C442.66 106.326 443.392 107.054 443.92 107.99C444.448 108.926 444.712 110.006 444.712 111.23L444.712 116.798C444.712 118.022 444.448 119.102 443.92 120.038C443.392 120.974 442.66 121.706 441.724 122.234C440.796 122.754 439.72 123.014 438.496 123.014ZM438.496 120.266C439.104 120.266 439.656 120.122 440.152 119.834C440.648 119.538 441.04 119.146 441.328 118.658C441.616 118.162 441.76 117.61 441.76 117.002L441.76 111.014C441.76 110.398 441.616 109.846 441.328 109.358C441.04 108.862 440.648 108.47 440.152 108.182C439.656 107.886 439.104 107.738 438.496 107.738C437.888 107.738 437.336 107.886 436.84 108.182C436.344 108.47 435.952 108.862 435.664 109.358C435.376 109.846 435.232 110.398 435.232 111.014L435.232 117.002C435.232 117.61 435.376 118.162 435.664 118.658C435.952 119.146 436.344 119.538 436.84 119.834C437.336 120.122 437.888 120.266 438.496 120.266ZM453.693 123.014C452.469 123.014 451.389 122.754 450.453 122.234C449.517 121.706 448.785 120.974 448.257 120.038C447.737 119.102 447.477 118.022 447.477 116.798L447.477 111.23C447.477 110.006 447.737 108.926 448.257 107.99C448.785 107.054 449.517 106.326 450.453 105.806C451.389 105.278 452.469 105.014 453.693 105.014C454.917 105.014 455.993 105.278 456.921 105.806C457.857 106.326 458.589 107.054 459.117 107.99C459.645 108.926 459.909 110.006 459.909 111.23L459.909 116.798C459.909 118.022 459.645 119.102 459.117 120.038C458.589 120.974 457.857 121.706 456.921 122.234C455.993 122.754 454.917 123.014 453.693 123.014ZM453.693 120.266C454.301 120.266 454.853 120.122 455.349 119.834C455.845 119.538 456.237 119.146 456.525 118.658C456.813 118.162 456.957 117.61 456.957 117.002L456.957 111.014C456.957 110.398 456.813 109.846 456.525 109.358C456.237 108.862 455.845 108.47 455.349 108.182C454.853 107.886 454.301 107.738 453.693 107.738C453.085 107.738 452.533 107.886 452.037 108.182C451.541 108.47 451.149 108.862 450.861 109.358C450.573 109.846 450.429 110.398 450.429 111.014L450.429 117.002C450.429 117.61 450.573 118.162 450.861 118.658C451.149 119.146 451.541 119.538 452.037 119.834C452.533 120.122 453.085 120.266 453.693 120.266ZM466.73 119.438L466.73 115.142L462.434 115.142L462.434 112.874L466.73 112.874L466.73 108.59L468.998 108.59L468.998 112.874L473.27 112.874L473.27 115.142L468.998 115.142L468.998 119.438L466.73 119.438Z" fill="white"/>
<path d="M382.8 144.393L382.8 132.873L390 132.873L390 134.001L383.976 134.001L383.976 137.985L389.04 137.985L389.04 139.113L383.976 139.113L383.976 143.265L390 143.265L390 144.393L382.8 144.393ZM390.565 144.393L393.941 140.025L390.637 135.753L392.045 135.753L394.629 139.121L397.189 135.753L398.597 135.753L395.293 140.025L398.677 144.393L397.261 144.393L394.629 140.929L391.981 144.393L390.565 144.393ZM403.443 144.633C402.648 144.633 401.976 144.433 401.427 144.033C400.877 143.628 400.461 143.081 400.179 142.393C399.896 141.7 399.755 140.924 399.755 140.065C399.755 139.191 399.896 138.412 400.179 137.729C400.467 137.041 400.888 136.5 401.443 136.105C401.997 135.711 402.68 135.513 403.491 135.513C404.28 135.513 404.957 135.713 405.523 136.113C406.088 136.513 406.52 137.057 406.819 137.745C407.123 138.433 407.275 139.207 407.275 140.065C407.275 140.929 407.123 141.705 406.819 142.393C406.515 143.081 406.077 143.628 405.507 144.033C404.936 144.433 404.248 144.633 403.443 144.633ZM399.555 148.233L399.555 135.753L400.611 135.753L400.611 142.257L400.739 142.257L400.739 148.233L399.555 148.233ZM403.323 143.537C403.925 143.537 404.427 143.385 404.827 143.081C405.227 142.777 405.525 142.364 405.723 141.841C405.925 141.313 406.027 140.721 406.027 140.065C406.027 139.415 405.928 138.828 405.731 138.305C405.533 137.783 405.232 137.369 404.827 137.065C404.427 136.761 403.917 136.609 403.299 136.609C402.696 136.609 402.195 136.756 401.795 137.049C401.4 137.343 401.104 137.751 400.907 138.273C400.709 138.791 400.611 139.388 400.611 140.065C400.611 140.732 400.709 141.329 400.907 141.857C401.104 142.38 401.403 142.791 401.803 143.089C402.203 143.388 402.709 143.537 403.323 143.537ZM412.288 144.633C411.445 144.633 410.714 144.447 410.096 144.073C409.482 143.7 409.005 143.175 408.664 142.497C408.322 141.82 408.152 141.025 408.152 140.113C408.152 139.169 408.32 138.353 408.656 137.665C408.992 136.977 409.464 136.447 410.072 136.073C410.685 135.7 411.408 135.513 412.24 135.513C413.093 135.513 413.821 135.711 414.424 136.105C415.026 136.495 415.482 137.055 415.792 137.785C416.101 138.516 416.242 139.388 416.216 140.401L415.016 140.401L415.016 139.985C414.994 138.865 414.752 138.02 414.288 137.449C413.829 136.879 413.157 136.593 412.272 136.593C411.344 136.593 410.632 136.895 410.136 137.497C409.645 138.1 409.4 138.959 409.4 140.073C409.4 141.161 409.645 142.007 410.136 142.609C410.632 143.207 411.333 143.505 412.24 143.505C412.858 143.505 413.397 143.364 413.856 143.081C414.32 142.793 414.685 142.38 414.952 141.841L416.048 142.265C415.706 143.017 415.202 143.601 414.536 144.017C413.874 144.428 413.125 144.633 412.288 144.633ZM408.984 140.401L408.984 139.417L415.584 139.417L415.584 140.401L408.984 140.401ZM417.591 144.393L417.591 135.753L418.647 135.753L418.647 137.833L418.439 137.561C418.535 137.305 418.66 137.071 418.815 136.857C418.97 136.639 419.138 136.46 419.319 136.321C419.543 136.124 419.804 135.975 420.103 135.873C420.402 135.767 420.703 135.705 421.007 135.689C421.311 135.668 421.588 135.689 421.839 135.753L421.839 136.857C421.524 136.777 421.18 136.759 420.807 136.801C420.434 136.844 420.09 136.993 419.775 137.249C419.487 137.473 419.271 137.743 419.127 138.057C418.983 138.367 418.887 138.697 418.839 139.049C418.791 139.396 418.767 139.74 418.767 140.081L418.767 144.393L417.591 144.393ZM427.661 144.393C427.175 144.495 426.695 144.535 426.221 144.513C425.751 144.492 425.33 144.391 424.957 144.209C424.589 144.028 424.309 143.745 424.117 143.361C423.962 143.041 423.877 142.719 423.861 142.393C423.85 142.063 423.845 141.687 423.845 141.265L423.845 133.353L425.013 133.353L425.013 141.217C425.013 141.58 425.015 141.884 425.021 142.129C425.031 142.369 425.087 142.583 425.189 142.769C425.381 143.127 425.685 143.34 426.101 143.409C426.522 143.479 427.042 143.463 427.661 143.361L427.661 144.393ZM421.997 136.761L421.997 135.753L427.661 135.753L427.661 136.761L421.997 136.761ZM431.926 144.393L431.926 132.873L433.102 132.873L433.102 144.393L431.926 144.393ZM441.34 144.393L441.34 139.985C441.34 139.505 441.295 139.065 441.204 138.665C441.114 138.26 440.967 137.908 440.764 137.609C440.567 137.305 440.308 137.071 439.988 136.905C439.674 136.74 439.29 136.657 438.836 136.657C438.42 136.657 438.052 136.729 437.732 136.873C437.418 137.017 437.151 137.225 436.932 137.497C436.719 137.764 436.556 138.089 436.444 138.473C436.332 138.857 436.276 139.295 436.276 139.785L435.444 139.601C435.444 138.716 435.599 137.972 435.908 137.369C436.218 136.767 436.644 136.311 437.188 136.001C437.732 135.692 438.356 135.537 439.06 135.537C439.578 135.537 440.028 135.617 440.412 135.777C440.802 135.937 441.13 136.153 441.396 136.425C441.668 136.697 441.887 137.009 442.052 137.361C442.218 137.708 442.338 138.079 442.412 138.473C442.487 138.863 442.524 139.252 442.524 139.641L442.524 144.393L441.34 144.393ZM435.092 144.393L435.092 135.753L436.156 135.753L436.156 137.881L436.276 137.881L436.276 144.393L435.092 144.393ZM448.904 144.393C448.419 144.495 447.939 144.535 447.464 144.513C446.995 144.492 446.574 144.391 446.2 144.209C445.832 144.028 445.552 143.745 445.36 143.361C445.206 143.041 445.12 142.719 445.104 142.393C445.094 142.063 445.088 141.687 445.088 141.265L445.088 133.353L446.256 133.353L446.256 141.217C446.256 141.58 446.259 141.884 446.264 142.129C446.275 142.369 446.331 142.583 446.432 142.769C446.624 143.127 446.928 143.34 447.344 143.409C447.766 143.479 448.286 143.463 448.904 143.361L448.904 144.393ZM443.24 136.761L443.24 135.753L448.904 135.753L448.904 136.761L443.24 136.761ZM453.55 144.633C452.707 144.633 451.977 144.447 451.358 144.073C450.745 143.7 450.267 143.175 449.926 142.497C449.585 141.82 449.414 141.025 449.414 140.113C449.414 139.169 449.582 138.353 449.918 137.665C450.254 136.977 450.726 136.447 451.334 136.073C451.947 135.7 452.67 135.513 453.502 135.513C454.355 135.513 455.083 135.711 455.686 136.105C456.289 136.495 456.745 137.055 457.054 137.785C457.363 138.516 457.505 139.388 457.478 140.401L456.278 140.401L456.278 139.985C456.257 138.865 456.014 138.02 455.55 137.449C455.091 136.879 454.419 136.593 453.534 136.593C452.606 136.593 451.894 136.895 451.398 137.497C450.907 138.1 450.662 138.959 450.662 140.073C450.662 141.161 450.907 142.007 451.398 142.609C451.894 143.207 452.595 143.505 453.502 143.505C454.121 143.505 454.659 143.364 455.118 143.081C455.582 142.793 455.947 142.38 456.214 141.841L457.31 142.265C456.969 143.017 456.465 143.601 455.798 144.017C455.137 144.428 454.387 144.633 453.55 144.633ZM450.246 140.401L450.246 139.417L456.846 139.417L456.846 140.401L450.246 140.401ZM458.853 144.393L458.853 135.753L459.909 135.753L459.909 137.833L459.701 137.561C459.797 137.305 459.923 137.071 460.077 136.857C460.232 136.639 460.4 136.46 460.581 136.321C460.805 136.124 461.067 135.975 461.365 135.873C461.664 135.767 461.965 135.705 462.269 135.689C462.573 135.668 462.851 135.689 463.101 135.753L463.101 136.857C462.787 136.777 462.443 136.759 462.069 136.801C461.696 136.844 461.352 136.993 461.037 137.249C460.749 137.473 460.533 137.743 460.389 138.057C460.245 138.367 460.149 138.697 460.101 139.049C460.053 139.396 460.029 139.74 460.029 140.081L460.029 144.393L458.853 144.393ZM466.555 144.393L463.419 135.753L464.611 135.753L467.163 142.857L469.699 135.753L470.907 135.753L467.771 144.393L466.555 144.393ZM472.104 134.113L472.104 132.793L473.28 132.793L473.28 134.113L472.104 134.113ZM472.104 144.393L472.104 135.753L473.28 135.753L473.28 144.393L472.104 144.393ZM478.934 144.633C478.092 144.633 477.361 144.447 476.742 144.073C476.129 143.7 475.652 143.175 475.31 142.497C474.969 141.82 474.798 141.025 474.798 140.113C474.798 139.169 474.966 138.353 475.302 137.665C475.638 136.977 476.11 136.447 476.718 136.073C477.332 135.7 478.054 135.513 478.886 135.513C479.74 135.513 480.468 135.711 481.07 136.105C481.673 136.495 482.129 137.055 482.438 137.785C482.748 138.516 482.889 139.388 482.862 140.401L481.662 140.401L481.662 139.985C481.641 138.865 481.398 138.02 480.934 137.449C480.476 136.879 479.804 136.593 478.918 136.593C477.99 136.593 477.278 136.895 476.782 137.497C476.292 138.1 476.046 138.959 476.046 140.073C476.046 141.161 476.292 142.007 476.782 142.609C477.278 143.207 477.98 143.505 478.886 143.505C479.505 143.505 480.044 143.364 480.502 143.081C480.966 142.793 481.332 142.38 481.598 141.841L482.694 142.265C482.353 143.017 481.849 143.601 481.182 144.017C480.521 144.428 479.772 144.633 478.934 144.633ZM475.63 140.401L475.63 139.417L482.23 139.417L482.23 140.401L475.63 140.401ZM485.765 144.393L483.125 135.745L484.301 135.753L486.349 142.465L488.405 135.753L489.477 135.753L491.533 142.465L493.597 135.753L494.765 135.753L492.125 144.393L491.101 144.393L488.941 137.513L486.789 144.393L485.765 144.393ZM411.271 164.393L411.271 152.873L415.719 152.873C415.831 152.873 415.956 152.879 416.095 152.889C416.239 152.895 416.383 152.911 416.527 152.937C417.129 153.028 417.639 153.239 418.055 153.569C418.476 153.895 418.793 154.305 419.007 154.801C419.225 155.297 419.335 155.847 419.335 156.449C419.335 157.047 419.225 157.593 419.007 158.089C418.788 158.585 418.468 158.999 418.047 159.329C417.631 159.655 417.124 159.863 416.527 159.953C416.383 159.975 416.239 159.991 416.095 160.001C415.956 160.012 415.831 160.017 415.719 160.017L412.447 160.017L412.447 164.393L411.271 164.393ZM412.447 158.897L415.687 158.897C415.783 158.897 415.895 158.892 416.023 158.881C416.151 158.871 416.276 158.852 416.399 158.825C416.793 158.74 417.116 158.577 417.367 158.337C417.623 158.097 417.812 157.812 417.935 157.481C418.063 157.151 418.127 156.807 418.127 156.449C418.127 156.092 418.063 155.748 417.935 155.417C417.812 155.081 417.623 154.793 417.367 154.553C417.116 154.313 416.793 154.151 416.399 154.065C416.276 154.039 416.151 154.023 416.023 154.017C415.895 154.007 415.783 154.001 415.687 154.001L412.447 154.001L412.447 158.897ZM422.624 164.633C421.973 164.633 421.427 164.516 420.984 164.281C420.547 164.047 420.219 163.735 420 163.345C419.781 162.956 419.672 162.532 419.672 162.073C419.672 161.604 419.765 161.204 419.952 160.873C420.144 160.537 420.403 160.263 420.728 160.049C421.059 159.836 421.44 159.673 421.872 159.561C422.309 159.455 422.792 159.361 423.32 159.281C423.853 159.196 424.373 159.124 424.88 159.065C425.392 159.001 425.84 158.94 426.224 158.881L425.808 159.137C425.824 158.284 425.659 157.652 425.312 157.241C424.965 156.831 424.363 156.625 423.504 156.625C422.912 156.625 422.411 156.759 422 157.025C421.595 157.292 421.309 157.713 421.144 158.289L420 157.953C420.197 157.18 420.595 156.58 421.192 156.153C421.789 155.727 422.565 155.513 423.52 155.513C424.309 155.513 424.979 155.663 425.528 155.961C426.083 156.255 426.475 156.681 426.704 157.241C426.811 157.492 426.88 157.772 426.912 158.081C426.944 158.391 426.96 158.705 426.96 159.025L426.96 164.393L425.912 164.393L425.912 162.225L426.216 162.353C425.923 163.095 425.467 163.66 424.848 164.049C424.229 164.439 423.488 164.633 422.624 164.633ZM422.76 163.617C423.309 163.617 423.789 163.519 424.2 163.321C424.611 163.124 424.941 162.855 425.192 162.513C425.443 162.167 425.605 161.777 425.68 161.345C425.744 161.068 425.779 160.764 425.784 160.433C425.789 160.097 425.792 159.847 425.792 159.681L426.24 159.913C425.84 159.967 425.405 160.02 424.936 160.073C424.472 160.127 424.013 160.188 423.56 160.257C423.112 160.327 422.707 160.409 422.344 160.505C422.099 160.575 421.861 160.673 421.632 160.801C421.403 160.924 421.213 161.089 421.064 161.297C420.92 161.505 420.848 161.764 420.848 162.073C420.848 162.324 420.909 162.567 421.032 162.801C421.16 163.036 421.363 163.231 421.64 163.385C421.923 163.54 422.296 163.617 422.76 163.617ZM434.882 164.393L434.882 159.985C434.882 159.505 434.837 159.065 434.746 158.665C434.656 158.26 434.509 157.908 434.306 157.609C434.109 157.305 433.85 157.071 433.53 156.905C433.216 156.74 432.832 156.657 432.378 156.657C431.962 156.657 431.594 156.729 431.274 156.873C430.96 157.017 430.693 157.225 430.474 157.497C430.261 157.764 430.098 158.089 429.986 158.473C429.874 158.857 429.818 159.295 429.818 159.785L428.986 159.601C428.986 158.716 429.141 157.972 429.45 157.369C429.76 156.767 430.186 156.311 430.73 156.001C431.274 155.692 431.898 155.537 432.602 155.537C433.12 155.537 433.57 155.617 433.954 155.777C434.344 155.937 434.672 156.153 434.938 156.425C435.21 156.697 435.429 157.009 435.594 157.361C435.76 157.708 435.88 158.079 435.954 158.473C436.029 158.863 436.066 159.252 436.066 159.641L436.066 164.393L434.882 164.393ZM428.634 164.393L428.634 155.753L429.698 155.753L429.698 157.881L429.818 157.881L429.818 164.393L428.634 164.393ZM441.352 164.633C440.509 164.633 439.778 164.447 439.16 164.073C438.546 163.7 438.069 163.175 437.728 162.497C437.386 161.82 437.216 161.025 437.216 160.113C437.216 159.169 437.384 158.353 437.72 157.665C438.056 156.977 438.528 156.447 439.136 156.073C439.749 155.7 440.472 155.513 441.304 155.513C442.157 155.513 442.885 155.711 443.488 156.105C444.09 156.495 444.546 157.055 444.856 157.785C445.165 158.516 445.306 159.388 445.28 160.401L444.08 160.401L444.08 159.985C444.058 158.865 443.816 158.02 443.352 157.449C442.893 156.879 442.221 156.593 441.336 156.593C440.408 156.593 439.696 156.895 439.2 157.497C438.709 158.1 438.464 158.959 438.464 160.073C438.464 161.161 438.709 162.007 439.2 162.609C439.696 163.207 440.397 163.505 441.304 163.505C441.922 163.505 442.461 163.364 442.92 163.081C443.384 162.793 443.749 162.38 444.016 161.841L445.112 162.265C444.77 163.017 444.266 163.601 443.6 164.017C442.938 164.428 442.189 164.633 441.352 164.633ZM438.048 160.401L438.048 159.417L444.648 159.417L444.648 160.401L438.048 160.401ZM446.815 164.393L446.815 152.633L447.991 152.633L447.991 164.393L446.815 164.393ZM450.149 154.113L450.149 152.793L451.325 152.793L451.325 154.113L450.149 154.113ZM450.149 164.393L450.149 155.753L451.325 155.753L451.325 164.393L450.149 164.393ZM456.548 164.625C455.534 164.625 454.7 164.407 454.044 163.969C453.393 163.532 452.993 162.924 452.844 162.145L454.044 161.945C454.172 162.436 454.462 162.828 454.916 163.121C455.374 163.409 455.94 163.553 456.612 163.553C457.268 163.553 457.785 163.417 458.164 163.145C458.542 162.868 458.732 162.492 458.732 162.017C458.732 161.751 458.67 161.535 458.548 161.369C458.43 161.199 458.188 161.041 457.82 160.897C457.452 160.753 456.902 160.583 456.172 160.385C455.388 160.172 454.774 159.959 454.332 159.745C453.889 159.532 453.574 159.287 453.388 159.009C453.201 158.727 453.108 158.383 453.108 157.977C453.108 157.487 453.246 157.057 453.524 156.689C453.801 156.316 454.185 156.028 454.676 155.825C455.166 155.617 455.737 155.513 456.388 155.513C457.038 155.513 457.62 155.62 458.132 155.833C458.649 156.041 459.065 156.335 459.38 156.713C459.694 157.092 459.881 157.532 459.94 158.033L458.74 158.249C458.66 157.743 458.406 157.343 457.98 157.049C457.558 156.751 457.022 156.596 456.372 156.585C455.758 156.569 455.26 156.687 454.876 156.937C454.492 157.183 454.3 157.511 454.3 157.921C454.3 158.151 454.369 158.348 454.508 158.513C454.646 158.673 454.897 158.825 455.26 158.969C455.628 159.113 456.15 159.271 456.828 159.441C457.622 159.644 458.246 159.857 458.7 160.081C459.153 160.305 459.476 160.569 459.668 160.873C459.86 161.177 459.956 161.553 459.956 162.001C459.956 162.817 459.652 163.46 459.044 163.929C458.441 164.393 457.609 164.625 456.548 164.625ZM466.034 164.393C465.549 164.495 465.069 164.535 464.594 164.513C464.125 164.492 463.703 164.391 463.33 164.209C462.962 164.028 462.682 163.745 462.49 163.361C462.335 163.041 462.25 162.719 462.234 162.393C462.223 162.063 462.218 161.687 462.218 161.265L462.218 153.353L463.386 153.353L463.386 161.217C463.386 161.58 463.389 161.884 463.394 162.129C463.405 162.369 463.461 162.583 463.562 162.769C463.754 163.127 464.058 163.34 464.474 163.409C464.895 163.479 465.415 163.463 466.034 163.361L466.034 164.393ZM460.37 156.761L460.37 155.753L466.034 155.753L466.034 156.761L460.37 156.761Z" fill="white"/>
<path d="M534.164 192.872L534.164 190.772L540.324 185.282C540.804 184.856 541.137 184.452 541.324 184.072C541.511 183.692 541.604 183.326 541.604 182.972C541.604 182.492 541.501 182.066 541.294 181.692C541.087 181.312 540.801 181.012 540.434 180.792C540.074 180.572 539.657 180.462 539.184 180.462C538.684 180.462 538.241 180.579 537.854 180.812C537.474 181.039 537.177 181.342 536.964 181.722C536.751 182.102 536.651 182.512 536.664 182.952L534.184 182.952C534.184 181.992 534.397 181.156 534.824 180.442C535.257 179.729 535.851 179.176 536.604 178.782C537.364 178.389 538.241 178.192 539.234 178.192C540.154 178.192 540.981 178.399 541.714 178.812C542.447 179.219 543.024 179.786 543.444 180.512C543.864 181.232 544.074 182.062 544.074 183.002C544.074 183.689 543.981 184.266 543.794 184.732C543.607 185.199 543.327 185.629 542.954 186.022C542.587 186.416 542.131 186.852 541.584 187.332L537.214 191.202L536.994 190.602L544.074 190.602L544.074 192.872L534.164 192.872ZM551.568 192.892L551.568 190.512L545.188 190.512L545.188 188.262L549.798 178.492L552.548 178.492L547.938 188.262L551.568 188.262L551.568 184.512L554.008 184.512L554.008 188.262L555.358 188.262L555.358 190.512L554.008 190.512L554.008 192.892L551.568 192.892ZM559.559 192.892L564.439 185.612L559.699 178.492L562.649 178.492L565.929 183.562L569.179 178.492L572.149 178.492L567.409 185.612L572.269 192.892L569.319 192.892L565.929 187.662L562.529 192.892L559.559 192.892ZM577.599 192.892L582.559 180.772L576.269 180.772L576.269 178.492L585.139 178.492L585.139 180.772L580.199 192.892L577.599 192.892Z" fill="white"/>
<path d="M529.554 213.632L529.554 203.552L530.583 203.552L530.583 213.632L529.554 213.632ZM537.792 213.632L537.792 209.775C537.792 209.355 537.752 208.97 537.673 208.62C537.594 208.265 537.465 207.957 537.288 207.696C537.115 207.43 536.889 207.225 536.609 207.08C536.334 206.935 535.998 206.863 535.601 206.863C535.237 206.863 534.915 206.926 534.635 207.052C534.36 207.178 534.126 207.36 533.935 207.598C533.748 207.831 533.606 208.116 533.508 208.452C533.41 208.788 533.361 209.171 533.361 209.6L532.633 209.439C532.633 208.664 532.768 208.013 533.039 207.486C533.31 206.959 533.683 206.56 534.159 206.289C534.635 206.018 535.181 205.883 535.797 205.883C536.25 205.883 536.644 205.953 536.98 206.093C537.321 206.233 537.608 206.422 537.841 206.66C538.079 206.898 538.27 207.171 538.415 207.479C538.56 207.782 538.665 208.107 538.73 208.452C538.795 208.793 538.828 209.133 538.828 209.474L538.828 213.632L537.792 213.632ZM532.325 213.632L532.325 206.072L533.256 206.072L533.256 207.934L533.361 207.934L533.361 213.632L532.325 213.632ZM544.411 213.632C543.986 213.721 543.566 213.756 543.151 213.737C542.74 213.718 542.371 213.63 542.045 213.471C541.723 213.312 541.478 213.065 541.31 212.729C541.174 212.449 541.1 212.167 541.086 211.882C541.076 211.593 541.072 211.264 541.072 210.895L541.072 203.972L542.094 203.972L542.094 210.853C542.094 211.17 542.096 211.436 542.101 211.651C542.11 211.861 542.159 212.048 542.248 212.211C542.416 212.524 542.682 212.71 543.046 212.771C543.414 212.832 543.869 212.818 544.411 212.729L544.411 213.632ZM539.455 206.954L539.455 206.072L544.411 206.072L544.411 206.954L539.455 206.954ZM548.476 213.842C547.738 213.842 547.099 213.679 546.558 213.352C546.021 213.025 545.603 212.566 545.305 211.973C545.006 211.38 544.857 210.685 544.857 209.887C544.857 209.061 545.004 208.347 545.298 207.745C545.592 207.143 546.005 206.679 546.537 206.352C547.073 206.025 547.706 205.862 548.434 205.862C549.18 205.862 549.817 206.035 550.345 206.38C550.872 206.721 551.271 207.211 551.542 207.85C551.812 208.489 551.936 209.252 551.913 210.139L550.863 210.139L550.863 209.775C550.844 208.795 550.632 208.055 550.226 207.556C549.824 207.057 549.236 206.807 548.462 206.807C547.65 206.807 547.027 207.071 546.593 207.598C546.163 208.125 545.949 208.877 545.949 209.852C545.949 210.804 546.163 211.544 546.593 212.071C547.027 212.594 547.64 212.855 548.434 212.855C548.975 212.855 549.446 212.731 549.848 212.484C550.254 212.232 550.573 211.87 550.807 211.399L551.766 211.77C551.467 212.428 551.026 212.939 550.443 213.303C549.864 213.662 549.208 213.842 548.476 213.842ZM545.585 210.139L545.585 209.278L551.36 209.278L551.36 210.139L545.585 210.139ZM553.116 213.632L553.116 206.072L554.04 206.072L554.04 207.892L553.858 207.654C553.942 207.43 554.052 207.225 554.187 207.038C554.322 206.847 554.469 206.69 554.628 206.569C554.824 206.396 555.053 206.266 555.314 206.177C555.575 206.084 555.839 206.03 556.105 206.016C556.371 205.997 556.614 206.016 556.833 206.072L556.833 207.038C556.558 206.968 556.257 206.952 555.93 206.989C555.603 207.026 555.302 207.157 555.027 207.381C554.775 207.577 554.586 207.813 554.46 208.088C554.334 208.359 554.25 208.648 554.208 208.956C554.166 209.259 554.145 209.56 554.145 209.859L554.145 213.632L553.116 213.632ZM559.855 213.632L557.111 206.072L558.154 206.072L560.387 212.288L562.606 206.072L563.663 206.072L560.919 213.632L559.855 213.632ZM564.71 204.637L564.71 203.482L565.739 203.482L565.739 204.637L564.71 204.637ZM564.71 213.632L564.71 206.072L565.739 206.072L565.739 213.632L564.71 213.632ZM570.687 213.842C569.95 213.842 569.31 213.679 568.769 213.352C568.232 213.025 567.815 212.566 567.516 211.973C567.217 211.38 567.068 210.685 567.068 209.887C567.068 209.061 567.215 208.347 567.509 207.745C567.803 207.143 568.216 206.679 568.748 206.352C569.285 206.025 569.917 205.862 570.645 205.862C571.392 205.862 572.029 206.035 572.556 206.38C573.083 206.721 573.482 207.211 573.753 207.85C574.024 208.489 574.147 209.252 574.124 210.139L573.074 210.139L573.074 209.775C573.055 208.795 572.843 208.055 572.437 207.556C572.036 207.057 571.448 206.807 570.673 206.807C569.861 206.807 569.238 207.071 568.804 207.598C568.375 208.125 568.16 208.877 568.16 209.852C568.16 210.804 568.375 211.544 568.804 212.071C569.238 212.594 569.852 212.855 570.645 212.855C571.186 212.855 571.658 212.731 572.059 212.484C572.465 212.232 572.785 211.87 573.018 211.399L573.977 211.77C573.678 212.428 573.237 212.939 572.654 213.303C572.075 213.662 571.42 213.842 570.687 213.842ZM567.796 210.139L567.796 209.278L573.571 209.278L573.571 210.139L567.796 210.139ZM576.664 213.632L574.354 206.065L575.383 206.072L577.175 211.945L578.974 206.072L579.912 206.072L581.711 211.945L583.517 206.072L584.539 206.072L582.229 213.632L581.333 213.632L579.443 207.612L577.56 213.632L576.664 213.632ZM535.935 227.842C535.23 227.842 534.595 227.725 534.031 227.492C533.471 227.254 533.006 226.918 532.638 226.484C532.274 226.05 532.036 225.534 531.924 224.937L532.974 224.762C533.142 225.415 533.496 225.929 534.038 226.302C534.579 226.671 535.225 226.855 535.977 226.855C536.471 226.855 536.915 226.778 537.307 226.624C537.699 226.465 538.007 226.241 538.231 225.952C538.455 225.663 538.567 225.32 538.567 224.923C538.567 224.662 538.52 224.44 538.427 224.258C538.333 224.071 538.21 223.917 538.056 223.796C537.902 223.675 537.734 223.574 537.552 223.495C537.37 223.411 537.192 223.343 537.02 223.292L534.465 222.529C534.157 222.44 533.872 222.328 533.611 222.193C533.349 222.053 533.121 221.887 532.925 221.696C532.733 221.5 532.584 221.271 532.477 221.01C532.369 220.749 532.316 220.45 532.316 220.114C532.316 219.545 532.465 219.052 532.764 218.637C533.062 218.222 533.471 217.902 533.989 217.678C534.507 217.454 535.097 217.344 535.76 217.349C536.432 217.349 537.031 217.468 537.559 217.706C538.091 217.944 538.529 218.285 538.875 218.728C539.22 219.167 539.449 219.687 539.561 220.289L538.483 220.485C538.413 220.046 538.252 219.666 538 219.344C537.748 219.022 537.426 218.775 537.034 218.602C536.646 218.425 536.219 218.334 535.753 218.329C535.3 218.329 534.896 218.406 534.542 218.56C534.192 218.709 533.914 218.915 533.709 219.176C533.503 219.437 533.401 219.736 533.401 220.072C533.401 220.413 533.494 220.686 533.681 220.891C533.872 221.096 534.105 221.257 534.381 221.374C534.661 221.491 534.931 221.586 535.193 221.661L537.167 222.242C537.372 222.298 537.612 222.38 537.888 222.487C538.168 222.59 538.438 222.739 538.7 222.935C538.966 223.126 539.185 223.378 539.358 223.691C539.53 224.004 539.617 224.4 539.617 224.881C539.617 225.348 539.523 225.765 539.337 226.134C539.155 226.503 538.896 226.813 538.56 227.065C538.228 227.317 537.839 227.508 537.391 227.639C536.947 227.774 536.462 227.842 535.935 227.842ZM543.603 227.821C543.15 227.821 542.753 227.751 542.413 227.611C542.077 227.471 541.79 227.282 541.552 227.044C541.318 226.806 541.129 226.535 540.985 226.232C540.84 225.924 540.735 225.6 540.67 225.259C540.604 224.914 540.572 224.571 540.572 224.23L540.572 220.072L541.608 220.072L541.608 223.929C541.608 224.344 541.647 224.729 541.727 225.084C541.806 225.439 541.932 225.749 542.105 226.015C542.282 226.276 542.508 226.479 542.784 226.624C543.064 226.769 543.402 226.841 543.799 226.841C544.163 226.841 544.482 226.778 544.758 226.652C545.038 226.526 545.271 226.346 545.458 226.113C545.649 225.875 545.794 225.588 545.892 225.252C545.99 224.911 546.039 224.529 546.039 224.104L546.767 224.265C546.767 225.04 546.631 225.691 546.361 226.218C546.09 226.745 545.717 227.144 545.241 227.415C544.765 227.686 544.219 227.821 543.603 227.821ZM546.144 227.632L546.144 225.77L546.039 225.77L546.039 220.072L547.068 220.072L547.068 227.632L546.144 227.632ZM552.069 227.842C551.374 227.842 550.786 227.667 550.305 227.317C549.824 226.962 549.46 226.484 549.213 225.882C548.966 225.275 548.842 224.596 548.842 223.845C548.842 223.08 548.966 222.398 549.213 221.801C549.465 221.199 549.834 220.725 550.319 220.38C550.804 220.035 551.402 219.862 552.111 219.862C552.802 219.862 553.394 220.037 553.889 220.387C554.384 220.737 554.762 221.213 555.023 221.815C555.289 222.417 555.422 223.094 555.422 223.845C555.422 224.601 555.289 225.28 555.023 225.882C554.757 226.484 554.374 226.962 553.875 227.317C553.376 227.667 552.774 227.842 552.069 227.842ZM548.667 230.992L548.667 220.072L549.591 220.072L549.591 225.763L549.703 225.763L549.703 230.992L548.667 230.992ZM551.964 226.883C552.491 226.883 552.93 226.75 553.28 226.484C553.63 226.218 553.891 225.856 554.064 225.399C554.241 224.937 554.33 224.419 554.33 223.845C554.33 223.276 554.244 222.762 554.071 222.305C553.898 221.848 553.635 221.486 553.28 221.22C552.93 220.954 552.484 220.821 551.943 220.821C551.416 220.821 550.977 220.949 550.627 221.206C550.282 221.463 550.023 221.82 549.85 222.277C549.677 222.73 549.591 223.252 549.591 223.845C549.591 224.428 549.677 224.951 549.85 225.413C550.023 225.87 550.284 226.23 550.634 226.491C550.984 226.752 551.427 226.883 551.964 226.883ZM560.004 227.842C559.309 227.842 558.721 227.667 558.24 227.317C557.76 226.962 557.396 226.484 557.148 225.882C556.901 225.275 556.777 224.596 556.777 223.845C556.777 223.08 556.901 222.398 557.148 221.801C557.4 221.199 557.769 220.725 558.254 220.38C558.74 220.035 559.337 219.862 560.046 219.862C560.737 219.862 561.33 220.037 561.824 220.387C562.319 220.737 562.697 221.213 562.958 221.815C563.224 222.417 563.357 223.094 563.357 223.845C563.357 224.601 563.224 225.28 562.958 225.882C562.692 226.484 562.31 226.962 561.81 227.317C561.311 227.667 560.709 227.842 560.004 227.842ZM556.602 230.992L556.602 220.072L557.526 220.072L557.526 225.763L557.638 225.763L557.638 230.992L556.602 230.992ZM559.899 226.883C560.427 226.883 560.865 226.75 561.215 226.484C561.565 226.218 561.827 225.856 561.999 225.399C562.177 224.937 562.265 224.419 562.265 223.845C562.265 223.276 562.179 222.762 562.006 222.305C561.834 221.848 561.57 221.486 561.215 221.22C560.865 220.954 560.42 220.821 559.878 220.821C559.351 220.821 558.912 220.949 558.562 221.206C558.217 221.463 557.958 221.82 557.785 222.277C557.613 222.73 557.526 223.252 557.526 223.845C557.526 224.428 557.613 224.951 557.785 225.413C557.958 225.87 558.219 226.23 558.569 226.491C558.919 226.752 559.363 226.883 559.899 226.883ZM567.701 227.842C566.95 227.842 566.308 227.672 565.776 227.331C565.244 226.99 564.836 226.519 564.551 225.917C564.267 225.315 564.124 224.624 564.124 223.845C564.124 223.052 564.269 222.356 564.558 221.759C564.848 221.162 565.258 220.697 565.79 220.366C566.327 220.03 566.964 219.862 567.701 219.862C568.457 219.862 569.101 220.032 569.633 220.373C570.17 220.709 570.578 221.178 570.858 221.78C571.143 222.377 571.285 223.066 571.285 223.845C571.285 224.638 571.143 225.336 570.858 225.938C570.574 226.535 570.163 227.002 569.626 227.338C569.09 227.674 568.448 227.842 567.701 227.842ZM567.701 226.855C568.541 226.855 569.167 226.577 569.577 226.022C569.988 225.462 570.193 224.736 570.193 223.845C570.193 222.93 569.986 222.202 569.57 221.661C569.16 221.12 568.537 220.849 567.701 220.849C567.137 220.849 566.67 220.977 566.301 221.234C565.937 221.486 565.664 221.838 565.482 222.291C565.305 222.739 565.216 223.257 565.216 223.845C565.216 224.755 565.426 225.485 565.846 226.036C566.266 226.582 566.885 226.855 567.701 226.855ZM572.48 227.632L572.48 220.072L573.404 220.072L573.404 221.892L573.222 221.654C573.306 221.43 573.415 221.225 573.551 221.038C573.686 220.847 573.833 220.69 573.992 220.569C574.188 220.396 574.416 220.266 574.678 220.177C574.939 220.084 575.203 220.03 575.469 220.016C575.735 219.997 575.977 220.016 576.197 220.072L576.197 221.038C575.921 220.968 575.62 220.952 575.294 220.989C574.967 221.026 574.666 221.157 574.391 221.381C574.139 221.577 573.95 221.813 573.824 222.088C573.698 222.359 573.614 222.648 573.572 222.956C573.53 223.259 573.509 223.56 573.509 223.859L573.509 227.632L572.48 227.632ZM581.29 227.632C580.866 227.721 580.446 227.756 580.03 227.737C579.62 227.718 579.251 227.63 578.924 227.471C578.602 227.312 578.357 227.065 578.189 226.729C578.054 226.449 577.979 226.167 577.965 225.882C577.956 225.593 577.951 225.264 577.951 224.895L577.951 217.972L578.973 217.972L578.973 224.853C578.973 225.17 578.976 225.436 578.98 225.651C578.99 225.861 579.039 226.048 579.127 226.211C579.295 226.524 579.561 226.71 579.925 226.771C580.294 226.832 580.749 226.818 581.29 226.729L581.29 227.632ZM576.334 220.954L576.334 220.072L581.29 220.072L581.29 220.954L576.334 220.954Z" fill="white"/>
</g>
<defs>
<filter id="filter0_d_5009_4046" x="37.6328" y="54.1858" width="105.637" height="94.163" filterUnits="userSpaceOnUse" color-interpolation-filters="sRGB">
<feFlood flood-opacity="0" result="BackgroundImageFix"/>
<feColorMatrix in="SourceAlpha" type="matrix" values="0 0 0 0 0 0 0 0 0 0 0 0 0 0 0 0 0 0 127 0" result="hardAlpha"/>
<feOffset dy="4"/>
<feGaussianBlur stdDeviation="5"/>
<feComposite in2="hardAlpha" operator="out"/>
<feColorMatrix type="matrix" values="0 0 0 0 0 0 0 0 0 0 0 0 0 0 0 0 0 0 0.05 0"/>
<feBlend mode="normal" in2="BackgroundImageFix" result="effect1_dropShadow_5009_4046"/>
<feBlend mode="normal" in="SourceGraphic" in2="effect1_dropShadow_5009_4046" result="shape"/>
</filter>
<filter id="filter1_d_5009_4046" x="488.492" y="46.176" width="105.637" height="94.163" filterUnits="userSpaceOnUse" color-interpolation-filters="sRGB">
<feFlood flood-opacity="0" result="BackgroundImageFix"/>
<feColorMatrix in="SourceAlpha" type="matrix" values="0 0 0 0 0 0 0 0 0 0 0 0 0 0 0 0 0 0 127 0" result="hardAlpha"/>
<feOffset dy="4"/>
<feGaussianBlur stdDeviation="5"/>
<feComposite in2="hardAlpha" operator="out"/>
<feColorMatrix type="matrix" values="0 0 0 0 0 0 0 0 0 0 0 0 0 0 0 0 0 0 0.05 0"/>
<feBlend mode="normal" in2="BackgroundImageFix" result="effect1_dropShadow_5009_4046"/>
<feBlend mode="normal" in="SourceGraphic" in2="effect1_dropShadow_5009_4046" result="shape"/>
</filter>
<filter id="filter2_d_5009_4046" x="566.789" y="30.636" width="69.3359" height="62.7271" filterUnits="userSpaceOnUse" color-interpolation-filters="sRGB">
<feFlood flood-opacity="0" result="BackgroundImageFix"/>
<feColorMatrix in="SourceAlpha" type="matrix" values="0 0 0 0 0 0 0 0 0 0 0 0 0 0 0 0 0 0 127 0" result="hardAlpha"/>
<feOffset dy="4"/>
<feGaussianBlur stdDeviation="5"/>
<feComposite in2="hardAlpha" operator="out"/>
<feColorMatrix type="matrix" values="0 0 0 0 0 0 0 0 0 0 0 0 0 0 0 0 0 0 0.05 0"/>
<feBlend mode="normal" in2="BackgroundImageFix" result="effect1_dropShadow_5009_4046"/>
<feBlend mode="normal" in="SourceGraphic" in2="effect1_dropShadow_5009_4046" result="shape"/>
</filter>
<filter id="filter3_d_5009_4046" x="68.1172" y="276.598" width="69.3359" height="62.7271" filterUnits="userSpaceOnUse" color-interpolation-filters="sRGB">
<feFlood flood-opacity="0" result="BackgroundImageFix"/>
<feColorMatrix in="SourceAlpha" type="matrix" values="0 0 0 0 0 0 0 0 0 0 0 0 0 0 0 0 0 0 127 0" result="hardAlpha"/>
<feOffset dy="4"/>
<feGaussianBlur stdDeviation="5"/>
<feComposite in2="hardAlpha" operator="out"/>
<feColorMatrix type="matrix" values="0 0 0 0 0 0 0 0 0 0 0 0 0 0 0 0 0 0 0.05 0"/>
<feBlend mode="normal" in2="BackgroundImageFix" result="effect1_dropShadow_5009_4046"/>
<feBlend mode="normal" in="SourceGraphic" in2="effect1_dropShadow_5009_4046" result="shape"/>
</filter>
<filter id="filter4_d_5009_4046" x="230.578" y="-5.64819" width="170.727" height="150.533" filterUnits="userSpaceOnUse" color-interpolation-filters="sRGB">
<feFlood flood-opacity="0" result="BackgroundImageFix"/>
<feColorMatrix in="SourceAlpha" type="matrix" values="0 0 0 0 0 0 0 0 0 0 0 0 0 0 0 0 0 0 127 0" result="hardAlpha"/>
<feOffset dy="4"/>
<feGaussianBlur stdDeviation="5"/>
<feComposite in2="hardAlpha" operator="out"/>
<feColorMatrix type="matrix" values="0 0 0 0 0 0 0 0 0 0 0 0 0 0 0 0 0 0 0.05 0"/>
<feBlend mode="normal" in2="BackgroundImageFix" result="effect1_dropShadow_5009_4046"/>
<feBlend mode="normal" in="SourceGraphic" in2="effect1_dropShadow_5009_4046" result="shape"/>
</filter>
<filter id="filter5_d_5009_4046" x="354.898" y="201.793" width="170.727" height="150.534" filterUnits="userSpaceOnUse" color-interpolation-filters="sRGB">
<feFlood flood-opacity="0" result="BackgroundImageFix"/>
<feColorMatrix in="SourceAlpha" type="matrix" values="0 0 0 0 0 0 0 0 0 0 0 0 0 0 0 0 0 0 127 0" result="hardAlpha"/>
<feOffset dy="4"/>
<feGaussianBlur stdDeviation="5"/>
<feComposite in2="hardAlpha" operator="out"/>
<feColorMatrix type="matrix" values="0 0 0 0 0 0 0 0 0 0 0 0 0 0 0 0 0 0 0.05 0"/>
<feBlend mode="normal" in2="BackgroundImageFix" result="effect1_dropShadow_5009_4046"/>
<feBlend mode="normal" in="SourceGraphic" in2="effect1_dropShadow_5009_4046" result="shape"/>
</filter>
<filter id="filter6_d_5009_4046" x="111.781" y="204.752" width="170.727" height="150.533" filterUnits="userSpaceOnUse" color-interpolation-filters="sRGB">
<feFlood flood-opacity="0" result="BackgroundImageFix"/>
<feColorMatrix in="SourceAlpha" type="matrix" values="0 0 0 0 0 0 0 0 0 0 0 0 0 0 0 0 0 0 127 0" result="hardAlpha"/>
<feOffset dy="4"/>
<feGaussianBlur stdDeviation="5"/>
<feComposite in2="hardAlpha" operator="out"/>
<feColorMatrix type="matrix" values="0 0 0 0 0 0 0 0 0 0 0 0 0 0 0 0 0 0 0.05 0"/>
<feBlend mode="normal" in2="BackgroundImageFix" result="effect1_dropShadow_5009_4046"/>
<feBlend mode="normal" in="SourceGraphic" in2="effect1_dropShadow_5009_4046" result="shape"/>
</filter>
<clipPath id="clip0_5009_4046">
<rect width="634.093" height="341.048" fill="white" transform="translate(0.921875 0.351807)"/>
</clipPath>
</defs>
</svg>
