<svg width="775" height="820" viewBox="0 0 775 820" fill="none" xmlns="http://www.w3.org/2000/svg">
<g opacity="0.3">
<path d="M-35.0904 404.327C-160.8 445.286 -351.904 624.058 -110.654 1011.48C190.91 1495.75 283.425 897.493 354.814 1477.15C426.203 2056.81 693.421 2275.97 682.164 1857.99C670.908 1440 309.611 1172.27 463.554 1096.54" stroke="url(#paint0_linear_1047_33511)" stroke-width="1.5"/>
<path d="M-33.024 381.829C-152.816 422.013 -334.422 594.507 -103.231 966.364C185.398 1430.47 275.959 864.233 347.978 1420.07C421.006 1976.85 678.566 2188.41 670.229 1793.2C661.891 1397.99 319.498 1145.9 468.413 1078.64" stroke="url(#paint1_linear_1047_33511)" stroke-width="1.5"/>
<path d="M-30.9502 359.337C-144.824 398.745 -316.926 564.962 -95.8003 921.258C179.894 1365.18 268.499 830.979 341.15 1362.99C415.816 1896.9 663.718 2100.86 658.3 1728.42C652.882 1355.98 329.392 1119.54 473.28 1060.75" stroke="url(#paint2_linear_1047_33511)" stroke-width="1.5"/>
<path d="M-28.8675 336.865C-136.824 375.497 -299.425 535.436 -88.3616 876.17C174.399 1299.92 261.049 797.746 334.331 1305.94C410.635 1816.97 648.88 2013.33 646.38 1663.66C643.88 1313.99 339.295 1093.2 478.155 1042.88" stroke="url(#paint3_linear_1047_33511)" stroke-width="1.5"/>
<path d="M-26.7705 314.408C-128.809 352.265 -281.908 505.926 -80.9078 831.099C168.918 1234.68 253.613 764.527 327.527 1248.9C405.469 1737.05 634.056 1925.81 634.475 1598.91C634.894 1272.02 349.211 1066.88 483.045 1025.02" stroke="url(#paint4_linear_1047_33511)" stroke-width="1.5"/>
<path d="M-24.6606 291.983C-120.781 329.064 -264.38 476.449 -73.4411 786.06C163.45 1169.46 246.191 731.341 320.734 1191.89C400.316 1657.17 619.244 1838.32 622.582 1534.2C625.92 1230.07 359.142 1040.59 487.947 1007.2" stroke="url(#paint5_linear_1047_33511)" stroke-width="1.5"/>
<path d="M-22.5333 269.574C-112.736 305.881 -246.834 446.987 -65.9579 741.036C157.999 1104.27 238.784 698.169 313.959 1134.9C395.18 1577.3 604.449 1750.85 610.706 1469.5C616.964 1188.15 369.089 1014.32 492.866 989.387" stroke="url(#paint6_linear_1047_33511)" stroke-width="1.5"/>
<path d="M-20.3846 247.208C-104.67 282.739 -229.266 417.567 -58.4524 696.054C152.57 1039.11 231.401 665.042 307.206 1077.95C390.065 1497.47 589.677 1663.43 598.853 1404.85C608.029 1146.27 379.058 988.086 497.808 971.62" stroke="url(#paint7_linear_1047_33511)" stroke-width="1.5"/>
<path d="M-18.2123 224.874C-96.5805 259.632 -211.676 388.182 -50.924 651.109C147.164 973.991 224.04 631.948 300.476 1021.03C384.973 1417.68 574.927 1576.03 587.022 1340.22C599.117 1104.42 389.05 961.888 502.772 953.888" stroke="url(#paint8_linear_1047_33511)" stroke-width="1.5"/>
<path d="M-16.013 202.597C-88.4635 236.579 -194.058 358.852 -43.3679 606.216C141.785 908.926 216.706 598.909 293.773 964.173C379.909 1337.94 560.205 1488.7 575.219 1275.66C590.233 1062.62 399.07 935.745 507.764 936.211" stroke="url(#paint9_linear_1047_33511)" stroke-width="1.5"/>
<path d="M-13.7687 180.376C-80.3015 213.582 -176.394 329.577 -35.7677 561.38C136.452 843.915 209.417 565.926 287.116 907.368C374.89 1258.26 545.528 1401.41 563.461 1211.15C581.394 1020.89 409.134 909.658 512.801 918.589" stroke="url(#paint10_linear_1047_33511)" stroke-width="1.5"/>
<path d="M-11.4805 158.231C-72.0964 190.661 -158.687 300.38 -28.1227 516.62C131.162 778.982 202.172 533.019 280.501 850.639C369.914 1178.66 530.894 1314.21 551.746 1146.72C572.598 979.225 419.242 883.648 517.881 901.044" stroke="url(#paint11_linear_1047_33511)" stroke-width="1.5"/>
<path d="M-9.12924 136.19C-63.8273 167.846 -140.917 271.286 -20.4146 471.965C125.936 714.154 194.991 500.218 273.951 794.017C365.002 1099.16 516.324 1227.11 540.095 1082.39C563.866 937.668 429.414 857.742 523.025 883.604" stroke="url(#paint12_linear_1047_33511)" stroke-width="1.5"/>
<path d="M-6.70211 114.274C-55.4818 145.153 -123.071 242.317 -12.6307 427.434C120.785 649.448 187.885 467.539 267.477 737.516C360.166 1019.78 501.831 1140.13 528.52 1018.18C555.21 896.235 439.661 831.959 528.246 866.287" stroke="url(#paint13_linear_1047_33511)" stroke-width="1.5"/>
<path d="M-4.15959 92.5394C-47.0222 122.644 -105.109 213.529 -4.73229 383.084C115.75 584.925 180.895 435.042 261.117 681.199C355.445 940.588 487.451 1053.33 517.06 954.158C546.668 854.984 450.024 806.358 533.58 849.152" stroke="url(#paint14_linear_1047_33511)" stroke-width="1.5"/>
</g>
<defs>
<linearGradient id="paint0_linear_1047_33511" x1="715.939" y1="2056.7" x2="-741.583" y2="866.244" gradientUnits="userSpaceOnUse">
<stop offset="0.0920837" stop-color="#0068E1"/>
<stop offset="0.448532" stop-color="#0031AF"/>
<stop offset="0.911744" stop-color="#000469"/>
</linearGradient>
<linearGradient id="paint1_linear_1047_33511" x1="702.801" y1="1978.98" x2="-708.54" y2="819.147" gradientUnits="userSpaceOnUse">
<stop offset="0.0920837" stop-color="#0068E1"/>
<stop offset="0.448532" stop-color="#0031AF"/>
<stop offset="0.911744" stop-color="#000469"/>
</linearGradient>
<linearGradient id="paint2_linear_1047_33511" x1="689.696" y1="1901.3" x2="-675.437" y2="772.108" gradientUnits="userSpaceOnUse">
<stop offset="0.0920837" stop-color="#0068E1"/>
<stop offset="0.448532" stop-color="#0031AF"/>
<stop offset="0.911744" stop-color="#000469"/>
</linearGradient>
<linearGradient id="paint3_linear_1047_33511" x1="676.632" y1="1823.68" x2="-642.268" y2="725.138" gradientUnits="userSpaceOnUse">
<stop offset="0.0920837" stop-color="#0068E1"/>
<stop offset="0.448532" stop-color="#0031AF"/>
<stop offset="0.911744" stop-color="#000469"/>
</linearGradient>
<linearGradient id="paint4_linear_1047_33511" x1="663.62" y1="1746.12" x2="-609.022" y2="678.242" gradientUnits="userSpaceOnUse">
<stop offset="0.0920837" stop-color="#0068E1"/>
<stop offset="0.448532" stop-color="#0031AF"/>
<stop offset="0.911744" stop-color="#000469"/>
</linearGradient>
<linearGradient id="paint5_linear_1047_33511" x1="650.665" y1="1668.65" x2="-575.695" y2="631.441" gradientUnits="userSpaceOnUse">
<stop offset="0.0920837" stop-color="#0068E1"/>
<stop offset="0.448532" stop-color="#0031AF"/>
<stop offset="0.911744" stop-color="#000469"/>
</linearGradient>
<linearGradient id="paint6_linear_1047_33511" x1="637.781" y1="1591.25" x2="-542.276" y2="584.727" gradientUnits="userSpaceOnUse">
<stop offset="0.0920837" stop-color="#0068E1"/>
<stop offset="0.448532" stop-color="#0031AF"/>
<stop offset="0.911744" stop-color="#000469"/>
</linearGradient>
<linearGradient id="paint7_linear_1047_33511" x1="624.985" y1="1513.98" x2="-508.751" y2="538.132" gradientUnits="userSpaceOnUse">
<stop offset="0.0920837" stop-color="#0068E1"/>
<stop offset="0.448532" stop-color="#0031AF"/>
<stop offset="0.911744" stop-color="#000469"/>
</linearGradient>
<linearGradient id="paint8_linear_1047_33511" x1="612.292" y1="1436.84" x2="-475.113" y2="491.655" gradientUnits="userSpaceOnUse">
<stop offset="0.0920837" stop-color="#0068E1"/>
<stop offset="0.448532" stop-color="#0031AF"/>
<stop offset="0.911744" stop-color="#000469"/>
</linearGradient>
<linearGradient id="paint9_linear_1047_33511" x1="599.729" y1="1359.87" x2="-441.344" y2="445.326" gradientUnits="userSpaceOnUse">
<stop offset="0.0920837" stop-color="#0068E1"/>
<stop offset="0.448532" stop-color="#0031AF"/>
<stop offset="0.911744" stop-color="#000469"/>
</linearGradient>
<linearGradient id="paint10_linear_1047_33511" x1="587.341" y1="1283.1" x2="-407.413" y2="399.15" gradientUnits="userSpaceOnUse">
<stop offset="0.0920837" stop-color="#0068E1"/>
<stop offset="0.448532" stop-color="#0031AF"/>
<stop offset="0.911744" stop-color="#000469"/>
</linearGradient>
<linearGradient id="paint11_linear_1047_33511" x1="575.17" y1="1206.59" x2="-373.305" y2="353.156" gradientUnits="userSpaceOnUse">
<stop offset="0.0920837" stop-color="#0068E1"/>
<stop offset="0.448532" stop-color="#0031AF"/>
<stop offset="0.911744" stop-color="#000469"/>
</linearGradient>
<linearGradient id="paint12_linear_1047_33511" x1="563.296" y1="1130.43" x2="-338.976" y2="307.368" gradientUnits="userSpaceOnUse">
<stop offset="0.0920837" stop-color="#0068E1"/>
<stop offset="0.448532" stop-color="#0031AF"/>
<stop offset="0.911744" stop-color="#000469"/>
</linearGradient>
<linearGradient id="paint13_linear_1047_33511" x1="553.876" y1="1054.35" x2="-302.369" y2="258.887" gradientUnits="userSpaceOnUse">
<stop offset="0.0920837" stop-color="#0068E1"/>
<stop offset="0.448532" stop-color="#0031AF"/>
<stop offset="0.911744" stop-color="#000469"/>
</linearGradient>
<linearGradient id="paint14_linear_1047_33511" x1="555.498" y1="977.084" x2="-254.692" y2="196.461" gradientUnits="userSpaceOnUse">
<stop offset="0.0920837" stop-color="#0068E1"/>
<stop offset="0.448532" stop-color="#0031AF"/>
<stop offset="0.911744" stop-color="#000469"/>
</linearGradient>
</defs>
</svg>
